{
.appVersion = "3525";
DisplayStrings = (
ODCGQ,
DPRB,
HH.HOHOSOO,
"BDEFHIKLMNPR/N.001",
"RHODES/space phones/space nnsnosoo",
"/R.002"
);
copyright = "© Copyright (c) 2026, loyalkaspar.inc.";
customParameters = (
{
name = Axes;
value = (
{
Name = Weight;
Tag = wght;
},
{
Name = Width;
Tag = wdth;
}
);
}
);
date = "2026-02-23 22:22:13 +0000";
designer = "Beat Baudenbacher";
designerURL = "https://www.loyalkaspar.com/";
familyName = "Gemini Prototype";
featurePrefixes = (
{
automatic = 1;
code = "languagesystem DFLT dflt;\012";
name = Languagesystems;
}
);
features = (
{
automatic = 1;
code = "sub f f by f_f.liga;\012sub f t by f_t.liga;\012sub t f by t_f.liga;\012sub t t by t_t.liga;\012";
name = liga;
},
{
code = "sub quoteright by quoteright.001;\012sub comma by comma.001;";
name = ss01;
notes = "Name: 001";
},
{
code = "sub quoteright by quoteright.002;\012sub comma by comma.002;";
name = ss02;
notes = "Name: 002";
},
{
code = "sub quoteright by quoteright.003;\012sub comma by comma.003;";
name = ss03;
notes = "Name: 003";
}
);
fontMaster = (
{
alignmentZones = (
"{720, 11}",
"{554, 11}",
"{0, -11}",
"{-209, -5}"
);
ascender = 960;
capHeight = 720;
custom = "Cond Regular Italic";
descender = -240;
iconName = Condensed;
id = "B0F4357D-9A3D-47FA-BF9B-88CD901EB1E7";
weightValue = 400;
widthValue = 1;
xHeight = 554;
},
{
alignmentZones = (
"{720, 11}",
"{554, 11}",
"{0, -11}",
"{-209, -5}"
);
ascender = 960;
capHeight = 720;
custom = "Cond Black Italic";
descender = -240;
iconName = Bold_Condensed;
id = "4050705C-5704-4184-B7B7-497C68798CAB";
visible = 1;
weightValue = 700;
widthValue = 1;
xHeight = 554;
},
{
alignmentZones = (
"{720, 11}",
"{554, 11}",
"{0, -11}",
"{-209, -5}"
);
ascender = 960;
capHeight = 720;
custom = "Ext Regular Italic";
descender = -240;
iconName = Extended;
id = "8223A6C9-5008-4716-B76D-F393BDA840D5";
weightValue = 400;
widthValue = 200;
xHeight = 554;
},
{
alignmentZones = (
"{720, 11}",
"{554, 11}",
"{0, -11}",
"{-209, -5}"
);

glyphs = (
{
glyphname = A;
lastChange = "2026-05-29 19:50:48 +0000";
layers = (
{
layerId = m003;
paths = (
{
closed = 1;
nodes = (
"593 0 LINE",
"555 240 OFFCURVE",
"520 481 OFFCURVE",
"486 721 CURVE",
"333 721 LINE",
"197 481 OFFCURVE",
"59 240 OFFCURVE",
"-81 0 CURVE",
"102 0 LINE",
"119 34 OFFCURVE",
"136 67 OFFCURVE",
"154 101 CURVE",
"235 103 OFFCURVE",
"320 103 OFFCURVE",
"401 101 CURVE",
"405 67 OFFCURVE",
"408 34 OFFCURVE",
"410 0 CURVE"
);
},
{
closed = 1;
nodes = (
"271 325 OFFCURVE",
"315 403 OFFCURVE",
"359 481 CURVE",
"359 481 LINE",
"369 403 OFFCURVE",
"379 325 OFFCURVE",
"386 247 CURVE",
"335 245 OFFCURVE",
"281 245 OFFCURVE",
"232 247 CURVE"
);
}
);
width = 666;
},
{
layerId = "4050705C-5704-4184-B7B7-497C68798CAB";
paths = (
{
closed = 1;
nodes = (
"539 0 LINE",
"504 240 OFFCURVE",
"470 481 OFFCURVE",
"435 721 CURVE",
"253 721 LINE",
"152 481 OFFCURVE",
"50 240 OFFCURVE",
"-55 0 CURVE",
"158 0 LINE",
"168 31 OFFCURVE",
"176 61 OFFCURVE",
"185 92 CURVE",
"231 94 OFFCURVE",
"281 94 OFFCURVE",
"325 92 CURVE",
"326 61 OFFCURVE",
"326 31 OFFCURVE",
"326 0 CURVE"
);
},
{
closed = 1;
nodes = (
"258 317 OFFCURVE",
"280 383 OFFCURVE",
"302 450 CURVE",
"310 450 LINE",
"312 383 OFFCURVE",
"316 317 OFFCURVE",
"318 250 CURVE",
"292 248 OFFCURVE",
"262 248 OFFCURVE",
"236 250 CURVE"
);
}
);
width = 586;
},
{
layerId = "B0F4357D-9A3D-47FA-BF9B-88CD901EB1E7";
paths = (
{
closed = 1;
nodes = (
"539 0 LINE",
"504 240 OFFCURVE",
"470 481 OFFCURVE",
"435 721 CURVE",
"253 721 LINE",
"152 481 OFFCURVE",
"50 240 OFFCURVE",
"-55 0 CURVE",
"158 0 LINE",
"168 31 OFFCURVE",
"176 61 OFFCURVE",
"185 92 CURVE",
"231 94 OFFCURVE",
"281 94 OFFCURVE",
"325 92 CURVE",
"326 61 OFFCURVE",
"326 31 OFFCURVE",
"326 0 CURVE"
);
},
{
closed = 1;
nodes = (
"258 317 OFFCURVE",
"280 383 OFFCURVE",
"302 450 CURVE",
"310 450 LINE",
"312 383 OFFCURVE",
"316 317 OFFCURVE",
"318 250 CURVE",
"292 248 OFFCURVE",
"262 248 OFFCURVE",
"236 250 CURVE"
);
}
);
width = 586;
},
{
layerId = "8223A6C9-5008-4716-B76D-F393BDA840D5";
paths = (
{
closed = 1;
nodes = (
"593 0 LINE",
"555 240 OFFCURVE",
"520 481 OFFCURVE",
"486 721 CURVE",
"333 721 LINE",
"197 481 OFFCURVE",
"59 240 OFFCURVE",
"-81 0 CURVE",
"102 0 LINE",
"119 34 OFFCURVE",
"136 67 OFFCURVE",
"154 101 CURVE",
"235 103 OFFCURVE",
"320 103 OFFCURVE",
"401 101 CURVE",
"405 67 OFFCURVE",
"408 34 OFFCURVE",
"410 0 CURVE"
);
},
{
closed = 1;
nodes = (
"271 324.25 OFFCURVE",
"315 403.75 OFFCURVE",
"359 481 CURVE",
"359 481 LINE",
"369 403 OFFCURVE",
"379 325 OFFCURVE",
"386 247 CURVE",
"335 245 OFFCURVE",
"281 245 OFFCURVE",
"232 247 CURVE"
);
}
);
width = 666;
}
);
note = A;
rightKerningGroup = A;
unicode = 0041;
},
{
glyphname = B;
lastChange = "2026-05-29 19:50:48 +0000";
layers = (
{
layerId = m003;
paths = (
{
closed = 1;
nodes = (
"307 0 LINE SMOOTH",
"450 0 OFFCURVE",
"551 79 OFFCURVE",
"577 202 CURVE SMOOTH",
"596 292 OFFCURVE",
"558 354 OFFCURVE",
"493 375 CURVE",
"558 405 OFFCURVE",
"606 453 OFFCURVE",
"621 525 CURVE SMOOTH",
"647 648 OFFCURVE",
"580 721 OFFCURVE",
"436 721 CURVE SMOOTH",
"130 721 LINE",
"123 684 OFFCURVE",
"95 547 OFFCURVE",
"57 370 CURVE SMOOTH",
"18 187 OFFCURVE",
"-16 33 OFFCURVE",
"-24 0 CURVE"
);
},
{
closed = 1;
nodes = (
"193 194 OFFCURVE",
"203 241 OFFCURVE",
"214 289 CURVE",
"340 289 LINE SMOOTH",
"390 289 OFFCURVE",
"411 264 OFFCURVE",
"402 218 CURVE SMOOTH",
"392 170 OFFCURVE",
"360 146 OFFCURVE",
"309 146 CURVE SMOOTH",
"183 146 LINE"
);
},
{
closed = 1;
nodes = (
"253 480 OFFCURVE",
"263 527 OFFCURVE",
"275 575 CURVE",
"377 575 LINE SMOOTH",
"427 575 OFFCURVE",
"449 552 OFFCURVE",
"439 504 CURVE SMOOTH",
"429 457 OFFCURVE",
"395 432 OFFCURVE",
"346 432 CURVE SMOOTH",
"244 432 LINE"
);
}
);
width = 639;
},
{
associatedMasterId = m003;
layerId = "4FEB32F9-772C-44A7-BEEC-4633A4970EB8";
name = "May 7, 26 at 13:40";
paths = (
{
closed = 1;
nodes = (
"490 375 OFFCURVE",
"586 413 OFFCURVE",
"586 525 CURVE SMOOTH",
"586 648 OFFCURVE",
"503 721 OFFCURVE",
"359 721 CURVE SMOOTH",
"53 721 LINE",
"54 684 OFFCURVE",
"55 547 OFFCURVE",
"55 370 CURVE SMOOTH",
"55 187 OFFCURVE",
"54 33 OFFCURVE",
"53 0 CURVE",
"384 0 LINE SMOOTH",
"527 0 OFFCURVE",
"611 79 OFFCURVE",
"611 202 CURVE SMOOTH",
"611 347 OFFCURVE",
"490 375 OFFCURVE",
"490 375 CURVE SMOOTH"
);
},
{
closed = 1;
nodes = (
"381 575 OFFCURVE",
"408 552 OFFCURVE",
"408 504 CURVE SMOOTH",
"408 457 OFFCURVE",
"380 432 OFFCURVE",
"331 432 CURVE SMOOTH",
"229 432 LINE",
"228 480 OFFCURVE",
"228 527 OFFCURVE",
"229 575 CURVE",
"331 575 LINE SMOOTH"
);
},
{
closed = 1;
nodes = (
"229 146 LINE",
"228 194 OFFCURVE",
"228 241 OFFCURVE",
"229 289 CURVE",
"355 289 LINE SMOOTH",
"405 289 OFFCURVE",
"432 264 OFFCURVE",
"432 218 CURVE SMOOTH",
"432 170 OFFCURVE",
"406 146 OFFCURVE",
"355 146 CURVE SMOOTH"
);
}
);
width = 639;
},
{
layerId = "4050705C-5704-4184-B7B7-497C68798CAB";
paths = (
{
closed = 1;
nodes = (
"263 0 LINE SMOOTH",
"426 0 OFFCURVE",
"523 65 OFFCURVE",
"542 199 CURVE SMOOTH",
"553 275 OFFCURVE",
"522 334 OFFCURVE",
"454 370 CURVE",
"524 390 OFFCURVE",
"566 450 OFFCURVE",
"576 522 CURVE SMOOTH",
"594 653 OFFCURVE",
"518 721 OFFCURVE",
"359 721 CURVE SMOOTH",
"104 721 LINE",
"99 673 OFFCURVE",
"72 484 OFFCURVE",
"56 366 CURVE SMOOTH",
"39 244 OFFCURVE",
"9 42 OFFCURVE",
"2 0 CURVE"
);
},
{
closed = 1;
nodes = (
"241 301 LINE",
"286 301 LINE SMOOTH",
"333 301 OFFCURVE",
"352 271 OFFCURVE",
"347 230 CURVE SMOOTH",
"341 188 OFFCURVE",
"313 158 OFFCURVE",
"266 158 CURVE SMOOTH",
"221 158 LINE"
);
},
{
closed = 1;
nodes = (
"277 563 LINE",
"312 563 LINE SMOOTH",
"357 563 OFFCURVE",
"378 535 OFFCURVE",
"372 497 CURVE SMOOTH",
"367 459 OFFCURVE",
"339 431 OFFCURVE",
"294 431 CURVE SMOOTH",
"259 431 LINE"
);
}
);
width = 600;
},
{
layerId = "B0F4357D-9A3D-47FA-BF9B-88CD901EB1E7";
paths = (
{
closed = 1;
nodes = (
"263 0 LINE SMOOTH",
"426 0 OFFCURVE",
"523 65 OFFCURVE",
"542 199 CURVE SMOOTH",
"553 275 OFFCURVE",
"522 334 OFFCURVE",
"454 370 CURVE",
"524 390 OFFCURVE",
"566 450 OFFCURVE",
"576 522 CURVE SMOOTH",
"594 653 OFFCURVE",
"518 721 OFFCURVE",
"359 721 CURVE SMOOTH",
"104 721 LINE",
"99 673 OFFCURVE",
"72 484 OFFCURVE",
"56 366 CURVE SMOOTH",
"39 244 OFFCURVE",
"9 42 OFFCURVE",
"2 0 CURVE"
);
},
{
closed = 1;
nodes = (
"241 301 LINE",
"286 301 LINE SMOOTH",
"333 301 OFFCURVE",
"352 271 OFFCURVE",
"347 230 CURVE SMOOTH",
"341 188 OFFCURVE",
"313 158 OFFCURVE",
"266 158 CURVE SMOOTH",
"221 158 LINE"
);
},
{
closed = 1;
nodes = (
"277 563 LINE",
"312 563 LINE SMOOTH",
"357 563 OFFCURVE",
"378 535 OFFCURVE",
"372 497 CURVE SMOOTH",
"367 459 OFFCURVE",
"339 431 OFFCURVE",
"294 431 CURVE SMOOTH",
"259 431 LINE"
);
}
);
width = 600;
},
{
layerId = "8223A6C9-5008-4716-B76D-F393BDA840D5";
paths = (
{
closed = 1;
nodes = (
"246.25 0 LINE SMOOTH",
"389.25 0 OFFCURVE",
"489.5 85.75 OFFCURVE",
"511 208.75 CURVE SMOOTH",
"527.75 298.75 OFFCURVE",
"486.75 359.25 OFFCURVE",
"421 378 CURVE",
"480 402.75 OFFCURVE",
"531.75 459 OFFCURVE",
"545.25 531 CURVE SMOOTH",
"566 648 OFFCURVE",
"496.75 718.75 OFFCURVE",
"374.5 719.5 CURVE SMOOTH",
"130 721 LINE",
"123 684 OFFCURVE",
"95 547 OFFCURVE",
"57 370 CURVE SMOOTH",
"18 187 OFFCURVE",
"-16 33 OFFCURVE",
"-24 0 CURVE"
);
},
{
closed = 1;
nodes = (
"106.75 142.25 OFFCURVE",
"135.5 277 OFFCURVE",
"146.5 325 CURVE",
"301 325 LINE SMOOTH",
"384 325 OFFCURVE",
"426 279.75 OFFCURVE",
"411 207.5 CURVE SMOOTH",
"395 133.25 OFFCURVE",
"332.25 86 OFFCURVE",
"249.75 86 CURVE SMOOTH",
"95.25 86 LINE"
);
},
{
closed = 1;
nodes = (
"173.5 458.25 OFFCURVE",
"202.25 592.25 OFFCURVE",
"212.75 635 CURVE",
"343.25 635 LINE SMOOTH",
"417.25 635 OFFCURVE",
"458 596.25 OFFCURVE",
"443.5 526.5 CURVE SMOOTH",
"429 457 OFFCURVE",
"376.25 410.25 OFFCURVE",
"295 410.25 CURVE SMOOTH",
"164.5 410.25 LINE"
);
}
);
width = 564;
}
);
note = B;
rightKerningGroup = B;
unicode = 0042;
},
{
glyphname = C;
lastChange = "2026-05-29 19:50:48 +0000";
layers = (
{
layerId = m003;
paths = (
{
closed = 1;
nodes = (
"223 733 OFFCURVE",
"82 605 OFFCURVE",
"30 360 CURVE SMOOTH",
"-22 115 OFFCURVE",
"65 -12 OFFCURVE",
"281 -12 CURVE SMOOTH",
"344 -12 OFFCURVE",
"407 -1 OFFCURVE",
"471 10 CURVE",
"482 65 OFFCURVE",
"494 121 OFFCURVE",
"507 176 CURVE",
"447 150 OFFCURVE",
"388 139 OFFCURVE",
"328 139 CURVE SMOOTH",
"209 139 OFFCURVE",
"188 232 OFFCURVE",
"215 360 CURVE SMOOTH",
"242 488 OFFCURVE",
"303 582 OFFCURVE",
"422 582 CURVE SMOOTH",
"482 582 OFFCURVE",
"532 564 OFFCURVE",
"585 545 CURVE",
"596 600 OFFCURVE",
"608 655 OFFCURVE",
"620 710 CURVE",
"563 728 OFFCURVE",
"502 733 OFFCURVE",
"439 733 CURVE SMOOTH"
);
}
);
width = 576;
},
{
layerId = "4050705C-5704-4184-B7B7-497C68798CAB";
paths = (
{
closed = 1;
nodes = (
"215 252 OFFCURVE",
"243 163 OFFCURVE",
"343 163 CURVE SMOOTH",
"388 163 OFFCURVE",
"428 180 OFFCURVE",
"472 199 CURVE",
"445 11 LINE",
"392 -7 OFFCURVE",
"337 -12 OFFCURVE",
"283 -12 CURVE SMOOTH",
"52 -12 OFFCURVE",
"3 167 OFFCURVE",
"30 357 CURVE SMOOTH",
"57 547 OFFCURVE",
"156 726 OFFCURVE",
"387 726 CURVE SMOOTH",
"441 726 OFFCURVE",
"491 715 OFFCURVE",
"543 703 CURVE",
"516 515 LINE",
"483 541 OFFCURVE",
"442 551 OFFCURVE",
"397 551 CURVE SMOOTH",
"297 551 OFFCURVE",
"245 462 OFFCURVE",
"230 357 CURVE SMOOTH"
);
}
);
width = 524;
},
{
layerId = "B0F4357D-9A3D-47FA-BF9B-88CD901EB1E7";
paths = (
{
closed = 1;
nodes = (
"215 252 OFFCURVE",
"243 163 OFFCURVE",
"343 163 CURVE SMOOTH",
"388 163 OFFCURVE",
"428 180 OFFCURVE",
"472 199 CURVE",
"445 11 LINE",
"392 -7 OFFCURVE",
"337 -12 OFFCURVE",
"283 -12 CURVE SMOOTH",
"52 -12 OFFCURVE",
"3 167 OFFCURVE",
"30 357 CURVE SMOOTH",
"57 547 OFFCURVE",
"156 726 OFFCURVE",
"387 726 CURVE SMOOTH",
"441 726 OFFCURVE",
"491 715 OFFCURVE",
"543 703 CURVE",
"516 515 LINE",
"483 541 OFFCURVE",
"442 551 OFFCURVE",
"397 551 CURVE SMOOTH",
"297 551 OFFCURVE",
"245 462 OFFCURVE",
"230 357 CURVE SMOOTH"
);
}
);
width = 524;
},
{
layerId = "8223A6C9-5008-4716-B76D-F393BDA840D5";
paths = (
{
closed = 1;
nodes = (
"223 733 OFFCURVE",
"82 605 OFFCURVE",
"30 360 CURVE SMOOTH",
"-22 115 OFFCURVE",
"65 -12 OFFCURVE",
"281 -12 CURVE SMOOTH",
"344 -12 OFFCURVE",
"407 -1 OFFCURVE",
"471 10 CURVE",
"482 65 OFFCURVE",
"494 121 OFFCURVE",
"507 176 CURVE",
"447 150 OFFCURVE",
"388 139 OFFCURVE",
"328 139 CURVE SMOOTH",
"209 139 OFFCURVE",
"188 232 OFFCURVE",
"215 360 CURVE SMOOTH",
"242 488 OFFCURVE",
"303 582 OFFCURVE",
"422 582 CURVE SMOOTH",
"482 582 OFFCURVE",
"532 564 OFFCURVE",
"585 545 CURVE",
"596 600 OFFCURVE",
"608 655 OFFCURVE",
"620 710 CURVE",
"563 728 OFFCURVE",
"502 733 OFFCURVE",
"439 733 CURVE SMOOTH"
);
}
);
width = 576;
}
);
leftKerningGroup = C;
note = C;
rightKerningGroup = C;
unicode = 0043;
},
{
color = 1;
glyphname = D;
lastChange = "2026-05-29 19:50:48 +0000";
layers = (
{
layerId = m003;
paths = (
{
closed = 1;
nodes = (
"332 0 LINE SMOOTH",
"578 0 OFFCURVE",
"713 118 OFFCURVE",
"751 332 CURVE SMOOTH",
"798 598 OFFCURVE",
"669 721 OFFCURVE",
"426 721 CURVE SMOOTH",
"117 721 LINE",
"110 684 OFFCURVE",
"82 547 OFFCURVE",
"44 370 CURVE SMOOTH",
"5 187 OFFCURVE",
"-29 33 OFFCURVE",
"-37 0 CURVE"
);
},
{
closed = 1;
nodes = (
"249 232 OFFCURVE",
"255 269 OFFCURVE",
"276 372 CURVE SMOOTH",
"289 431 OFFCURVE",
"302 487 OFFCURVE",
"311 524 CURVE",
"392 524 LINE SMOOTH",
"496 524 OFFCURVE",
"533 464 OFFCURVE",
"515 369 CURVE SMOOTH",
"493 250 OFFCURVE",
"430 197 OFFCURVE",
"322 197 CURVE SMOOTH",
"241 197 LINE"
);
}
);
width = 788;
},
{
layerId = "4050705C-5704-4184-B7B7-497C68798CAB";
paths = (
{
closed = 1;
nodes = (
"206 0 LINE SMOOTH",
"429 0 OFFCURVE",
"523 160 OFFCURVE",
"550 349 CURVE SMOOTH",
"579 556 OFFCURVE",
"485 721 OFFCURVE",
"284 721 CURVE SMOOTH",
"91 721 LINE",
"86 673 OFFCURVE",
"59 484 OFFCURVE",
"43 366 CURVE SMOOTH",
"26 244 OFFCURVE",
"-4 42 OFFCURVE",
"-11 0 CURVE"
);
},
{
closed = 1;
nodes = (
"218 242 OFFCURVE",
"226 306 OFFCURVE",
"235 370 CURVE SMOOTH",
"243 428 OFFCURVE",
"252 485 OFFCURVE",
"262 543 CURVE",
"279 543 LINE SMOOTH",
"344 543 OFFCURVE",
"365 461 OFFCURVE",
"352 371 CURVE SMOOTH",
"335 254 OFFCURVE",
"298 178 OFFCURVE",
"227 178 CURVE SMOOTH",
"210 178 LINE"
);
}
);
width = 578;
},
{
layerId = "B0F4357D-9A3D-47FA-BF9B-88CD901EB1E7";
paths = (
{
closed = 1;
nodes = (
"153.5 0 LINE SMOOTH",
"339 0 OFFCURVE",
"436.75 116.5 OFFCURVE",
"469 355 CURVE SMOOTH",
"502.5 603.25 OFFCURVE",
"411.5 721 OFFCURVE",
"242 721 CURVE SMOOTH",
"87.25 721 LINE",
"82.25 673 OFFCURVE",
"55.25 484 OFFCURVE",
"39.25 366 CURVE SMOOTH",
"22.25 244 OFFCURVE",
"-7.75 42 OFFCURVE",
"-14.75 0 CURVE"
);
},
{
closed = 1;
nodes = (
"116.75 187.25 OFFCURVE",
"128.5 278.25 OFFCURVE",
"141.25 370 CURVE SMOOTH",
"153 454.25 OFFCURVE",
"166.5 541.25 OFFCURVE",
"179.5 625.5 CURVE",
"231.75 625.5 LINE SMOOTH",
"345.5 625.5 OFFCURVE",
"388.25 539.75 OFFCURVE",
"363.25 360.5 CURVE SMOOTH",
"337.25 173.75 OFFCURVE",
"279.25 95.5 OFFCURVE",
"157.25 95.5 CURVE SMOOTH",
"105 95.5 LINE"
);
}
);
width = 497.75;
},
{
layerId = "8223A6C9-5008-4716-B76D-F393BDA840D5";
paths = (
{
closed = 1;
nodes = (
"260.75 0 LINE SMOOTH",
"499.25 0 OFFCURVE",
"640.25 118 OFFCURVE",
"679.75 333.5 CURVE SMOOTH",
"723.75 575.5 OFFCURVE",
"614.25 721 OFFCURVE",
"384.75 721 CURVE SMOOTH",
"113.25 721 LINE",
"104.75 674.25 OFFCURVE",
"72.25 519.25 OFFCURVE",
"40.25 370 CURVE SMOOTH",
"5 205.75 OFFCURVE",
"-32 37.5 OFFCURVE",
"-40.75 0 CURVE"
);
},
{
closed = 1;
nodes = (
"105.75 133.75 OFFCURVE",
"126 237.5 OFFCURVE",
"153.75 372 CURVE SMOOTH",
"175 470 OFFCURVE",
"201.5 588.25 OFFCURVE",
"209.75 622.25 CURVE",
"371.75 622.25 LINE SMOOTH",
"534.25 622.25 OFFCURVE",
"598.25 520.25 OFFCURVE",
"568.25 354.75 CURVE SMOOTH",
"536.5 181 OFFCURVE",
"427.75 98.75 OFFCURVE",
"259.75 98.75 CURVE SMOOTH",
"97.75 98.75 LINE"
);
}
);
width = 715.25;
}
);
leftMetricsKey = H;
note = D;
rightKerningGroup = D;
unicode = 0044;
},
{
color = 1;
glyphname = E;
lastChange = "2026-05-29 19:50:48 +0000";
layers = (
{
layerId = m003;
paths = (
{
closed = 1;
nodes = (
"163 2 OFFCURVE",
"376 2 OFFCURVE",
"563 0 CURVE",
"573 56 OFFCURVE",
"590 135 OFFCURVE",
"603 188 CURVE",
"493 187 OFFCURVE",
"357 187 OFFCURVE",
"229 188 CURVE",
"236 226 OFFCURVE",
"237 229 OFFCURVE",
"246 267 CURVE",
"363 268 OFFCURVE",
"488 268 OFFCURVE",
"587 267 CURVE",
"598 323 OFFCURVE",
"614 399 OFFCURVE",
"627 455 CURVE",
"528 454 OFFCURVE",
"403 454 OFFCURVE",
"286 455 CURVE",
"292 489 OFFCURVE",
"294 499 OFFCURVE",
"303 533 CURVE",
"428 534 OFFCURVE",
"560 534 OFFCURVE",
"667 533 CURVE",
"677 586 OFFCURVE",
"694 665 OFFCURVE",
"707 721 CURVE",
"517 719 OFFCURVE",
"316 719 OFFCURVE",
"117 721 CURVE",
"110 684 OFFCURVE",
"82 547 OFFCURVE",
"44 370 CURVE SMOOTH",
"5 187 OFFCURVE",
"-29 33 OFFCURVE",
"-37 0 CURVE"
);
}
);
width = 672;
},
{
layerId = "4050705C-5704-4184-B7B7-497C68798CAB";
paths = (
{
closed = 1;
nodes = (
"137 1 OFFCURVE",
"276 1 OFFCURVE",
"424 0 CURVE",
"432 59 OFFCURVE",
"440 119 OFFCURVE",
"449 178 CURVE",
"366 178 OFFCURVE",
"292 178 OFFCURVE",
"209 178 CURVE",
"213 209 OFFCURVE",
"218 245 OFFCURVE",
"222 276 CURVE",
"301 277 OFFCURVE",
"371 277 OFFCURVE",
"450 276 CURVE",
"458 336 OFFCURVE",
"466 393 OFFCURVE",
"475 453 CURVE",
"396 452 OFFCURVE",
"326 452 OFFCURVE",
"247 453 CURVE",
"251 484 OFFCURVE",
"255 512 OFFCURVE",
"261 543 CURVE",
"342 544 OFFCURVE",
"414 544 OFFCURVE",
"495 543 CURVE",
"502 602 OFFCURVE",
"510 662 OFFCURVE",
"520 721 CURVE",
"374 720 OFFCURVE",
"237 720 OFFCURVE",
"91 721 CURVE",
"86 673 OFFCURVE",
"59 484 OFFCURVE",
"43 366 CURVE SMOOTH",
"26 244 OFFCURVE",
"-4 42 OFFCURVE",
"-11 0 CURVE"
);
}
);
width = 507;
},
{
layerId = "B0F4357D-9A3D-47FA-BF9B-88CD901EB1E7";
paths = (
{
closed = 1;
nodes = (
"133.25 1 OFFCURVE",
"197.25 1 OFFCURVE",
"345.25 0 CURVE",
"349.5 32.75 OFFCURVE",
"353.75 65.75 OFFCURVE",
"359 98.5 CURVE",
"276 98.5 OFFCURVE",
"187 98.5 OFFCURVE",
"104 98.5 CURVE",
"113.25 170 OFFCURVE",
"124.25 245.75 OFFCURVE",
"134.25 317.25 CURVE",
"213.25 318.25 OFFCURVE",
"298.25 318.25 OFFCURVE",
"377.25 317.25 CURVE",
"380.75 350.25 OFFCURVE",
"385.75 383.25 OFFCURVE",
"391 416.25 CURVE",
"312 415.25 OFFCURVE",
"227 415.25 OFFCURVE",
"148 416.25 CURVE",
"158 485.5 OFFCURVE",
"167.25 551 OFFCURVE",
"177.75 620.25 CURVE",
"258.75 621.25 OFFCURVE",
"345.75 621.25 OFFCURVE",
"426.75 620.25 CURVE",
"430.75 653.75 OFFCURVE",
"435 687.5 OFFCURVE",
"441.25 721 CURVE",
"295.25 720 OFFCURVE",
"233.25 720 OFFCURVE",
"87.25 721 CURVE",
"82.25 673 OFFCURVE",
"55.25 484 OFFCURVE",
"39.25 366 CURVE SMOOTH",
"22.25 244 OFFCURVE",
"-7.75 42 OFFCURVE",
"-14.75 0 CURVE"
);
}
);
width = 427.5;
},
{
layerId = "8223A6C9-5008-4716-B76D-F393BDA840D5";
paths = (
{
closed = 1;
nodes = (
"52 2 OFFCURVE",
"316.667 2 OFFCURVE",
"484.333 0 CURVE",
"490 31.667 OFFCURVE",
"498.333 70.667 OFFCURVE",
"506.333 101.333 CURVE",
"399.333 100.333 OFFCURVE",
"207.667 100.333 OFFCURVE",
"96.333 101.333 CURVE",
"111.667 178.333 OFFCURVE",
"124.667 239.333 OFFCURVE",
"141.333 316.667 CURVE",
"242.667 317.667 OFFCURVE",
"423 317.667 OFFCURVE",
"519 316.667 CURVE",
"524.667 348 OFFCURVE",
"533.333 386.667 OFFCURVE",
"540.333 418 CURVE",
"444.333 417 OFFCURVE",
"263.667 417 OFFCURVE",
"162.667 418 CURVE",
"175.333 479 OFFCURVE",
"192.333 558.667 OFFCURVE",
"206.333 619.667 CURVE",
"314.667 620.667 OFFCURVE",
"502.333 620.667 OFFCURVE",
"606.333 619.667 CURVE",
"612.667 652.333 OFFCURVE",
"619.667 687.667 OFFCURVE",
"628.333 721 CURVE",
"457 719 OFFCURVE",
"205 719 OFFCURVE",
"113.333 721 CURVE",
"106.333 684 OFFCURVE",
"78.333 547 OFFCURVE",
"40.333 370 CURVE SMOOTH",
"1.333 187 OFFCURVE",
"-32.667 33 OFFCURVE",
"-40.667 0 CURVE"
);
}
);
width = 584.33333;
}
);
leftMetricsKey = H;
note = E;
rightKerningGroup = E;
unicode = 0045;
},
{
glyphname = F;
lastChange = "2026-05-29 19:50:48 +0000";
layers = (
{
layerId = m003;
paths = (
{
closed = 1;
nodes = (
"495 340 OFFCURVE",
"506 392 OFFCURVE",
"518 445 CURVE",
"426 443 OFFCURVE",
"335 443 OFFCURVE",
"245 445 CURVE",
"254 484 OFFCURVE",
"263 524 OFFCURVE",
"272 563 CURVE",
"368 565 OFFCURVE",
"465 565 OFFCURVE",
"561 563 CURVE",
"575 616 OFFCURVE",
"590 668 OFFCURVE",
"607 721 CURVE",
"447 719 OFFCURVE",
"288 719 OFFCURVE",
"130 721 CURVE",
"123 684 OFFCURVE",
"95 547 OFFCURVE",
"57 370 CURVE SMOOTH",
"18 187 OFFCURVE",
"-16 33 OFFCURVE",
"-24 0 CURVE",
"152 0 LINE",
"171 96 OFFCURVE",
"191 191 OFFCURVE",
"211 287 CURVE",
"303 289 OFFCURVE",
"394 289 OFFCURVE",
"484 287 CURVE"
);
}
);
width = 553;
},
{
layerId = "4050705C-5704-4184-B7B7-497C68798CAB";
paths = (
{
closed = 1;
nodes = (
"252 720 OFFCURVE",
"401 720 OFFCURVE",
"549 721 CURVE",
"539 662 OFFCURVE",
"531 602 OFFCURVE",
"524 543 CURVE",
"441 543 OFFCURVE",
"357 543 OFFCURVE",
"274 543 CURVE",
"268 512 OFFCURVE",
"264 481 OFFCURVE",
"260 450 CURVE",
"338 449 OFFCURVE",
"418 449 OFFCURVE",
"498 450 CURVE",
"488 390 OFFCURVE",
"480 331 OFFCURVE",
"472 271 CURVE",
"393 271 OFFCURVE",
"313 271 OFFCURVE",
"234 271 CURVE",
"222 181 OFFCURVE",
"203 40 OFFCURVE",
"198 0 CURVE",
"2 0 LINE",
"9 42 OFFCURVE",
"39 244 OFFCURVE",
"56 366 CURVE SMOOTH",
"72 484 OFFCURVE",
"99 673 OFFCURVE",
"104 721 CURVE"
);
}
);
width = 521;
},
{
layerId = "B0F4357D-9A3D-47FA-BF9B-88CD901EB1E7";
paths = (
{
closed = 1;
nodes = (
"245.25 720 OFFCURVE",
"325.25 720 OFFCURVE",
"466.5 721 CURVE",
"460.25 688.25 OFFCURVE",
"456 655.25 OFFCURVE",
"452.75 622.5 CURVE",
"369.75 622.5 OFFCURVE",
"278.25 622.5 OFFCURVE",
"195.25 622.5 CURVE",
"184 552.5 OFFCURVE",
"174 482.5 OFFCURVE",
"164.75 412.5 CURVE",
"242.75 411.5 OFFCURVE",
"330.25 411.5 OFFCURVE",
"410.25 412.5 CURVE",
"404 380.25 OFFCURVE",
"399.75 348.25 OFFCURVE",
"396.25 316 CURVE",
"317.25 316 OFFCURVE",
"229.75 316 OFFCURVE",
"150.75 316 CURVE",
"135.75 211 OFFCURVE",
"113.75 46.75 OFFCURVE",
"108 0 CURVE",
"2 0 LINE",
"9 42 OFFCURVE",
"39 244 OFFCURVE",
"56 366 CURVE SMOOTH",
"72 484 OFFCURVE",
"99 673 OFFCURVE",
"104 721 CURVE"
);
}
);
width = 438.5;
},
{
layerId = "8223A6C9-5008-4716-B76D-F393BDA840D5";
paths = (
{
closed = 1;
nodes = (
"423 355 OFFCURVE",
"429.5 384.5 OFFCURVE",
"436.25 415 CURVE",
"344.25 413 OFFCURVE",
"253.25 413 OFFCURVE",
"163.25 415 CURVE",
"179.75 486.25 OFFCURVE",
"195.5 559.25 OFFCURVE",
"211.25 630.5 CURVE",
"308 632.5 OFFCURVE",
"414 632.5 OFFCURVE",
"509.25 630.5 CURVE",
"515 661 OFFCURVE",
"522.5 690.5 OFFCURVE",
"532 721 CURVE",
"372 719 OFFCURVE",
"213 719 OFFCURVE",
"130 721 CURVE",
"123 684 OFFCURVE",
"95 547 OFFCURVE",
"57 370 CURVE SMOOTH",
"18 187 OFFCURVE",
"-16 33 OFFCURVE",
"-24 0 CURVE",
"77 0 LINE",
"98.25 108.75 OFFCURVE",
"121.25 215.75 OFFCURVE",
"144.25 324.5 CURVE",
"235.5 326.5 OFFCURVE",
"326.5 326.5 OFFCURVE",
"417.25 324.5 CURVE"
);
}
);
width = 478;
}
);
note = F;
rightKerningGroup = F;
unicode = 0046;
},
{
glyphname = G;
lastChange = "2026-05-29 19:50:48 +0000";
layers = (
{
layerId = m003;
paths = (
{
closed = 1;
nodes = (
"582 430 OFFCURVE",
"483 430 OFFCURVE",
"383 432 CURVE",
"375 384 OFFCURVE",
"365 336 OFFCURVE",
"353 288 CURVE",
"400 289 OFFCURVE",
"436 289 OFFCURVE",
"483 288 CURVE",
"464 200 OFFCURVE",
"407 139 OFFCURVE",
"319 139 CURVE SMOOTH",
"210 139 OFFCURVE",
"191 222 OFFCURVE",
"220 360 CURVE SMOOTH",
"247 488 OFFCURVE",
"308 582 OFFCURVE",
"432 582 CURVE SMOOTH",
"494 582 OFFCURVE",
"551 571 OFFCURVE",
"615 545 CURVE",
"626 600 OFFCURVE",
"638 655 OFFCURVE",
"650 710 CURVE",
"594 726 OFFCURVE",
"536 732 OFFCURVE",
"458 732 CURVE SMOOTH",
"234 732 OFFCURVE",
"87 605 OFFCURVE",
"35 360 CURVE SMOOTH",
"-16 119 OFFCURVE",
"64 -12 OFFCURVE",
"280 -12 CURVE SMOOTH",
"496 -12 OFFCURVE",
"622 128 OFFCURVE",
"671 360 CURVE SMOOTH",
"676 385 OFFCURVE",
"680 409 OFFCURVE",
"682 432 CURVE"
);
}
);
width = 703;
},
{
layerId = "4050705C-5704-4184-B7B7-497C68798CAB";
paths = (
{
closed = 1;
nodes = (
"250 462 OFFCURVE",
"308 551 OFFCURVE",
"422 551 CURVE SMOOTH",
"518 551 OFFCURVE",
"584 514 OFFCURVE",
"618 495 CURVE",
"645 683 LINE",
"591 709 OFFCURVE",
"518 726 OFFCURVE",
"422 726 CURVE SMOOTH",
"166 726 OFFCURVE",
"62 547 OFFCURVE",
"35 357 CURVE SMOOTH",
"1 113 OFFCURVE",
"89 -12 OFFCURVE",
"298 -12 CURVE SMOOTH",
"445 -12 OFFCURVE",
"535 69 OFFCURVE",
"571 129 CURVE",
"612 446 LINE",
"343 446 LINE",
"320 288 LINE",
"417 288 LINE",
"406 211 LINE",
"386 181 OFFCURVE",
"357 163 OFFCURVE",
"323 163 CURVE SMOOTH",
"243 163 OFFCURVE",
"217 232 OFFCURVE",
"235 357 CURVE SMOOTH"
);
}
);
width = 652;
},
{
associatedMasterId = "4050705C-5704-4184-B7B7-497C68798CAB";
layerId = "EE51A42A-8206-4998-88C3-496B6F0E4626";
name = "May 11, 26 at 08:55";
paths = (
{
closed = 1;
nodes = (
"235 462 OFFCURVE",
"275 551 OFFCURVE",
"375 551 CURVE SMOOTH",
"420 551 OFFCURVE",
"458 534 OFFCURVE",
"499 515 CURVE",
"499 703 LINE",
"448 721 OFFCURVE",
"394 726 OFFCURVE",
"340 726 CURVE SMOOTH",
"109 726 OFFCURVE",
"35 547 OFFCURVE",
"35 357 CURVE SMOOTH",
"35 159 OFFCURVE",
"102 -12 OFFCURVE",
"330 -12 CURVE SMOOTH",
"558 -12 OFFCURVE",
"622 159 OFFCURVE",
"622 357 CURVE SMOOTH",
"622 387 OFFCURVE",
"621 417 OFFCURVE",
"618 446 CURVE",
"330 446 LINE",
"330 288 LINE",
"427 288 LINE",
"424 215 OFFCURVE",
"391 163 OFFCURVE",
"334 163 CURVE SMOOTH",
"254 163 OFFCURVE",
"235 252 OFFCURVE",
"235 357 CURVE SMOOTH"
);
}
);
width = 652;
},
{
layerId = "B0F4357D-9A3D-47FA-BF9B-88CD901EB1E7";
width = 652;
},
{
layerId = "8223A6C9-5008-4716-B76D-F393BDA840D5";
paths = (
{
closed = 1;
nodes = (
"582 430 OFFCURVE",
"483 430 OFFCURVE",
"383 432 CURVE",
"372 384 OFFCURVE",
"359 336 OFFCURVE",
"344.75 288 CURVE",
"391.75 289 OFFCURVE",
"436 289 OFFCURVE",
"483 288 CURVE",
"464 200 OFFCURVE",
"407 139 OFFCURVE",
"319 139 CURVE SMOOTH",
"210 139 OFFCURVE",
"191 222 OFFCURVE",
"220 360 CURVE SMOOTH",
"247 488 OFFCURVE",
"308 582 OFFCURVE",
"428.25 582 CURVE SMOOTH",
"488.75 582 OFFCURVE",
"540.5 565.75 OFFCURVE",
"596.25 545 CURVE",
"607.25 600 OFFCURVE",
"619.25 655 OFFCURVE",
"631.25 710 CURVE",
"574.5 726.75 OFFCURVE",
"514.25 732 OFFCURVE",
"447.5 732 CURVE SMOOTH",
"234 732 OFFCURVE",
"87 605 OFFCURVE",
"35 360 CURVE SMOOTH",
"-16 119 OFFCURVE",
"64 -12 OFFCURVE",
"280 -12 CURVE SMOOTH",
"496 -12 OFFCURVE",
"622 128 OFFCURVE",
"671 360 CURVE SMOOTH",
"676 385 OFFCURVE",
"680 409 OFFCURVE",
"682 432 CURVE"
);
}
);
width = 706;
}
);
leftKerningGroup = G;
note = G;
rightKerningGroup = G;
unicode = 0047;
},
{
color = 1;
glyphname = H;
lastChange = "2026-05-29 19:50:48 +0000";
layers = (
{
layerId = m003;
paths = (
{
closed = 1;
nodes = (
"198 0 LINE",
"203 32 OFFCURVE",
"212 72 OFFCURVE",
"252 260 CURVE",
"271 261 OFFCURVE",
"316 261 OFFCURVE",
"379 261 CURVE SMOOTH",
"438 261 OFFCURVE",
"499 261 OFFCURVE",
"519 260 CURVE",
"479 72 OFFCURVE",
"470 32 OFFCURVE",
"461 0 CURVE",
"697 0 LINE",
"703 33 OFFCURVE",
"717 100 OFFCURVE",
"775 376 CURVE SMOOTH",
"831 637 OFFCURVE",
"842 689 OFFCURVE",
"851 721 CURVE",
"615 721 LINE",
"610 690 OFFCURVE",
"598 634 OFFCURVE",
"561 459 CURVE",
"540 457 OFFCURVE",
"477 458 OFFCURVE",
"417 458 CURVE SMOOTH",
"355 458 OFFCURVE",
"312 458 OFFCURVE",
"294 459 CURVE",
"331 634 OFFCURVE",
"343 690 OFFCURVE",
"352 721 CURVE",
"117 721 LINE",
"110 684 OFFCURVE",
"101 637 OFFCURVE",
"44 370 CURVE SMOOTH",
"-13 102 OFFCURVE",
"-28 33 OFFCURVE",
"-37 0 CURVE"
);
}
);
width = 814;
},
{
layerId = "4050705C-5704-4184-B7B7-497C68798CAB";
paths = (
{
closed = 1;
nodes = (
"185 0 LINE",
"190 40 OFFCURVE",
"210 191 OFFCURVE",
"223 281 CURVE",
"247 281 OFFCURVE",
"262 281 OFFCURVE",
"287 281 CURVE SMOOTH",
"313 281 OFFCURVE",
"338 281 OFFCURVE",
"363 281 CURVE",
"350 191 OFFCURVE",
"329 40 OFFCURVE",
"322 0 CURVE",
"519 0 LINE",
"524 42 OFFCURVE",
"551 243 OFFCURVE",
"569 365 CURVE SMOOTH",
"585 484 OFFCURVE",
"614 673 OFFCURVE",
"621 721 CURVE",
"424 721 LINE",
"418 681 OFFCURVE",
"401 550 OFFCURVE",
"388 460 CURVE",
"362 459 OFFCURVE",
"335 459 OFFCURVE",
"317 459 CURVE SMOOTH",
"294 459 OFFCURVE",
"271 459 OFFCURVE",
"248 460 CURVE",
"261 550 OFFCURVE",
"281 681 OFFCURVE",
"287 721 CURVE",
"91 721 LINE",
"86 673 OFFCURVE",
"59 484 OFFCURVE",
"43 366 CURVE SMOOTH",
"26 244 OFFCURVE",
"-4 42 OFFCURVE",
"-11 0 CURVE"
);
}
);
width = 610;
},
{
layerId = "B0F4357D-9A3D-47FA-BF9B-88CD901EB1E7";
paths = (
{
closed = 1;
nodes = (
"90.5 0 LINE",
"95.5 40 OFFCURVE",
"120.75 228.5 OFFCURVE",
"133.75 318.5 CURVE",
"157 318.5 OFFCURVE",
"198.25 318.5 OFFCURVE",
"242.75 318.5 CURVE SMOOTH",
"283 318.5 OFFCURVE",
"331.25 318.5 OFFCURVE",
"357 318.5 CURVE",
"344 228.5 OFFCURVE",
"317.75 40 OFFCURVE",
"310.75 0 CURVE",
"417 0 LINE",
"422 42 OFFCURVE",
"449 243 OFFCURVE",
"467 365 CURVE SMOOTH",
"483 484 OFFCURVE",
"512 673 OFFCURVE",
"519 721 CURVE",
"412.75 721 LINE",
"406.75 681 OFFCURVE",
"383.75 507.25 OFFCURVE",
"370.75 417.25 CURVE",
"344.75 416.25 OFFCURVE",
"296 415.5 OFFCURVE",
"257.75 416.25 CURVE SMOOTH",
"213.75 417 OFFCURVE",
"170.5 416.25 OFFCURVE",
"147.5 417.25 CURVE",
"160.5 507.25 OFFCURVE",
"186.5 681 OFFCURVE",
"192.5 721 CURVE",
"87.25 721 LINE",
"82.25 673 OFFCURVE",
"55.25 484 OFFCURVE",
"39.25 366 CURVE SMOOTH",
"22.25 244 OFFCURVE",
"-7.75 42 OFFCURVE",
"-14.75 0 CURVE"
);
}
);
width = 504.25;
},
{
layerId = "8223A6C9-5008-4716-B76D-F393BDA840D5";
paths = (
{
closed = 1;
nodes = (
"75.75 0 LINE",
"80.75 32.75 OFFCURVE",
"101.75 128.25 OFFCURVE",
"142.5 321.5 CURVE",
"161.5 322.5 OFFCURVE",
"283 322.5 OFFCURVE",
"380.5 322.5 CURVE SMOOTH",
"476.25 322.5 OFFCURVE",
"521.5 322.5 OFFCURVE",
"541.5 321.5 CURVE",
"500.75 128.25 OFFCURVE",
"479.75 32.75 OFFCURVE",
"470.75 0 CURVE",
"588.25 0 LINE",
"594.25 33 OFFCURVE",
"608.25 100 OFFCURVE",
"666.25 376 CURVE SMOOTH",
"722.25 637 OFFCURVE",
"733.25 689 OFFCURVE",
"742.25 721 CURVE",
"624.75 721 LINE",
"619.75 689.25 OFFCURVE",
"601 601 OFFCURVE",
"562.5 420.75 CURVE",
"541.5 418.75 OFFCURVE",
"494.25 419.75 OFFCURVE",
"397.5 419.75 CURVE SMOOTH",
"301 419.75 OFFCURVE",
"181.5 419.75 OFFCURVE",
"163.5 420.75 CURVE",
"202 601 OFFCURVE",
"220.75 689.25 OFFCURVE",
"229.75 721 CURVE",
"113.25 721 LINE",
"106.25 684 OFFCURVE",
"97.25 637 OFFCURVE",
"40.25 370 CURVE SMOOTH",
"-16.75 102 OFFCURVE",
"-31.75 33 OFFCURVE",
"-40.75 0 CURVE"
);
}
);
width = 701.5;
}
);
note = H;
unicode = 0048;
},
{
color = 1;
glyphname = I;
lastChange = "2026-05-29 19:50:48 +0000";
layers = (
{
layerId = m003;
paths = (
{
closed = 1;
nodes = (
"198 0 LINE",
"203 32 OFFCURVE",
"229 154 OFFCURVE",
"275 372 CURVE SMOOTH",
"313 547 OFFCURVE",
"343 690 OFFCURVE",
"352 721 CURVE",
"117 721 LINE",
"110 684 OFFCURVE",
"82 547 OFFCURVE",
"44 370 CURVE SMOOTH",
"-4 142 OFFCURVE",
"-28 33 OFFCURVE",
"-37 0 CURVE"
);
}
);
width = 315;
},
{
layerId = "4050705C-5704-4184-B7B7-497C68798CAB";
paths = (
{
closed = 1;
nodes = (
"198 0 LINE",
"201 42 OFFCURVE",
"231 244 OFFCURVE",
"248 366 CURVE SMOOTH",
"264 484 OFFCURVE",
"291 673 OFFCURVE",
"300 721 CURVE",
"104 721 LINE",
"99 673 OFFCURVE",
"72 484 OFFCURVE",
"56 366 CURVE SMOOTH",
"39 244 OFFCURVE",
"9 42 OFFCURVE",
"2 0 CURVE"
);
}
);
width = 302;
},
{
layerId = "B0F4357D-9A3D-47FA-BF9B-88CD901EB1E7";
paths = (
{
closed = 1;
nodes = (
"97.5 0 LINE",
"102 40.5 OFFCURVE",
"129.75 243.25 OFFCURVE",
"146.75 363.75 CURVE SMOOTH",
"165 490.75 OFFCURVE",
"192.75 679 OFFCURVE",
"199.5 721 CURVE",
"94.25 721 LINE",
"89.25 673 OFFCURVE",
"62.25 484 OFFCURVE",
"46.25 366 CURVE SMOOTH",
"29.25 244 OFFCURVE",
"-0.75 42 OFFCURVE",
"-7.75 0 CURVE"
);
}
);
width = 191.75;
},
{
layerId = "8223A6C9-5008-4716-B76D-F393BDA840D5";
paths = (
{
closed = 1;
nodes = (
"88.5 0 LINE",
"95 35.75 OFFCURVE",
"122.5 169 OFFCURVE",
"163.25 358.5 CURVE SMOOTH",
"201.25 537.25 OFFCURVE",
"234.25 688.5 OFFCURVE",
"242.5 721 CURVE",
"126.75 721 LINE",
"119.75 684 OFFCURVE",
"91.75 547 OFFCURVE",
"51.5 358.75 CURVE SMOOTH",
"12.5 175.75 OFFCURVE",
"-19 33 OFFCURVE",
"-27.25 0 CURVE"
);
}
);
width = 215.25;
}
);
note = I;
unicode = 0049;
},
{
glyphname = J;
lastChange = "2026-05-29 19:50:48 +0000";
layers = (
{
layerId = m003;
paths = (
{
closed = 1;
nodes = (
"359 745 LINE",
"252 241 LINE SMOOTH",
"236 166 OFFCURVE",
"209 144 OFFCURVE",
"149 144 CURVE SMOOTH",
"92 144 OFFCURVE",
"51 170 OFFCURVE",
"7 198 CURVE",
"-43 24 LINE",
"13 0 OFFCURVE",
"75 -12 OFFCURVE",
"141 -12 CURVE SMOOTH",
"298 -12 OFFCURVE",
"391 56 OFFCURVE",
"427 225 CURVE SMOOTH",
"537 745 LINE"
);
}
);
width = 513;
},
{
layerId = "4050705C-5704-4184-B7B7-497C68798CAB";
paths = (
{
closed = 1;
nodes = (
"352 214 LINE SMOOTH",
"332 70 OFFCURVE",
"240 -9 OFFCURVE",
"73 -9 CURVE SMOOTH",
"43 -9 OFFCURVE",
"13 -6 OFFCURVE",
"-16 -3 CURVE",
"-5 180 LINE",
"21 174 OFFCURVE",
"49 170 OFFCURVE",
"77 170 CURVE SMOOTH",
"126 170 OFFCURVE",
"153 189 OFFCURVE",
"158 228 CURVE SMOOTH",
"227 721 LINE",
"423 721 LINE"
);
}
);
width = 407;
},
{
layerId = "B0F4357D-9A3D-47FA-BF9B-88CD901EB1E7";
paths = (
{
closed = 1;
nodes = (
"352 214 LINE SMOOTH",
"332 70 OFFCURVE",
"240 -9 OFFCURVE",
"73 -9 CURVE SMOOTH",
"43 -9 OFFCURVE",
"13 -6 OFFCURVE",
"-16 -3 CURVE",
"-5 180 LINE",
"21 174 OFFCURVE",
"49 170 OFFCURVE",
"77 170 CURVE SMOOTH",
"126 170 OFFCURVE",
"153 189 OFFCURVE",
"158 228 CURVE SMOOTH",
"227 721 LINE",
"423 721 LINE"
);
}
);
width = 407;
},
{
layerId = "8223A6C9-5008-4716-B76D-F393BDA840D5";
paths = (
{
closed = 1;
nodes = (
"359 745 LINE",
"252 241 LINE SMOOTH",
"236 166 OFFCURVE",
"209 144 OFFCURVE",
"149 144 CURVE SMOOTH",
"92 144 OFFCURVE",
"51 170 OFFCURVE",
"7 198 CURVE",
"-43 24 LINE",
"13 0 OFFCURVE",
"75 -12 OFFCURVE",
"141 -12 CURVE SMOOTH",
"298 -12 OFFCURVE",
"391 56 OFFCURVE",
"427 225 CURVE SMOOTH",
"537 745 LINE"
);
}
);
width = 513;
}
);
leftKerningGroup = J;
note = J;
unicode = 004A;
},
{
glyphname = K;
lastChange = "2026-05-29 19:50:48 +0000";
layers = (
{
layerId = m003;
paths = (
{
closed = 1;
nodes = (
"624 0 LINE",
"552 148 OFFCURVE",
"478 298 OFFCURVE",
"411 446 CURVE",
"397 399 LINE",
"515 506 OFFCURVE",
"634 614 OFFCURVE",
"754 721 CURVE",
"541 721 LINE",
"446 631 OFFCURVE",
"342 530 OFFCURVE",
"244 441 CURVE",
"263 531 OFFCURVE",
"284 631 OFFCURVE",
"306 721 CURVE",
"130 721 LINE",
"123 684 OFFCURVE",
"95 547 OFFCURVE",
"57 370 CURVE SMOOTH",
"18 187 OFFCURVE",
"-16 33 OFFCURVE",
"-24 0 CURVE",
"152 0 LINE",
"167 71 OFFCURVE",
"188 170 OFFCURVE",
"203 241 CURVE",
"323 345 LINE",
"269 314 LINE",
"318 210 OFFCURVE",
"364 104 OFFCURVE",
"410 0 CURVE"
);
}
);
width = 695;
},
{
layerId = "4050705C-5704-4184-B7B7-497C68798CAB";
paths = (
{
closed = 1;
nodes = (
"564 603 OFFCURVE",
"492 484 OFFCURVE",
"422 366 CURVE",
"463 244 OFFCURVE",
"505 122 OFFCURVE",
"548 0 CURVE",
"320 0 LINE",
"297 96 OFFCURVE",
"272 192 OFFCURVE",
"247 288 CURVE",
"237 288 LINE",
"223 192 OFFCURVE",
"205 56 OFFCURVE",
"198 0 CURVE",
"2 0 LINE",
"9 42 OFFCURVE",
"39 244 OFFCURVE",
"56 366 CURVE SMOOTH",
"72 484 OFFCURVE",
"99 673 OFFCURVE",
"104 721 CURVE",
"300 721 LINE",
"292 675 OFFCURVE",
"271 529 OFFCURVE",
"257 433 CURVE",
"267 433 LINE",
"326 529 OFFCURVE",
"383 625 OFFCURVE",
"440 721 CURVE",
"637 721 LINE"
);
}
);
width = 595;
},
{
layerId = "B0F4357D-9A3D-47FA-BF9B-88CD901EB1E7";
paths = (
{
closed = 1;
nodes = (
"564 603 OFFCURVE",
"492 484 OFFCURVE",
"422 366 CURVE",
"463 244 OFFCURVE",
"505 122 OFFCURVE",
"548 0 CURVE",
"320 0 LINE",
"297 96 OFFCURVE",
"272 192 OFFCURVE",
"247 288 CURVE",
"237 288 LINE",
"223 192 OFFCURVE",
"205 56 OFFCURVE",
"198 0 CURVE",
"2 0 LINE",
"9 42 OFFCURVE",
"39 244 OFFCURVE",
"56 366 CURVE SMOOTH",
"72 484 OFFCURVE",
"99 673 OFFCURVE",
"104 721 CURVE",
"300 721 LINE",
"292 675 OFFCURVE",
"271 529 OFFCURVE",
"257 433 CURVE",
"267 433 LINE",
"326 529 OFFCURVE",
"383 625 OFFCURVE",
"440 721 CURVE",
"637 721 LINE"
);
}
);
width = 595;
},
{
layerId = "8223A6C9-5008-4716-B76D-F393BDA840D5";
paths = (
{
closed = 1;
nodes = (
"549 0 LINE",
"477 148 OFFCURVE",
"403 298 OFFCURVE",
"336 446 CURVE",
"322 399 LINE",
"440 506 OFFCURVE",
"559 614 OFFCURVE",
"679 721 CURVE",
"466 721 LINE",
"371 631 OFFCURVE",
"267 530 OFFCURVE",
"169 441 CURVE",
"188 531 OFFCURVE",
"209 631 OFFCURVE",
"231 721 CURVE",
"130 721 LINE",
"123 684 OFFCURVE",
"95 547 OFFCURVE",
"57 370 CURVE SMOOTH",
"18 187 OFFCURVE",
"-16 33 OFFCURVE",
"-24 0 CURVE",
"77 0 LINE",
"92 71 OFFCURVE",
"113 170 OFFCURVE",
"128 241 CURVE",
"248 345 LINE",
"194 314 LINE",
"243 210 OFFCURVE",
"289 104 OFFCURVE",
"335 0 CURVE"
);
}
);
width = 695;
}
);
note = K;
rightKerningGroup = K;
unicode = 004B;
},
{
glyphname = L;
lastChange = "2026-05-29 19:50:48 +0000";
layers = (
{
layerId = m003;
paths = (
{
closed = 1;
nodes = (
"130 721 LINE",
"123 684 OFFCURVE",
"95 547 OFFCURVE",
"57 370 CURVE SMOOTH",
"18 187 OFFCURVE",
"-16 33 OFFCURVE",
"-24 0 CURVE",
"117 2 OFFCURVE",
"256 2 OFFCURVE",
"395 0 CURVE",
"410 53 OFFCURVE",
"426 105 OFFCURVE",
"442 158 CURVE",
"357 156 OFFCURVE",
"271 156 OFFCURVE",
"186 158 CURVE",
"193 195 OFFCURVE",
"200 232 OFFCURVE",
"237 409 CURVE SMOOTH",
"276 592 OFFCURVE",
"297 686 OFFCURVE",
"305 719 CURVE"
);
}
);
width = 497;
},
{
layerId = "4050705C-5704-4184-B7B7-497C68798CAB";
paths = (
{
closed = 1;
nodes = (
"300 721 LINE",
"286 628 OFFCURVE",
"272 536 OFFCURVE",
"259 443 CURVE SMOOTH",
"246 355 OFFCURVE",
"235 266 OFFCURVE",
"223 178 CURVE",
"291 177 OFFCURVE",
"360 177 OFFCURVE",
"428 178 CURVE",
"419 119 OFFCURVE",
"411 59 OFFCURVE",
"403 0 CURVE",
"269 1 OFFCURVE",
"136 1 OFFCURVE",
"2 0 CURVE",
"9 42 OFFCURVE",
"39 244 OFFCURVE",
"56 366 CURVE SMOOTH",
"72 484 OFFCURVE",
"99 673 OFFCURVE",
"104 721 CURVE"
);
}
);
width = 466;
},
{
layerId = "B0F4357D-9A3D-47FA-BF9B-88CD901EB1E7";
paths = (
{
closed = 1;
nodes = (
"300 721 LINE",
"286 628 OFFCURVE",
"272 536 OFFCURVE",
"259 443 CURVE SMOOTH",
"246 355 OFFCURVE",
"235 266 OFFCURVE",
"223 178 CURVE",
"291 177 OFFCURVE",
"360 177 OFFCURVE",
"428 178 CURVE",
"419 119 OFFCURVE",
"411 59 OFFCURVE",
"403 0 CURVE",
"269 1 OFFCURVE",
"136 1 OFFCURVE",
"2 0 CURVE",
"9 42 OFFCURVE",
"39 244 OFFCURVE",
"56 366 CURVE SMOOTH",
"72 484 OFFCURVE",
"99 673 OFFCURVE",
"104 721 CURVE"
);
}
);
width = 466;
},
{
layerId = "8223A6C9-5008-4716-B76D-F393BDA840D5";
paths = (
{
closed = 1;
nodes = (
"130 721 LINE",
"123 684 OFFCURVE",
"95 547 OFFCURVE",
"57 370 CURVE SMOOTH",
"18 187 OFFCURVE",
"-16 33 OFFCURVE",
"-24 0 CURVE",
"117 2 OFFCURVE",
"256 2 OFFCURVE",
"395 0 CURVE",
"410 53 OFFCURVE",
"426 105 OFFCURVE",
"442 158 CURVE",
"357 156 OFFCURVE",
"271 156 OFFCURVE",
"186 158 CURVE",
"193 195 OFFCURVE",
"200 232 OFFCURVE",
"237 409 CURVE SMOOTH",
"276 592 OFFCURVE",
"297 686 OFFCURVE",
"305 719 CURVE"
);
}
);
width = 497;
}
);
note = L;
rightKerningGroup = L;
unicode = 004C;
},
{
glyphname = M;
lastChange = "2026-05-29 19:50:48 +0000";
layers = (
{
layerId = m003;
paths = (
{
closed = 1;
nodes = (
"679 721 LINE",
"624 650 OFFCURVE",
"508 505 OFFCURVE",
"419 397 CURVE",
"377 505 OFFCURVE",
"326 641 OFFCURVE",
"297 721 CURVE",
"130 721 LINE",
"123 684 OFFCURVE",
"95 547 OFFCURVE",
"57 370 CURVE SMOOTH",
"18 187 OFFCURVE",
"-16 33 OFFCURVE",
"-24 0 CURVE",
"152 0 LINE",
"178 130 OFFCURVE",
"204 259 OFFCURVE",
"234 391 CURVE",
"274 286 OFFCURVE",
"313 183 OFFCURVE",
"351 80 CURVE",
"433 183 OFFCURVE",
"518 288 OFFCURVE",
"601 391 CURVE",
"576 261 OFFCURVE",
"546 130 OFFCURVE",
"516 0 CURVE",
"692 0 LINE",
"699 37 OFFCURVE",
"727 174 OFFCURVE",
"765 351 CURVE SMOOTH",
"804 534 OFFCURVE",
"838 688 OFFCURVE",
"846 721 CURVE"
);
}
);
width = 822;
},
{
layerId = "4050705C-5704-4184-B7B7-497C68798CAB";
paths = (
{
closed = 1;
nodes = (
"276 721 LINE",
"311 615 OFFCURVE",
"348 511 OFFCURVE",
"386 407 CURVE",
"453 511 OFFCURVE",
"519 615 OFFCURVE",
"585 721 CURVE",
"757 721 LINE",
"750 673 OFFCURVE",
"721 484 OFFCURVE",
"705 365 CURVE SMOOTH",
"687 243 OFFCURVE",
"660 42 OFFCURVE",
"655 0 CURVE",
"459 0 LINE",
"475 105 OFFCURVE",
"490 209 OFFCURVE",
"504 314 CURVE",
"447 227 OFFCURVE",
"391 138 OFFCURVE",
"335 49 CURVE",
"306 138 OFFCURVE",
"273 227 OFFCURVE",
"241 314 CURVE",
"227 209 OFFCURVE",
"212 105 OFFCURVE",
"198 0 CURVE",
"2 0 LINE",
"9 42 OFFCURVE",
"39 244 OFFCURVE",
"56 366 CURVE SMOOTH",
"72 484 OFFCURVE",
"99 673 OFFCURVE",
"104 721 CURVE"
);
}
);
width = 759;
},
{
layerId = "B0F4357D-9A3D-47FA-BF9B-88CD901EB1E7";
paths = (
{
closed = 1;
nodes = (
"276 721 LINE",
"311 615 OFFCURVE",
"348 511 OFFCURVE",
"386 407 CURVE",
"453 511 OFFCURVE",
"519 615 OFFCURVE",
"585 721 CURVE",
"757 721 LINE",
"750 673 OFFCURVE",
"721 484 OFFCURVE",
"705 365 CURVE SMOOTH",
"687 243 OFFCURVE",
"660 42 OFFCURVE",
"655 0 CURVE",
"459 0 LINE",
"475 105 OFFCURVE",
"490 209 OFFCURVE",
"504 314 CURVE",
"447 227 OFFCURVE",
"391 138 OFFCURVE",
"335 49 CURVE",
"306 138 OFFCURVE",
"273 227 OFFCURVE",
"241 314 CURVE",
"227 209 OFFCURVE",
"212 105 OFFCURVE",
"198 0 CURVE",
"2 0 LINE",
"9 42 OFFCURVE",
"39 244 OFFCURVE",
"56 366 CURVE SMOOTH",
"72 484 OFFCURVE",
"99 673 OFFCURVE",
"104 721 CURVE"
);
}
);
width = 759;
},
{
layerId = "8223A6C9-5008-4716-B76D-F393BDA840D5";
paths = (
{
closed = 1;
nodes = (
"679 721 LINE",
"624 650 OFFCURVE",
"508 505 OFFCURVE",
"419 397 CURVE",
"377.75 505.75 OFFCURVE",
"326.75 641.75 OFFCURVE",
"297 721 CURVE",
"130 721 LINE",
"123 684 OFFCURVE",
"95 547 OFFCURVE",
"57 370 CURVE SMOOTH",
"18 187 OFFCURVE",
"-16 33 OFFCURVE",
"-24 0 CURVE",
"152 0 LINE",
"178 130 OFFCURVE",
"204 259 OFFCURVE",
"234 391 CURVE",
"274 286 OFFCURVE",
"313 183 OFFCURVE",
"351 80 CURVE",
"433 183 OFFCURVE",
"518 288 OFFCURVE",
"601 391 CURVE",
"576 261 OFFCURVE",
"546 130 OFFCURVE",
"516 0 CURVE",
"692 0 LINE",
"699 37 OFFCURVE",
"727 174 OFFCURVE",
"765 351 CURVE SMOOTH",
"804 534 OFFCURVE",
"838 688 OFFCURVE",
"846 721 CURVE"
);
}
);
width = 822;
}
);
note = M;
unicode = 004D;
},
{
color = 1;
glyphname = N;
lastChange = "2026-05-29 19:50:48 +0000";
layers = (
{
layerId = m003;
paths = (
{
closed = 1;
nodes = (
"201 0 LINE",
"212 48 OFFCURVE",
"249 235 OFFCURVE",
"274 353 CURVE SMOOTH",
"333 631 LINE",
"146 559 LINE",
"265 379 OFFCURVE",
"388 184 OFFCURVE",
"487 0 CURVE",
"705 0 LINE",
"714 48 OFFCURVE",
"754 237 OFFCURVE",
"779 356 CURVE SMOOTH",
"805 478 OFFCURVE",
"849 679 OFFCURVE",
"859 721 CURVE",
"621 721 LINE",
"610 671 OFFCURVE",
"572 481 OFFCURVE",
"546 361 CURVE SMOOTH",
"494 118 LINE",
"552 334 LINE",
"476 457 OFFCURVE",
"404 588 OFFCURVE",
"335 721 CURVE",
"117 721 LINE",
"109 679 OFFCURVE",
"67 477 OFFCURVE",
"41 355 CURVE SMOOTH",
"16 237 OFFCURVE",
"-25 48 OFFCURVE",
"-37 0 CURVE"
);
}
);
width = 822;
},
{
layerId = "4050705C-5704-4184-B7B7-497C68798CAB";
paths = (
{
closed = 1;
nodes = (
"190 0 LINE",
"204 107 OFFCURVE",
"219 212 OFFCURVE",
"235 319 CURVE",
"237 329 LINE",
"222 325 LINE",
"261 218 OFFCURVE",
"298 110 OFFCURVE",
"335 0 CURVE",
"513 0 LINE",
"518 48 OFFCURVE",
"545 237 OFFCURVE",
"561 356 CURVE SMOOTH",
"579 478 OFFCURVE",
"608 679 OFFCURVE",
"615 721 CURVE",
"414 721 LINE",
"400 618 OFFCURVE",
"386 515 OFFCURVE",
"370 411 CURVE",
"367 391 LINE",
"382 395 LINE",
"342 502 OFFCURVE",
"306 611 OFFCURVE",
"269 721 CURVE",
"91 721 LINE",
"86 679 OFFCURVE",
"58 477 OFFCURVE",
"41 355 CURVE SMOOTH",
"25 237 OFFCURVE",
"-3 48 OFFCURVE",
"-11 0 CURVE"
);
}
);
width = 604;
},
{
layerId = "B0F4357D-9A3D-47FA-BF9B-88CD901EB1E7";
paths = (
{
closed = 1;
nodes = (
"91.75 0 LINE",
"100.5 62.75 OFFCURVE",
"122.25 229.25 OFFCURVE",
"139 344.5 CURVE SMOOTH",
"165.75 533 LINE",
"155.25 517.75 LINE",
"215.25 350 OFFCURVE",
"274 170.75 OFFCURVE",
"331.25 0 CURVE",
"419.25 0 LINE",
"424.25 48 OFFCURVE",
"451.25 237 OFFCURVE",
"467.25 356 CURVE SMOOTH",
"485.25 478 OFFCURVE",
"514.25 679 OFFCURVE",
"521.25 721 CURVE",
"414.75 721 LINE",
"406 657.75 OFFCURVE",
"384.5 489.5 OFFCURVE",
"367 373.5 CURVE SMOOTH",
"344.5 216.25 LINE",
"355 230.75 LINE",
"297.75 390.25 OFFCURVE",
"242.25 560 OFFCURVE",
"188.75 721 CURVE",
"87.25 721 LINE",
"82.25 679 OFFCURVE",
"54.25 477 OFFCURVE",
"37.25 355 CURVE SMOOTH",
"21.25 237 OFFCURVE",
"-6.75 48 OFFCURVE",
"-14.75 0 CURVE"
);
}
);
width = 506.5;
},
{
layerId = "8223A6C9-5008-4716-B76D-F393BDA840D5";
paths = (
{
closed = 1;
nodes = (
"77.25 0 LINE",
"88.25 48 OFFCURVE",
"125.25 235 OFFCURVE",
"150.25 353 CURVE SMOOTH",
"209.25 631 LINE",
"149.75 598.75 LINE",
"263.5 402.25 OFFCURVE",
"376.75 200.5 OFFCURVE",
"481.75 0 CURVE",
"581.25 0 LINE",
"590.25 48 OFFCURVE",
"630.25 237 OFFCURVE",
"655.25 356 CURVE SMOOTH",
"681.25 478 OFFCURVE",
"725.25 679 OFFCURVE",
"735.25 721 CURVE",
"617.25 721 LINE",
"606.25 671 OFFCURVE",
"568.25 481 OFFCURVE",
"542.25 361 CURVE SMOOTH",
"490.25 118 LINE",
"513 174.25 LINE",
"413.75 350.5 OFFCURVE",
"310.25 540.75 OFFCURVE",
"215.75 721 CURVE",
"113.25 721 LINE",
"105.25 679 OFFCURVE",
"63.25 477 OFFCURVE",
"37.25 355 CURVE SMOOTH",
"12.25 237 OFFCURVE",
"-28.75 48 OFFCURVE",
"-40.75 0 CURVE"
);
}
);
width = 694.5;
}
);
leftMetricsKey = H;
note = N;
rightMetricsKey = H;
unicode = 004E;
},
{
color = 1;
glyphname = O;
lastChange = "2026-05-29 19:50:48 +0000";
layers = (
{
layerId = m003;
paths = (
{
closed = 1;
nodes = (
"633 -12 OFFCURVE",
"813 122 OFFCURVE",
"853 332 CURVE SMOOTH",
"898 568 OFFCURVE",
"752 732 OFFCURVE",
"496 732 CURVE SMOOTH",
"252 732 OFFCURVE",
"66 596 OFFCURVE",
"25 387 CURVE SMOOTH",
"-21 150 OFFCURVE",
"126 -12 OFFCURVE",
"390 -12 CURVE SMOOTH"
);
},
{
closed = 1;
nodes = (
"303 189 OFFCURVE",
"246 258 OFFCURVE",
"266 364 CURVE SMOOTH",
"286 470 OFFCURVE",
"361 532 OFFCURVE",
"470 532 CURVE SMOOTH",
"576 532 OFFCURVE",
"631 464 OFFCURVE",
"612 356 CURVE SMOOTH",
"594 251 OFFCURVE",
"519 189 OFFCURVE",
"409 189 CURVE SMOOTH"
);
}
);
width = 878;
},
{
layerId = "4050705C-5704-4184-B7B7-497C68798CAB";
paths = (
{
closed = 1;
nodes = (
"455 -12 OFFCURVE",
"565 104 OFFCURVE",
"597 326 CURVE SMOOTH",
"634 593 OFFCURVE",
"532 726 OFFCURVE",
"337 726 CURVE SMOOTH",
"167 726 OFFCURVE",
"56 609 OFFCURVE",
"24 384 CURVE SMOOTH",
"-13 120 OFFCURVE",
"91 -12 OFFCURVE",
"286 -12 CURVE SMOOTH"
);
},
{
closed = 1;
nodes = (
"224 163 OFFCURVE",
"203 229 OFFCURVE",
"221 357 CURVE SMOOTH",
"239 486 OFFCURVE",
"275 551 OFFCURVE",
"335 551 CURVE SMOOTH",
"393 551 OFFCURVE",
"418 484 OFFCURVE",
"400 357 CURVE SMOOTH",
"382 228 OFFCURVE",
"344 163 OFFCURVE",
"285 163 CURVE SMOOTH"
);
}
);
width = 621;
},
{
layerId = "B0F4357D-9A3D-47FA-BF9B-88CD901EB1E7";
paths = (
{
closed = 1;
nodes = (
"380.75 -12 OFFCURVE",
"467.5 110 OFFCURVE",
"500.25 345.5 CURVE SMOOTH",
"535.75 599.75 OFFCURVE",
"453.25 726 OFFCURVE",
"295 726 CURVE SMOOTH",
"140.75 726 OFFCURVE",
"53 603.75 OFFCURVE",
"20.25 369.75 CURVE SMOOTH",
"-15.25 114 OFFCURVE",
"68.5 -12 OFFCURVE",
"221.5 -12 CURVE SMOOTH"
);
},
{
closed = 1;
nodes = (
"138.5 81.25 OFFCURVE",
"99.5 174.25 OFFCURVE",
"125 355.5 CURVE SMOOTH",
"150.5 539.25 OFFCURVE",
"203.75 632 OFFCURVE",
"293 632 CURVE SMOOTH",
"381.75 632 OFFCURVE",
"421 538 OFFCURVE",
"396.25 360.75 CURVE SMOOTH",
"370 174.75 OFFCURVE",
"318.5 81.25 OFFCURVE",
"224.25 81.25 CURVE SMOOTH"
);
}
);
width = 520.5;
},
{
layerId = "8223A6C9-5008-4716-B76D-F393BDA840D5";
paths = (
{
closed = 1;
nodes = (
"549.75 -12 OFFCURVE",
"712.5 122 OFFCURVE",
"757.75 338.75 CURVE SMOOTH",
"809.5 587.5 OFFCURVE",
"662.75 732 OFFCURVE",
"455.5 732 CURVE SMOOTH",
"241.5 732 OFFCURVE",
"68.25 598.25 OFFCURVE",
"22 377.25 CURVE SMOOTH",
"-29.25 130.5 OFFCURVE",
"120.75 -12 OFFCURVE",
"338.25 -12 CURVE SMOOTH"
);
},
{
closed = 1;
nodes = (
"196.5 87.75 OFFCURVE",
"99.75 186 OFFCURVE",
"135.5 361 CURVE SMOOTH",
"171.25 536 OFFCURVE",
"295.75 632.5 OFFCURVE",
"446 632.5 CURVE SMOOTH",
"586.5 632.5 OFFCURVE",
"682 534.5 OFFCURVE",
"645 359 CURVE SMOOTH",
"608.25 184.25 OFFCURVE",
"487.5 87.75 OFFCURVE",
"346 87.75 CURVE SMOOTH"
);
}
);
width = 780.5;
}
);
leftKerningGroup = O;
note = O;
rightKerningGroup = O;
unicode = 004F;
},
{
glyphname = P;
lastChange = "2026-05-29 19:50:48 +0000";
layers = (
{
layerId = m003;
paths = (
{
closed = 1;
nodes = (
"152 0 LINE",
"158 38 OFFCURVE",
"184 156 OFFCURVE",
"200 234 CURVE",
"331 234 LINE SMOOTH",
"490 234 OFFCURVE",
"600 342 OFFCURVE",
"629 478 CURVE SMOOTH",
"658 613 OFFCURVE",
"594 721 OFFCURVE",
"435 721 CURVE SMOOTH",
"130 721 LINE",
"123 684 OFFCURVE",
"95 547 OFFCURVE",
"57 370 CURVE SMOOTH",
"18 187 OFFCURVE",
"-16 33 OFFCURVE",
"-24 0 CURVE"
);
},
{
closed = 1;
nodes = (
"241 425 OFFCURVE",
"265 540 OFFCURVE",
"275 575 CURVE",
"371 575 LINE SMOOTH",
"444 575 OFFCURVE",
"472 548 OFFCURVE",
"457 477 CURVE SMOOTH",
"442 409 OFFCURVE",
"401 380 OFFCURVE",
"329 380 CURVE SMOOTH",
"231 380 LINE"
);
}
);
width = 625;
},
{
layerId = "4050705C-5704-4184-B7B7-497C68798CAB";
paths = (
{
closed = 1;
nodes = (
"198 0 LINE",
"209 85 OFFCURVE",
"220 171 OFFCURVE",
"232 256 CURVE",
"294 256 LINE SMOOTH",
"489 256 OFFCURVE",
"566 367 OFFCURVE",
"583 489 CURVE SMOOTH",
"600 607 OFFCURVE",
"554 721 OFFCURVE",
"360 721 CURVE SMOOTH",
"104 721 LINE",
"99 673 OFFCURVE",
"72 484 OFFCURVE",
"56 366 CURVE SMOOTH",
"39 244 OFFCURVE",
"9 42 OFFCURVE",
"2 0 CURVE"
);
},
{
closed = 1;
nodes = (
"262 463 OFFCURVE",
"268 513 OFFCURVE",
"275 562 CURVE",
"322 562 LINE SMOOTH",
"369 562 OFFCURVE",
"389 531 OFFCURVE",
"383 489 CURVE SMOOTH",
"377 447 OFFCURVE",
"349 414 OFFCURVE",
"302 414 CURVE SMOOTH",
"255 414 LINE"
);
}
);
width = 570;
},
{
layerId = "B0F4357D-9A3D-47FA-BF9B-88CD901EB1E7";
paths = (
{
closed = 1;
nodes = (
"198 0 LINE",
"209 85 OFFCURVE",
"220 171 OFFCURVE",
"232 256 CURVE",
"294 256 LINE SMOOTH",
"489 256 OFFCURVE",
"566 367 OFFCURVE",
"583 489 CURVE SMOOTH",
"600 607 OFFCURVE",
"554 721 OFFCURVE",
"360 721 CURVE SMOOTH",
"104 721 LINE",
"99 673 OFFCURVE",
"72 484 OFFCURVE",
"56 366 CURVE SMOOTH",
"39 244 OFFCURVE",
"9 42 OFFCURVE",
"2 0 CURVE"
);
},
{
closed = 1;
nodes = (
"262 463 OFFCURVE",
"268 513 OFFCURVE",
"275 562 CURVE",
"322 562 LINE SMOOTH",
"369 562 OFFCURVE",
"389 531 OFFCURVE",
"383 489 CURVE SMOOTH",
"377 447 OFFCURVE",
"349 414 OFFCURVE",
"302 414 CURVE SMOOTH",
"255 414 LINE"
);
}
);
width = 570;
},
{
layerId = "8223A6C9-5008-4716-B76D-F393BDA840D5";
paths = (
{
closed = 1;
nodes = (
"152 0 LINE",
"158 38 OFFCURVE",
"184 156 OFFCURVE",
"200 234 CURVE",
"331 234 LINE SMOOTH",
"490 234 OFFCURVE",
"600 342 OFFCURVE",
"629 478 CURVE SMOOTH",
"658 613 OFFCURVE",
"594 721 OFFCURVE",
"435 721 CURVE SMOOTH",
"130 721 LINE",
"123 684 OFFCURVE",
"95 547 OFFCURVE",
"57 370 CURVE SMOOTH",
"18 187 OFFCURVE",
"-16 33 OFFCURVE",
"-24 0 CURVE"
);
},
{
closed = 1;
nodes = (
"241 425 OFFCURVE",
"265 540 OFFCURVE",
"275 575 CURVE",
"371 575 LINE SMOOTH",
"444 575 OFFCURVE",
"472 548 OFFCURVE",
"457 477 CURVE SMOOTH",
"442 409 OFFCURVE",
"401 380 OFFCURVE",
"329 380 CURVE SMOOTH",
"231 380 LINE"
);
}
);
width = 625;
}
);
note = P;
rightKerningGroup = P;
unicode = 0050;
},
{
glyphname = Q;
lastChange = "2026-05-29 19:50:48 +0000";
layers = (
{
layerId = m003;
paths = (
{
closed = 1;
nodes = (
"582 90 OFFCURVE",
"657 202 OFFCURVE",
"691 360 CURVE SMOOTH",
"741 598 OFFCURVE",
"652 732 OFFCURVE",
"446 732 CURVE SMOOTH",
"240 732 OFFCURVE",
"93 598 OFFCURVE",
"43 360 CURVE SMOOTH",
"-8 121 OFFCURVE",
"82 -12 OFFCURVE",
"288 -12 CURVE SMOOTH",
"328 -12 OFFCURVE",
"366 -7 OFFCURVE",
"401 2 CURVE",
"400 -17 OFFCURVE",
"404 -132 OFFCURVE",
"565 -132 CURVE",
"582 -67 OFFCURVE",
"600 -1 OFFCURVE",
"621 64 CURVE",
"621 64 OFFCURVE",
"574 27 OFFCURVE",
"507 27 CURVE SMOOTH",
"495 27 OFFCURVE",
"483 29 OFFCURVE",
"475 32 CURVE"
);
},
{
closed = 1;
nodes = (
"220 138 OFFCURVE",
"201 232 OFFCURVE",
"228 360 CURVE SMOOTH",
"255 488 OFFCURVE",
"314 581 OFFCURVE",
"414 581 CURVE SMOOTH",
"514 581 OFFCURVE",
"533 488 OFFCURVE",
"506 360 CURVE SMOOTH",
"479 232 OFFCURVE",
"420 138 OFFCURVE",
"320 138 CURVE SMOOTH"
);
}
);
width = 708;
},
{
layerId = "4050705C-5704-4184-B7B7-497C68798CAB";
paths = (
{
closed = 1;
nodes = (
"561 86 OFFCURVE",
"610 214 OFFCURVE",
"630 357 CURVE SMOOTH",
"658 554 OFFCURVE",
"621 726 OFFCURVE",
"387 726 CURVE SMOOTH",
"153 726 OFFCURVE",
"68 554 OFFCURVE",
"40 357 CURVE SMOOTH",
"13 159 OFFCURVE",
"50 -12 OFFCURVE",
"284 -12 CURVE SMOOTH",
"316 -12 OFFCURVE",
"345 -9 OFFCURVE",
"372 -3 CURVE",
"371 -13 OFFCURVE",
"372 -160 OFFCURVE",
"504 -160 CURVE SMOOTH",
"520 -160 LINE",
"559 20 LINE",
"559 20 OFFCURVE",
"527 5 OFFCURVE",
"496 5 CURVE SMOOTH",
"463 5 OFFCURVE",
"449 22 OFFCURVE",
"448 25 CURVE"
);
},
{
closed = 1;
nodes = (
"234 163 OFFCURVE",
"226 251 OFFCURVE",
"240 357 CURVE SMOOTH",
"255 462 OFFCURVE",
"289 550 OFFCURVE",
"363 550 CURVE SMOOTH",
"437 550 OFFCURVE",
"445 462 OFFCURVE",
"430 357 CURVE SMOOTH",
"416 251 OFFCURVE",
"382 163 OFFCURVE",
"308 163 CURVE SMOOTH"
);
}
);
width = 650;
},
{
layerId = "B0F4357D-9A3D-47FA-BF9B-88CD901EB1E7";
paths = (
{
closed = 1;
nodes = (
"561 86 OFFCURVE",
"610 214 OFFCURVE",
"630 357 CURVE SMOOTH",
"658 554 OFFCURVE",
"621 726 OFFCURVE",
"387 726 CURVE SMOOTH",
"153 726 OFFCURVE",
"68 554 OFFCURVE",
"40 357 CURVE SMOOTH",
"13 159 OFFCURVE",
"50 -12 OFFCURVE",
"284 -12 CURVE SMOOTH",
"316 -12 OFFCURVE",
"345 -9 OFFCURVE",
"372 -3 CURVE",
"371 -13 OFFCURVE",
"372 -160 OFFCURVE",
"504 -160 CURVE SMOOTH",
"520 -160 LINE",
"559 20 LINE",
"559 20 OFFCURVE",
"527 5 OFFCURVE",
"496 5 CURVE SMOOTH",
"463 5 OFFCURVE",
"449 22 OFFCURVE",
"448 25 CURVE"
);
},
{
closed = 1;
nodes = (
"234 163 OFFCURVE",
"226 251 OFFCURVE",
"240 357 CURVE SMOOTH",
"255 462 OFFCURVE",
"289 550 OFFCURVE",
"363 550 CURVE SMOOTH",
"437 550 OFFCURVE",
"445 462 OFFCURVE",
"430 357 CURVE SMOOTH",
"416 251 OFFCURVE",
"382 163 OFFCURVE",
"308 163 CURVE SMOOTH"
);
}
);
width = 650;
},
{
layerId = "8223A6C9-5008-4716-B76D-F393BDA840D5";
paths = (
{
closed = 1;
nodes = (
"582 90 OFFCURVE",
"657 202 OFFCURVE",
"691 360 CURVE SMOOTH",
"741 598 OFFCURVE",
"652 732 OFFCURVE",
"446 732 CURVE SMOOTH",
"240 732 OFFCURVE",
"93 598 OFFCURVE",
"43 360 CURVE SMOOTH",
"-8 121 OFFCURVE",
"82 -12 OFFCURVE",
"288 -12 CURVE SMOOTH",
"328 -12 OFFCURVE",
"366 -7 OFFCURVE",
"401 2 CURVE",
"400 -17 OFFCURVE",
"404 -132 OFFCURVE",
"565 -132 CURVE",
"582 -67 OFFCURVE",
"600 -1 OFFCURVE",
"621 64 CURVE",
"621 64 OFFCURVE",
"574 27 OFFCURVE",
"507 27 CURVE SMOOTH",
"495 27 OFFCURVE",
"483 29 OFFCURVE",
"475 32 CURVE"
);
},
{
closed = 1;
nodes = (
"220 138 OFFCURVE",
"201 232 OFFCURVE",
"228 360 CURVE SMOOTH",
"255 488 OFFCURVE",
"314 581 OFFCURVE",
"414 581 CURVE SMOOTH",
"514 581 OFFCURVE",
"533 488 OFFCURVE",
"506 360 CURVE SMOOTH",
"479 232 OFFCURVE",
"420 138 OFFCURVE",
"320 138 CURVE SMOOTH"
);
}
);
width = 708;
}
);
unicode = 0051;
},
{
color = 1;
glyphname = R;
lastChange = "2026-05-29 19:50:48 +0000";
layers = (
{
layerId = m003;
paths = (
{
closed = 1;
nodes = (
"199 0 LINE",
"205 35 OFFCURVE",
"228 146 OFFCURVE",
"237 187 CURVE",
"421 187 LINE SMOOTH",
"630 187 OFFCURVE",
"734 280 OFFCURVE",
"762 439 CURVE SMOOTH",
"790 596 OFFCURVE",
"698 721 OFFCURVE",
"471 721 CURVE SMOOTH",
"385 721 OFFCURVE",
"249 720 OFFCURVE",
"117 721 CURVE",
"110 684 OFFCURVE",
"83 547 OFFCURVE",
"45 370 CURVE SMOOTH",
"6 187 OFFCURVE",
"-29 33 OFFCURVE",
"-37 0 CURVE"
);
},
{
closed = 1;
nodes = (
"673 0 LINE",
"635 59 OFFCURVE",
"591 182 OFFCURVE",
"568 339 CURVE",
"366 285 LINE",
"377 129 OFFCURVE",
"403 45 OFFCURVE",
"433 0 CURVE"
);
},
{
closed = 1;
nodes = (
"281 399 OFFCURVE",
"302 495 OFFCURVE",
"315 545 CURVE",
"355 546 OFFCURVE",
"393 545 OFFCURVE",
"423 545 CURVE SMOOTH",
"501 545 OFFCURVE",
"538 516 OFFCURVE",
"527 453 CURVE SMOOTH",
"515 385 OFFCURVE",
"471 359 OFFCURVE",
"403 359 CURVE SMOOTH",
"364 359 OFFCURVE",
"306 358 OFFCURVE",
"274 360 CURVE"
);
}
);
width = 778;
},
{
associatedMasterId = m003;
layerId = "8A7E0FDB-B377-4F0B-8006-E49868B5AB9B";
name = "May 7, 26 at 10:23";
paths = (
{
closed = 1;
nodes = (
"570 283 OFFCURVE",
"540 322 OFFCURVE",
"495 339 CURVE",
"512 345 OFFCURVE",
"599 379 OFFCURVE",
"599 508 CURVE SMOOTH",
"599 638 OFFCURVE",
"515 721 OFFCURVE",
"372 721 CURVE SMOOTH",
"53 721 LINE",
"53 0 LINE",
"229 0 LINE",
"229 267 LINE",
"272 267 LINE SMOOTH",
"365 267 OFFCURVE",
"405 235 OFFCURVE",
"421 146 CURVE SMOOTH",
"441 38 OFFCURVE",
"448 18 OFFCURVE",
"457 0 CURVE",
"652 0 LINE",
"628 30 OFFCURVE",
"598 136 OFFCURVE",
"584 208 CURVE SMOOTH"
);
},
{
closed = 1;
nodes = (
"229 575 LINE",
"339 575 LINE SMOOTH",
"389 575 OFFCURVE",
"420 549 OFFCURVE",
"420 493 CURVE SMOOTH",
"420 432 OFFCURVE",
"389 410 OFFCURVE",
"339 410 CURVE SMOOTH",
"229 410 LINE"
);
}
);
width = 640;
},
{
associatedMasterId = m003;
layerId = "2A4B25B0-188B-4BEF-9FD7-4540C8E8852A";
name = "May 7, 26 at 13:17";
paths = (
{
closed = 1;
nodes = (
"567 282 OFFCURVE",
"540 322 OFFCURVE",
"495 339 CURVE",
"512 345 OFFCURVE",
"599 379 OFFCURVE",
"599 508 CURVE SMOOTH",
"599 638 OFFCURVE",
"515 721 OFFCURVE",
"372 721 CURVE SMOOTH",
"266 721 OFFCURVE",
"159 721 OFFCURVE",
"53 721 CURVE",
"54 684 OFFCURVE",
"55 547 OFFCURVE",
"55 370 CURVE SMOOTH",
"55 187 OFFCURVE",
"54 33 OFFCURVE",
"53 0 CURVE",
"229 0 LINE",
"227 49 OFFCURVE",
"227 208 OFFCURVE",
"227 267 CURVE",
"272 267 LINE SMOOTH",
"364 267 OFFCURVE",
"404 236 OFFCURVE",
"419 153 CURVE SMOOTH",
"428 102 LINE SMOOTH",
"439 38 OFFCURVE",
"447 12 OFFCURVE",
"456 0 CURVE",
"642 0 LINE",
"633 12 OFFCURVE",
"619 59 OFFCURVE",
"603 126 CURVE SMOOTH",
"584 208 LINE SMOOTH"
);
},
{
closed = 1;
nodes = (
"227 445 OFFCURVE",
"227 530 OFFCURVE",
"229 575 CURVE",
"266 575 OFFCURVE",
"302 575 OFFCURVE",
"339 575 CURVE SMOOTH",
"389 575 OFFCURVE",
"420 549 OFFCURVE",
"420 493 CURVE SMOOTH",
"420 432 OFFCURVE",
"389 409 OFFCURVE",
"339 409 CURVE SMOOTH",
"302 409 OFFCURVE",
"264 409 OFFCURVE",
"227 410 CURVE"
);
}
);
width = 640;
},
{
layerId = "4050705C-5704-4184-B7B7-497C68798CAB";
paths = (
{
closed = 1;
nodes = (
"185 0 LINE",
"197 93 OFFCURVE",
"209 175 OFFCURVE",
"221 268 CURVE",
"284 268 LINE SMOOTH",
"450 268 OFFCURVE",
"539 341 OFFCURVE",
"559 479 CURVE SMOOTH",
"581 639 OFFCURVE",
"485 721 OFFCURVE",
"321 721 CURVE SMOOTH",
"239 721 OFFCURVE",
"174 721 OFFCURVE",
"91 721 CURVE",
"87 679 OFFCURVE",
"58 477 OFFCURVE",
"41 355 CURVE SMOOTH",
"25 237 OFFCURVE",
"-2 48 OFFCURVE",
"-11 0 CURVE"
);
},
{
closed = 1;
nodes = (
"511 0 LINE",
"501 37 OFFCURVE",
"452 202 OFFCURVE",
"429 339 CURVE",
"258 285 LINE",
"277 149 OFFCURVE",
"305 31 OFFCURVE",
"312 0 CURVE"
);
},
{
closed = 1;
nodes = (
"249 458 OFFCURVE",
"256 515 OFFCURVE",
"263 563 CURVE",
"275 563 OFFCURVE",
"282 563 OFFCURVE",
"297 563 CURVE SMOOTH",
"340 563 OFFCURVE",
"366 533 OFFCURVE",
"360 487 CURVE SMOOTH",
"354 437 OFFCURVE",
"324 410 OFFCURVE",
"281 410 CURVE SMOOTH",
"265 410 OFFCURVE",
"254 410 OFFCURVE",
"241 410 CURVE"
);
}
);
width = 578;
},
{
associatedMasterId = "4050705C-5704-4184-B7B7-497C68798CAB";
layerId = "99D74035-CB04-4A62-8090-C94C65E98FFE";
name = "May 6, 26 at 13:26";
paths = (
{
closed = 1;
nodes = (
"539 300 OFFCURVE",
"484 327 OFFCURVE",
"463 335 CURVE",
"463 343 LINE",
"489 357 OFFCURVE",
"565 405 OFFCURVE",
"565 517 CURVE SMOOTH",
"565 651 OFFCURVE",
"477 721 OFFCURVE",
"314 721 CURVE SMOOTH",
"53 721 LINE",
"53 0 LINE",
"249 0 LINE",
"249 288 LINE",
"260 288 LINE SMOOTH",
"332 288 OFFCURVE",
"357 285 OFFCURVE",
"365 198 CURVE SMOOTH",
"379 0 LINE",
"589 0 LINE",
"556 199 LINE SMOOTH"
);
},
{
closed = 1;
nodes = (
"249 420 LINE",
"249 563 LINE",
"294 563 LINE SMOOTH",
"341 563 OFFCURVE",
"365 533 OFFCURVE",
"365 491 CURVE SMOOTH",
"365 450 OFFCURVE",
"341 420 OFFCURVE",
"294 420 CURVE SMOOTH"
);
}
);
width = 601;
},
{
associatedMasterId = "4050705C-5704-4184-B7B7-497C68798CAB";
layerId = "F29B49F5-FF9A-44B5-A81B-EF32FFA92833";
name = "May 8, 26 at 10:05";
paths = (
{
closed = 0;
nodes = (
"365 198 LINE",
"373 132 OFFCURVE",
"374 66 OFFCURVE",
"381 0 CURVE",
"585 0 LINE",
"573 66 OFFCURVE",
"565 133 OFFCURVE",
"556 199 CURVE SMOOTH"
);
},
{
closed = 1;
nodes = (
"248 468 OFFCURVE",
"247 515 OFFCURVE",
"248 563 CURVE",
"294 563 LINE SMOOTH",
"341 563 OFFCURVE",
"365 533 OFFCURVE",
"365 491 CURVE SMOOTH",
"365 450 OFFCURVE",
"341 420 OFFCURVE",
"294 420 CURVE SMOOTH",
"247 420 LINE"
);
},
{
closed = 1;
nodes = (
"565 651 OFFCURVE",
"477 721 OFFCURVE",
"314 721 CURVE SMOOTH",
"53 721 LINE",
"55 679 OFFCURVE",
"55 477 OFFCURVE",
"55 355 CURVE SMOOTH",
"55 237 OFFCURVE",
"55 48 OFFCURVE",
"53 0 CURVE",
"249 0 LINE",
"248 93 OFFCURVE",
"248 185 OFFCURVE",
"247 278 CURVE",
"309 278 LINE SMOOTH",
"504 278 OFFCURVE",
"565 389 OFFCURVE",
"565 514 CURVE SMOOTH"
);
},
{
closed = 1;
nodes = (
"647 0 LINE",
"612 45 OFFCURVE",
"556 165 OFFCURVE",
"493 339 CURVE",
"318 285 LINE",
"364 129 OFFCURVE",
"399 45 OFFCURVE",
"433 0 CURVE"
);
}
);
width = 601;
},
{
layerId = "B0F4357D-9A3D-47FA-BF9B-88CD901EB1E7";
paths = (
{
closed = 1;
nodes = (
"90.5 0 LINE",
"102.5 95.25 OFFCURVE",
"114.5 186.25 OFFCURVE",
"128 281.5 CURVE",
"223.25 281.5 LINE SMOOTH",
"369.75 281.5 OFFCURVE",
"448.25 355.25 OFFCURVE",
"467.5 492.5 CURVE SMOOTH",
"488 645.75 OFFCURVE",
"402.5 721 OFFCURVE",
"270 721 CURVE SMOOTH",
"236.75 721 OFFCURVE",
"173.25 720.25 OFFCURVE",
"87.25 721 CURVE",
"83.25 658 OFFCURVE",
"54.25 477 OFFCURVE",
"36.5 355 CURVE SMOOTH",
"19.75 237 OFFCURVE",
"-5.75 48 OFFCURVE",
"-14.75 0 CURVE"
);
},
{
closed = 1;
nodes = (
"401.5 0 LINE",
"390 38.5 OFFCURVE",
"354.5 183.25 OFFCURVE",
"324.75 346.5 CURVE",
"237.75 300 LINE",
"263.5 137 OFFCURVE",
"285.5 32.5 OFFCURVE",
"294 0 CURVE"
);
},
{
closed = 1;
nodes = (
"151.5 451.25 OFFCURVE",
"165.25 547.25 OFFCURVE",
"178.25 630.5 CURVE",
"192.5 631.25 OFFCURVE",
"234 630.5 OFFCURVE",
"254.25 630.5 CURVE SMOOTH",
"337.75 630.5 OFFCURVE",
"373.5 584 OFFCURVE",
"362.25 502 CURVE SMOOTH",
"351 422.75 OFFCURVE",
"319.5 368 OFFCURVE",
"225.5 368 CURVE SMOOTH",
"209.5 368 OFFCURVE",
"155 368 OFFCURVE",
"139.75 368 CURVE"
);
}
);
width = 470;
},
{
layerId = "8223A6C9-5008-4716-B76D-F393BDA840D5";
paths = (
{
closed = 1;
nodes = (
"75.25 0 LINE",
"81.25 32.75 OFFCURVE",
"102.75 137 OFFCURVE",
"127.5 254.5 CURVE",
"325.75 254.5 LINE SMOOTH",
"528 254.5 OFFCURVE",
"617.75 331 OFFCURVE",
"644.25 469.75 CURVE SMOOTH",
"673 620 OFFCURVE",
"586.25 721 OFFCURVE",
"382.5 721 CURVE SMOOTH",
"330.25 721 OFFCURVE",
"202.5 720.75 OFFCURVE",
"113.25 721 CURVE",
"105.5 680.25 OFFCURVE",
"75.5 532.75 OFFCURVE",
"40.5 370 CURVE SMOOTH",
"4.5 199 OFFCURVE",
"-32 35.25 OFFCURVE",
"-40.75 0 CURVE"
);
},
{
closed = 1;
nodes = (
"559 0 LINE",
"509 71.75 OFFCURVE",
"464.25 198.5 OFFCURVE",
"436.75 339.75 CURVE",
"339 297.75 LINE",
"361.25 165 OFFCURVE",
"397.75 59.25 OFFCURVE",
"435.25 0 CURVE"
);
},
{
closed = 1;
nodes = (
"172.25 466.5 OFFCURVE",
"195.5 571.5 OFFCURVE",
"208.5 624.5 CURVE",
"235 624.75 OFFCURVE",
"350.25 624.5 OFFCURVE",
"363 624.5 CURVE SMOOTH",
"501.75 624.5 OFFCURVE",
"550.75 576.75 OFFCURVE",
"532.25 480.75 CURVE SMOOTH",
"514.25 385.75 OFFCURVE",
"449.25 348.5 OFFCURVE",
"324.25 348.5 CURVE SMOOTH",
"268.75 348.5 OFFCURVE",
"165 348.25 OFFCURVE",
"148 349.5 CURVE"
);
}
);
width = 661.75;
}
);
leftMetricsKey = H;
note = R;
rightKerningGroup = R;
unicode = 0052;
},
{
color = 1;
glyphname = S;
lastChange = "2026-05-29 19:50:48 +0000";
layers = (
{
layerId = m003;
paths = (
{
closed = 1;
nodes = (
"509 -12 OFFCURVE",
"613 42 OFFCURVE",
"640 188 CURVE SMOOTH",
"689 452 OFFCURVE",
"287 453 OFFCURVE",
"298 515 CURVE SMOOTH",
"301 532 OFFCURVE",
"319 542 OFFCURVE",
"396 542 CURVE SMOOTH",
"483 542 OFFCURVE",
"562 530 OFFCURVE",
"657 502 CURVE",
"697 702 LINE",
"629 720 OFFCURVE",
"522 732 OFFCURVE",
"419 732 CURVE SMOOTH",
"208 732 OFFCURVE",
"97 675 OFFCURVE",
"67 536 CURVE SMOOTH",
"7 261 OFFCURVE",
"424 281 OFFCURVE",
"409 205 CURVE SMOOTH",
"405 187 OFFCURVE",
"372 178 OFFCURVE",
"297 178 CURVE SMOOTH",
"198 178 OFFCURVE",
"98 194 OFFCURVE",
"4 226 CURVE",
"-40 21 LINE",
"35 -1 OFFCURVE",
"161 -12 OFFCURVE",
"287 -12 CURVE SMOOTH"
);
}
);
width = 712;
},
{
associatedMasterId = m003;
layerId = "3CEFD013-749E-47C9-801D-22D705E1B321";
name = "May 6, 26 at 20:17";
paths = (
{
closed = 1;
nodes = (
"143 732 OFFCURVE",
"34 654 OFFCURVE",
"34 527 CURVE SMOOTH",
"34 425 OFFCURVE",
"86 361 OFFCURVE",
"250 285 CURVE SMOOTH",
"301 261 OFFCURVE",
"335 237 OFFCURVE",
"335 201 CURVE SMOOTH",
"336 164 OFFCURVE",
"292 142 OFFCURVE",
"219 142 CURVE SMOOTH",
"168 142 OFFCURVE",
"101 154 OFFCURVE",
"26 191 CURVE",
"26 21 LINE",
"85 -3 OFFCURVE",
"160 -12 OFFCURVE",
"229 -12 CURVE SMOOTH",
"417 -12 OFFCURVE",
"520 70 OFFCURVE",
"520 197 CURVE SMOOTH",
"520 303 OFFCURVE",
"474 367 OFFCURVE",
"359 416 CURVE SMOOTH",
"256 460 OFFCURVE",
"218 481 OFFCURVE",
"217 523 CURVE SMOOTH",
"216 559 OFFCURVE",
"259 582 OFFCURVE",
"326 582 CURVE SMOOTH",
"390 582 OFFCURVE",
"444 568 OFFCURVE",
"501 545 CURVE",
"501 710 LINE",
"439 731 OFFCURVE",
"374 732 OFFCURVE",
"309 732 CURVE SMOOTH"
);
}
);
width = 545;
},
{
layerId = "4050705C-5704-4184-B7B7-497C68798CAB";
paths = (
{
closed = 1;
nodes = (
"331 -12 OFFCURVE",
"421 49 OFFCURVE",
"442 179 CURVE SMOOTH",
"475 381 OFFCURVE",
"238 442 OFFCURVE",
"248 510 CURVE SMOOTH",
"251 537 OFFCURVE",
"276 551 OFFCURVE",
"332 551 CURVE SMOOTH",
"382 551 OFFCURVE",
"424 544 OFFCURVE",
"468 529 CURVE",
"494 714 LINE",
"436 722 OFFCURVE",
"379 726 OFFCURVE",
"333 726 CURVE SMOOTH",
"171 726 OFFCURVE",
"68 655 OFFCURVE",
"51 532 CURVE SMOOTH",
"21 324 OFFCURVE",
"256 280 OFFCURVE",
"246 205 CURVE SMOOTH",
"242 177 OFFCURVE",
"218 163 OFFCURVE",
"172 163 CURVE SMOOTH",
"120 163 OFFCURVE",
"64 172 OFFCURVE",
"4 190 CURVE",
"-23 1 LINE",
"17 -6 OFFCURVE",
"95 -12 OFFCURVE",
"159 -12 CURVE SMOOTH"
);
}
);
width = 491;
},
{
associatedMasterId = "4050705C-5704-4184-B7B7-497C68798CAB";
layerId = "EE0D6FC1-0F5F-4FE5-A1F7-907EE5F9725D";
name = "May 6, 26 at 12:56";
paths = (
{
closed = 1;
nodes = (
"367 726 OFFCURVE",
"464 714 OFFCURVE",
"464 714 CURVE",
"464 529 LINE",
"464 529 OFFCURVE",
"384 551 OFFCURVE",
"300 551 CURVE SMOOTH",
"239 551 OFFCURVE",
"226 525 OFFCURVE",
"226 505 CURVE SMOOTH",
"226 467 OFFCURVE",
"275 453 OFFCURVE",
"345 413 CURVE SMOOTH",
"451 355 OFFCURVE",
"478 289 OFFCURVE",
"478 201 CURVE SMOOTH",
"478 52 OFFCURVE",
"373 -12 OFFCURVE",
"230 -12 CURVE SMOOTH",
"115 -12 OFFCURVE",
"27 0 OFFCURVE",
"27 0 CURVE",
"27 190 LINE",
"27 190 OFFCURVE",
"122 163 OFFCURVE",
"204 163 CURVE SMOOTH",
"257 163 OFFCURVE",
"277 184 OFFCURVE",
"277 210 CURVE SMOOTH",
"277 248 OFFCURVE",
"222 266 OFFCURVE",
"159 302 CURVE SMOOTH",
"71 351 OFFCURVE",
"26 410 OFFCURVE",
"26 514 CURVE SMOOTH",
"26 660 OFFCURVE",
"130 726 OFFCURVE",
"273 726 CURVE SMOOTH"
);
}
);
width = 505;
},
{
layerId = "B0F4357D-9A3D-47FA-BF9B-88CD901EB1E7";
paths = (
{
closed = 1;
nodes = (
"283 -12 OFFCURVE",
"361.75 51.25 OFFCURVE",
"378.25 167.75 CURVE SMOOTH",
"410.5 399.75 OFFCURVE",
"126.25 402.25 OFFCURVE",
"155.75 549.75 CURVE SMOOTH",
"166.25 602.25 OFFCURVE",
"213 633.5 OFFCURVE",
"286.25 633.5 CURVE SMOOTH",
"327.25 633.5 OFFCURVE",
"371.5 626.5 OFFCURVE",
"413.25 604 CURVE",
"428 707.25 LINE",
"389.5 719.75 OFFCURVE",
"337 726 OFFCURVE",
"291.75 726 CURVE SMOOTH",
"151.5 726 OFFCURVE",
"70.25 662.5 OFFCURVE",
"54 562.75 CURVE SMOOTH",
"15.75 336 OFFCURVE",
"300.25 341.5 OFFCURVE",
"277.5 181 CURVE SMOOTH",
"268.25 116.25 OFFCURVE",
"221 80.5 OFFCURVE",
"137.5 80.5 CURVE SMOOTH",
"91.5 80.5 OFFCURVE",
"40.75 89.5 OFFCURVE",
"-8.75 112.75 CURVE",
"-23.75 8.5 LINE",
"23 -4.5 OFFCURVE",
"78.5 -12 OFFCURVE",
"129 -12 CURVE SMOOTH"
);
}
);
width = 428.75;
},
{
layerId = "8223A6C9-5008-4716-B76D-F393BDA840D5";
paths = (
{
closed = 1;
nodes = (
"420.5 -12 OFFCURVE",
"533.5 44.25 OFFCURVE",
"556 175.25 CURVE SMOOTH",
"604.25 452.75 OFFCURVE",
"146.75 381 OFFCURVE",
"179.5 547.25 CURVE SMOOTH",
"190.75 604.75 OFFCURVE",
"256.75 631.25 OFFCURVE",
"375 631.25 CURVE SMOOTH",
"454.5 631.25 OFFCURVE",
"535.75 616.25 OFFCURVE",
"606 588.25 CURVE",
"626.5 687.75 LINE",
"564.5 715.5 OFFCURVE",
"489.75 727.5 OFFCURVE",
"385.25 727.5 CURVE SMOOTH",
"201.25 727.5 OFFCURVE",
"94.75 676.5 OFFCURVE",
"70.75 559.25 CURVE SMOOTH",
"14.5 282.75 OFFCURVE",
"478 366.5 OFFCURVE",
"447.25 188.5 CURVE SMOOTH",
"435 118 OFFCURVE",
"357 84.25 OFFCURVE",
"230.25 84.25 CURVE SMOOTH",
"140.25 84.25 OFFCURVE",
"56 101 OFFCURVE",
"-19.25 133 CURVE",
"-41.5 29.25 LINE",
"35 2 OFFCURVE",
"126.5 -12 OFFCURVE",
"218 -12 CURVE SMOOTH"
);
}
);
width = 631;
}
);
leftKerningGroup = S;
note = S;
rightKerningGroup = S;
unicode = 0053;
},
{
glyphname = T;
lastChange = "2026-05-29 19:50:48 +0000";
layers = (
{
layerId = m003;
paths = (
{
closed = 1;
nodes = (
"86 721 LINE",
"52 563 LINE",
"246 563 LINE",
"126 0 LINE",
"302 0 LINE",
"422 563 LINE",
"620 563 LINE",
"654 721 LINE"
);
}
);
width = 586;
},
{
layerId = "4050705C-5704-4184-B7B7-497C68798CAB";
paths = (
{
closed = 1;
nodes = (
"60 721 LINE",
"35 543 LINE",
"187 543 LINE",
"110 0 LINE",
"306 0 LINE",
"383 543 LINE",
"534 543 LINE",
"559 721 LINE"
);
}
);
width = 517;
},
{
layerId = "B0F4357D-9A3D-47FA-BF9B-88CD901EB1E7";
paths = (
{
closed = 1;
nodes = (
"60 721 LINE",
"35 543 LINE",
"187 543 LINE",
"110 0 LINE",
"306 0 LINE",
"383 543 LINE",
"534 543 LINE",
"559 721 LINE"
);
}
);
width = 517;
},
{
layerId = "8223A6C9-5008-4716-B76D-F393BDA840D5";
paths = (
{
closed = 1;
nodes = (
"86 721 LINE",
"52 563 LINE",
"246 563 LINE",
"126 0 LINE",
"302 0 LINE",
"422 563 LINE",
"620 563 LINE",
"654 721 LINE"
);
}
);
width = 586;
}
);
leftKerningGroup = T;
note = T;
rightKerningGroup = T;
unicode = 0054;
},
{
color = 1;
glyphname = U;
lastChange = "2026-05-29 19:50:48 +0000";
layers = (
{
layerId = m003;
paths = (
{
closed = 1;
nodes = (
"608 -12 OFFCURVE",
"713 98 OFFCURVE",
"767 355 CURVE SMOOTH",
"823 616 OFFCURVE",
"838 689 OFFCURVE",
"847 721 CURVE",
"611 721 LINE",
"606 690 OFFCURVE",
"573 535 OFFCURVE",
"536 360 CURVE SMOOTH",
"510 236 OFFCURVE",
"455 189 OFFCURVE",
"367 189 CURVE SMOOTH",
"274 189 OFFCURVE",
"244 242 OFFCURVE",
"269 360 CURVE SMOOTH",
"299 499 OFFCURVE",
"341 696 OFFCURVE",
"348 721 CURVE",
"113 721 LINE",
"108 692 OFFCURVE",
"82 565 OFFCURVE",
"37 355 CURVE SMOOTH",
"-18 98 OFFCURVE",
"106 -12 OFFCURVE",
"337 -12 CURVE SMOOTH"
);
}
);
width = 804;
},
{
layerId = "4050705C-5704-4184-B7B7-497C68798CAB";
paths = (
{
closed = 1;
nodes = (
"434 -12 OFFCURVE",
"507 68 OFFCURVE",
"527 221 CURVE SMOOTH",
"551 409 OFFCURVE",
"574 564 OFFCURVE",
"598 718 CURVE",
"402 718 LINE",
"383 557 OFFCURVE",
"361 395 OFFCURVE",
"336 234 CURVE SMOOTH",
"328 183 OFFCURVE",
"308 164 OFFCURVE",
"264 164 CURVE SMOOTH",
"226 164 OFFCURVE",
"205 183 OFFCURVE",
"212 234 CURVE SMOOTH",
"233 395 OFFCURVE",
"257 557 OFFCURVE",
"282 718 CURVE",
"86 718 LINE",
"68 564 OFFCURVE",
"47 409 OFFCURVE",
"23 255 CURVE SMOOTH",
"-6 68 OFFCURVE",
"89 -12 OFFCURVE",
"245 -12 CURVE SMOOTH"
);
}
);
width = 582;
},
{
layerId = "B0F4357D-9A3D-47FA-BF9B-88CD901EB1E7";
paths = (
{
closed = 1;
nodes = (
"344.75 -12 OFFCURVE",
"416.25 50.75 OFFCURVE",
"440.75 226.25 CURVE SMOOTH",
"464 398.5 OFFCURVE",
"499 633.75 OFFCURVE",
"511.75 720.25 CURVE",
"405.75 720.25 LINE",
"395 640.25 OFFCURVE",
"361.75 396.5 OFFCURVE",
"338.25 236.25 CURVE SMOOTH",
"321.25 114.75 OFFCURVE",
"282.5 81.5 OFFCURVE",
"211.5 81.5 CURVE SMOOTH",
"138.25 81.5 OFFCURVE",
"102.25 114 OFFCURVE",
"119 236.25 CURVE SMOOTH",
"141.5 396.5 OFFCURVE",
"177.5 640.25 OFFCURVE",
"189.75 720.25 CURVE",
"84.5 720.25 LINE",
"74.75 633.75 OFFCURVE",
"41.75 397.75 OFFCURVE",
"20 250.5 CURVE SMOOTH",
"-8.25 63.5 OFFCURVE",
"68.75 -12 OFFCURVE",
"204.5 -12 CURVE SMOOTH"
);
}
);
width = 492.75;
},
{
layerId = "8223A6C9-5008-4716-B76D-F393BDA840D5";
paths = (
{
closed = 1;
nodes = (
"503.75 -12 OFFCURVE",
"614.75 93.5 OFFCURVE",
"661.25 314.5 CURVE SMOOTH",
"699.25 490.75 OFFCURVE",
"739.75 673.25 OFFCURVE",
"750.25 721 CURVE",
"634.25 721 LINE",
"618.75 645 OFFCURVE",
"575.25 437.5 OFFCURVE",
"551.75 327.75 CURVE SMOOTH",
"517.5 167.75 OFFCURVE",
"433.25 87.75 OFFCURVE",
"301.75 87.75 CURVE SMOOTH",
"164.5 87.75 OFFCURVE",
"108.25 171.5 OFFCURVE",
"140 327.75 CURVE SMOOTH",
"164 445 OFFCURVE",
"213.5 672.75 OFFCURVE",
"225.75 721 CURVE",
"110.75 721 LINE",
"103.5 670.25 OFFCURVE",
"62.5 469.75 OFFCURVE",
"32.5 339.25 CURVE SMOOTH",
"-19.5 118.25 OFFCURVE",
"88 -12 OFFCURVE",
"287.5 -12 CURVE SMOOTH"
);
}
);
width = 705;
}
);
leftKerningGroup = U;
note = U;
rightKerningGroup = U;
unicode = 0055;
},
{
glyphname = V;
lastChange = "2026-05-29 19:50:48 +0000";
layers = (
{
layerId = m003;
paths = (
{
closed = 1;
nodes = (
"180 0 LINE",
"146 241 OFFCURVE",
"110 482 OFFCURVE",
"73 721 CURVE",
"256 721 LINE",
"272 563 OFFCURVE",
"291 406 OFFCURVE",
"310 250 CURVE",
"395 406 OFFCURVE",
"480 563 OFFCURVE",
"564 721 CURVE",
"747 721 LINE",
"607 481 OFFCURVE",
"469 240 OFFCURVE",
"333 0 CURVE"
);
}
);
width = 666;
},
{
layerId = "4050705C-5704-4184-B7B7-497C68798CAB";
paths = (
{
closed = 1;
nodes = (
"284 271 LINE",
"276 271 LINE",
"260 721 LINE",
"47 721 LINE",
"151 0 LINE",
"333 0 LINE",
"641 721 LINE",
"428 721 LINE"
);
}
);
width = 586;
},
{
layerId = "B0F4357D-9A3D-47FA-BF9B-88CD901EB1E7";
paths = (
{
closed = 1;
nodes = (
"284 271 LINE",
"276 271 LINE",
"260 721 LINE",
"47 721 LINE",
"151 0 LINE",
"333 0 LINE",
"641 721 LINE",
"428 721 LINE"
);
}
);
width = 586;
},
{
layerId = "8223A6C9-5008-4716-B76D-F393BDA840D5";
paths = (
{
closed = 1;
nodes = (
"180 0 LINE",
"146 241 OFFCURVE",
"110 482 OFFCURVE",
"73 721 CURVE",
"256 721 LINE",
"272 563 OFFCURVE",
"291 406 OFFCURVE",
"310 250 CURVE",
"395 406 OFFCURVE",
"480 563 OFFCURVE",
"564 721 CURVE",
"747 721 LINE",
"607 481 OFFCURVE",
"469 240 OFFCURVE",
"333 0 CURVE"
);
}
);
width = 666;
}
);
leftKerningGroup = V;
note = V;
rightKerningGroup = V;
unicode = 0056;
},
{
color = 1;
glyphname = W;
lastChange = "2026-05-29 19:50:48 +0000";
layers = (
{
layerId = m003;
paths = (
{
closed = 1;
nodes = (
"371 0 LINE",
"626 537 LINE",
"552 537 LINE",
"597 0 LINE",
"823 0 LINE",
"1199 721 LINE",
"970 721 LINE",
"705 177 LINE",
"774 177 LINE",
"737 721 LINE",
"516 721 LINE",
"249 173 LINE",
"337 173 LINE",
"302 721 LINE",
"73 721 LINE",
"145 0 LINE"
);
}
);
width = 1118;
},
{
layerId = "4050705C-5704-4184-B7B7-497C68798CAB";
paths = (
{
closed = 1;
nodes = (
"324 0 LINE",
"443 404 LINE",
"428 404 LINE",
"442 0 LINE",
"647 0 LINE",
"923 721 LINE",
"717 721 LINE",
"576 282 LINE",
"587 282 LINE",
"580 721 LINE",
"382 721 LINE",
"251 282 LINE",
"270 282 LINE",
"253 721 LINE",
"47 721 LINE",
"119 0 LINE"
);
}
);
width = 868;
},
{
layerId = "B0F4357D-9A3D-47FA-BF9B-88CD901EB1E7";
paths = (
{
closed = 1;
nodes = (
"211.5 0 LINE",
"413 617.75 LINE",
"377 617.75 LINE",
"404.5 0 LINE",
"519.5 0 LINE",
"773 721 LINE",
"663 721 LINE",
"459 87.75 LINE",
"490.25 87 LINE",
"463 721 LINE",
"353.5 721 LINE",
"146.75 85.5 LINE",
"182.25 85.5 LINE",
"157 721 LINE",
"47 721 LINE",
"96.5 0 LINE"
);
}
);
width = 718;
},
{
layerId = "8223A6C9-5008-4716-B76D-F393BDA840D5";
paths = (
{
closed = 1;
nodes = (
"265.25 0 LINE",
"589.25 651 LINE",
"538.5 651 LINE",
"589.5 0 LINE",
"709.75 0 LINE",
"1085.75 721 LINE",
"970 721 LINE",
"638.25 61.5 LINE",
"684 60.75 LINE",
"633.5 721 LINE",
"518.25 721 LINE",
"189 58.25 LINE",
"242.5 58.25 LINE",
"188.75 721 LINE",
"73 721 LINE",
"145 0 LINE"
);
}
);
width = 1004.75;
}
);
unicode = 0057;
},
{
glyphname = X;
lastChange = "2026-05-29 19:50:48 +0000";
layers = (
{
layerId = m003;
paths = (
{
closed = 1;
nodes = (
"273 404 LINE",
"-81 0 LINE",
"122 0 LINE",
"338 266 LINE",
"411 332 LINE",
"750 721 LINE",
"551 721 LINE",
"346 470 LINE"
);
},
{
closed = 1;
nodes = (
"373 511 OFFCURVE",
"328 616 OFFCURVE",
"285 721 CURVE",
"86 721 LINE",
"144 591 OFFCURVE",
"208 462 OFFCURVE",
"265 332 CURVE SMOOTH",
"314 222 OFFCURVE",
"358 111 OFFCURVE",
"405 0 CURVE",
"608 0 LINE",
"545 135 OFFCURVE",
"481 271 OFFCURVE",
"420 406 CURVE"
);
}
);
width = 681;
},
{
layerId = "4050705C-5704-4184-B7B7-497C68798CAB";
paths = (
{
closed = 1;
nodes = (
"541 0 LINE",
"416 367 LINE",
"631 721 LINE",
"431 721 LINE",
"320 510 LINE",
"312 510 LINE",
"260 721 LINE",
"59 721 LINE",
"175 367 LINE",
"-55 0 LINE",
"153 0 LINE",
"272 228 LINE",
"280 228 LINE",
"334 0 LINE"
);
}
);
width = 588;
},
{
layerId = "B0F4357D-9A3D-47FA-BF9B-88CD901EB1E7";
paths = (
{
closed = 1;
nodes = (
"541 0 LINE",
"416 367 LINE",
"631 721 LINE",
"431 721 LINE",
"320 510 LINE",
"312 510 LINE",
"260 721 LINE",
"59 721 LINE",
"175 367 LINE",
"-55 0 LINE",
"153 0 LINE",
"272 228 LINE",
"280 228 LINE",
"334 0 LINE"
);
}
);
width = 588;
},
{
layerId = "8223A6C9-5008-4716-B76D-F393BDA840D5";
paths = (
{
closed = 1;
nodes = (
"273 404 LINE",
"-81 0 LINE",
"122 0 LINE",
"338 266 LINE",
"411 332 LINE",
"750 721 LINE",
"551 721 LINE",
"346 470 LINE"
);
},
{
closed = 1;
nodes = (
"373 511 OFFCURVE",
"328 616 OFFCURVE",
"285 721 CURVE",
"86 721 LINE",
"144 591 OFFCURVE",
"208 462 OFFCURVE",
"265 332 CURVE SMOOTH",
"314 222 OFFCURVE",
"358 111 OFFCURVE",
"405 0 CURVE",
"608 0 LINE",
"545 135 OFFCURVE",
"481 271 OFFCURVE",
"420 406 CURVE"
);
}
);
width = 681;
}
);
note = E;
rightKerningGroup = E;
unicode = 0058;
},
{
color = 1;
glyphname = Y;
lastChange = "2026-05-29 19:50:48 +0000";
layers = (
{
layerId = m003;
paths = (
{
closed = 1;
nodes = (
"437 0 LINE",
"496 278 LINE",
"873 721 LINE",
"612 721 LINE",
"329 372 LINE",
"451 372 LINE",
"317 721 LINE",
"73 721 LINE",
"260 278 LINE",
"201 0 LINE"
);
}
);
width = 792;
},
{
associatedMasterId = m003;
layerId = "4C3AF044-A9BE-4905-A0FB-E859B51C2CA9";
name = "May 7, 26 at 11:35";
paths = (
{
closed = 1;
nodes = (
"458 721 LINE",
"320 426 LINE",
"182 721 LINE",
"-4 721 LINE",
"204 324 LINE SMOOTH",
"223 288 OFFCURVE",
"232 249 OFFCURVE",
"232 209 CURVE SMOOTH",
"232 0 LINE",
"408 0 LINE",
"408 209 LINE SMOOTH",
"408 249 OFFCURVE",
"418 288 OFFCURVE",
"436 324 CURVE SMOOTH",
"644 721 LINE"
);
}
);
width = 640;
},
{
layerId = "4050705C-5704-4184-B7B7-497C68798CAB";
paths = (
{
closed = 1;
nodes = (
"319 0 LINE",
"354 244 LINE",
"601 721 LINE",
"402 721 LINE",
"265 404 LINE",
"292 404 LINE",
"240 721 LINE",
"47 721 LINE",
"160 244 LINE",
"125 0 LINE"
);
}
);
width = 546;
},
{
layerId = "B0F4357D-9A3D-47FA-BF9B-88CD901EB1E7";
paths = (
{
closed = 1;
nodes = (
"236.5 0 LINE",
"279 299.5 LINE",
"526 721 LINE",
"417.75 721 LINE",
"209.5 349.25 LINE",
"256.75 350 LINE",
"150 721 LINE",
"47 721 LINE",
"175 299.5 LINE",
"132.5 0 LINE"
);
}
);
width = 471;
},
{
layerId = "8223A6C9-5008-4716-B76D-F393BDA840D5";
paths = (
{
closed = 1;
nodes = (
"315.5 0 LINE",
"381.25 308 LINE",
"751.5 721 LINE",
"622.5 721 LINE",
"287.75 341.25 LINE",
"366.25 342 LINE",
"192.5 721 LINE",
"73 721 LINE",
"266.75 308 LINE",
"201 0 LINE"
);
}
);
width = 670.5;
}
);
leftKerningGroup = Y;
note = Y;
rightKerningGroup = Y;
unicode = 0059;
},
{
glyphname = Z;
lastChange = "2026-05-29 19:50:48 +0000";
layers = (
{
layerId = m003;
paths = (
{
closed = 1;
nodes = (
"474 719 OFFCURVE",
"296 719 OFFCURVE",
"120 721 CURVE",
"110 668 OFFCURVE",
"99 614 OFFCURVE",
"86 561 CURVE",
"189 563 OFFCURVE",
"292 563 OFFCURVE",
"395 563 CURVE",
"254 424 OFFCURVE",
"114 284 OFFCURVE",
"-27 145 CURVE",
"-35 97 OFFCURVE",
"-45 48 OFFCURVE",
"-58 0 CURVE",
"124 2 OFFCURVE",
"304 2 OFFCURVE",
"484 0 CURVE",
"499 53 OFFCURVE",
"513 107 OFFCURVE",
"530 160 CURVE",
"419 158 OFFCURVE",
"309 158 OFFCURVE",
"198 158 CURVE",
"339 297 OFFCURVE",
"480 437 OFFCURVE",
"621 576 CURVE",
"630 624 OFFCURVE",
"640 673 OFFCURVE",
"652 721 CURVE"
);
}
);
width = 594;
},
{
layerId = "4050705C-5704-4184-B7B7-497C68798CAB";
paths = (
{
closed = 1;
nodes = (
"560 543 LINE",
"211 178 LINE",
"527 178 LINE",
"488 0 LINE",
"-32 0 LINE",
"-7 178 LINE",
"332 543 LINE",
"69 543 LINE",
"94 721 LINE",
"585 721 LINE"
);
}
);
width = 572;
},
{
layerId = "B0F4357D-9A3D-47FA-BF9B-88CD901EB1E7";
paths = (
{
closed = 1;
nodes = (
"560 543 LINE",
"211 178 LINE",
"527 178 LINE",
"488 0 LINE",
"-32 0 LINE",
"-7 178 LINE",
"332 543 LINE",
"69 543 LINE",
"94 721 LINE",
"585 721 LINE"
);
}
);
width = 572;
},
{
layerId = "8223A6C9-5008-4716-B76D-F393BDA840D5";
paths = (
{
closed = 1;
nodes = (
"474 719 OFFCURVE",
"296 719 OFFCURVE",
"120 721 CURVE",
"110 668 OFFCURVE",
"99 614 OFFCURVE",
"86 561 CURVE",
"189 563 OFFCURVE",
"292 563 OFFCURVE",
"395 563 CURVE",
"254 424 OFFCURVE",
"114 284 OFFCURVE",
"-27 145 CURVE",
"-35 97 OFFCURVE",
"-45 48 OFFCURVE",
"-58 0 CURVE",
"124 2 OFFCURVE",
"304 2 OFFCURVE",
"484 0 CURVE",
"499 53 OFFCURVE",
"513 107 OFFCURVE",
"530 160 CURVE",
"419 158 OFFCURVE",
"309 158 OFFCURVE",
"198 158 CURVE",
"339 297 OFFCURVE",
"480 437 OFFCURVE",
"621 576 CURVE",
"630 624 OFFCURVE",
"640 673 OFFCURVE",
"652 721 CURVE"
);
}
);
width = 594;
}
);
leftKerningGroup = Z;
note = Z;
rightKerningGroup = Z;
unicode = 005A;
},
{
glyphname = N.001;
lastChange = "2026-05-29 19:50:48 +0000";
layers = (
{
layerId = m003;
paths = (
{
closed = 1;
nodes = (
"546 721 LINE",
"534 661 OFFCURVE",
"509 541 OFFCURVE",
"490 451 CURVE",
"425 537 OFFCURVE",
"361 627 OFFCURVE",
"297 721 CURVE",
"130 721 LINE",
"120 670 OFFCURVE",
"81 482 OFFCURVE",
"56 363 CURVE SMOOTH",
"30 242 OFFCURVE",
"-14 41 OFFCURVE",
"-24 0 CURVE",
"152 0 LINE",
"159 38 OFFCURVE",
"198 221 OFFCURVE",
"232 373 CURVE SMOOTH",
"239 408 OFFCURVE",
"246 441 OFFCURVE",
"252 471 CURVE",
"316 391 OFFCURVE",
"379 305 OFFCURVE",
"441 218 CURVE",
"425 145 OFFCURVE",
"400 33 OFFCURVE",
"392 0 CURVE",
"568 0 LINE",
"575 35 OFFCURVE",
"618 243 OFFCURVE",
"644 365 CURVE SMOOTH",
"669 484 OFFCURVE",
"708 663 OFFCURVE",
"722 721 CURVE"
);
}
);
width = 698;
},
{
layerId = "4050705C-5704-4184-B7B7-497C68798CAB";
paths = (
{
closed = 1;
nodes = (
"443 721 LINE",
"436 670 OFFCURVE",
"424 578 OFFCURVE",
"412 497 CURVE",
"367 571 OFFCURVE",
"320 647 OFFCURVE",
"275 721 CURVE",
"104 721 LINE",
"97 670 OFFCURVE",
"72 482 OFFCURVE",
"55 363 CURVE SMOOTH",
"38 242 OFFCURVE",
"9 41 OFFCURVE",
"2 0 CURVE",
"198 0 LINE",
"204 48 OFFCURVE",
"226 212 OFFCURVE",
"247 361 CURVE SMOOTH",
"249 373 OFFCURVE",
"251 386 OFFCURVE",
"252 398 CURVE",
"292 335 OFFCURVE",
"332 272 OFFCURVE",
"372 208 CURVE",
"361 135 OFFCURVE",
"347 33 OFFCURVE",
"341 0 CURVE",
"537 0 LINE",
"541 35 OFFCURVE",
"569 243 OFFCURVE",
"587 365 CURVE SMOOTH",
"603 484 OFFCURVE",
"630 663 OFFCURVE",
"639 721 CURVE"
);
}
);
width = 641;
},
{
associatedMasterId = "4050705C-5704-4184-B7B7-497C68798CAB";
layerId = "47C917EF-768D-4AAC-952A-4B6CD71285DE";
name = "May 8, 26 at 10:11";
paths = (
{
closed = 1;
nodes = (
"409 0 LINE",
"587 0 LINE",
"587 721 LINE",
"386 721 LINE",
"386 421 LINE",
"231 721 LINE",
"53 721 LINE",
"53 0 LINE",
"254 0 LINE",
"254 299 LINE"
);
}
);
visible = 1;
width = 622;
},
{
layerId = "B0F4357D-9A3D-47FA-BF9B-88CD901EB1E7";
paths = (
{
closed = 1;
nodes = (
"443 721 LINE",
"436 670 OFFCURVE",
"424 578 OFFCURVE",
"412 497 CURVE",
"367 571 OFFCURVE",
"320 647 OFFCURVE",
"275 721 CURVE",
"104 721 LINE",
"97 670 OFFCURVE",
"72 482 OFFCURVE",
"55 363 CURVE SMOOTH",
"38 242 OFFCURVE",
"9 41 OFFCURVE",
"2 0 CURVE",
"198 0 LINE",
"204 48 OFFCURVE",
"226 212 OFFCURVE",
"247 361 CURVE SMOOTH",
"249 373 OFFCURVE",
"251 386 OFFCURVE",
"252 398 CURVE",
"292 335 OFFCURVE",
"332 272 OFFCURVE",
"372 208 CURVE",
"361 135 OFFCURVE",
"347 33 OFFCURVE",
"341 0 CURVE",
"537 0 LINE",
"541 35 OFFCURVE",
"569 243 OFFCURVE",
"587 365 CURVE SMOOTH",
"603 484 OFFCURVE",
"630 663 OFFCURVE",
"639 721 CURVE"
);
}
);
width = 641;
},
{
layerId = "8223A6C9-5008-4716-B76D-F393BDA840D5";
paths = (
{
closed = 1;
nodes = (
"546 721 LINE",
"534 661 OFFCURVE",
"509 541 OFFCURVE",
"490 451 CURVE",
"425 537 OFFCURVE",
"361 627 OFFCURVE",
"297 721 CURVE",
"130 721 LINE",
"120 670 OFFCURVE",
"81 482 OFFCURVE",
"56 363 CURVE SMOOTH",
"30 242 OFFCURVE",
"-14 41 OFFCURVE",
"-24 0 CURVE",
"152 0 LINE",
"159 38 OFFCURVE",
"198 218.75 OFFCURVE",
"231.25 370 CURVE SMOOTH",
"238.25 405.75 OFFCURVE",
"246 440.25 OFFCURVE",
"252 471 CURVE",
"316 391 OFFCURVE",
"379 305 OFFCURVE",
"441 218 CURVE",
"425 145 OFFCURVE",
"400 33 OFFCURVE",
"392 0 CURVE",
"568 0 LINE",
"575 35 OFFCURVE",
"618 243 OFFCURVE",
"644 365 CURVE SMOOTH",
"669 484 OFFCURVE",
"708 663 OFFCURVE",
"722 721 CURVE"
);
}
);
width = 698;
}
);
note = N;
},
{
glyphname = R.001;
lastChange = "2026-05-29 19:50:48 +0000";
layers = (
{
background = {
paths = (
{
closed = 1;
nodes = (
"229 0 LINE",
"227 49 OFFCURVE",
"227 208 OFFCURVE",
"227 267 CURVE",
"353 267 LINE SMOOTH",
"512 267 OFFCURVE",
"599 375 OFFCURVE",
"599 509 CURVE SMOOTH",
"599 638 OFFCURVE",
"515 721 OFFCURVE",
"372 721 CURVE SMOOTH",
"266 721 OFFCURVE",
"159 721 OFFCURVE",
"53 721 CURVE",
"54 684 OFFCURVE",
"55 547 OFFCURVE",
"55 370 CURVE SMOOTH",
"55 187 OFFCURVE",
"54 33 OFFCURVE",
"53 0 CURVE"
);
},
{
closed = 1;
nodes = (
"617 0 LINE",
"582 45 OFFCURVE",
"526 165 OFFCURVE",
"463 339 CURVE",
"318 285 LINE",
"364 129 OFFCURVE",
"399 45 OFFCURVE",
"433 0 CURVE"
);
},
{
closed = 1;
nodes = (
"227 445 OFFCURVE",
"227 530 OFFCURVE",
"229 575 CURVE",
"266 575 OFFCURVE",
"302 575 OFFCURVE",
"339 575 CURVE SMOOTH",
"389 575 OFFCURVE",
"420 549 OFFCURVE",
"420 493 CURVE SMOOTH",
"420 432 OFFCURVE",
"389 409 OFFCURVE",
"339 409 CURVE SMOOTH",
"302 409 OFFCURVE",
"264 409 OFFCURVE",
"227 410 CURVE"
);
}
);
};
layerId = m003;
paths = (
{
closed = 1;
nodes = (
"152 0 LINE",
"161 49 OFFCURVE",
"195 208 OFFCURVE",
"207 267 CURVE",
"333 267 LINE SMOOTH",
"492 267 OFFCURVE",
"602 375 OFFCURVE",
"631 509 CURVE SMOOTH",
"658 638 OFFCURVE",
"592 721 OFFCURVE",
"449 721 CURVE SMOOTH",
"343 721 OFFCURVE",
"236 721 OFFCURVE",
"130 721 CURVE",
"123 684 OFFCURVE",
"95 547 OFFCURVE",
"57 370 CURVE SMOOTH",
"18 187 OFFCURVE",
"-16 33 OFFCURVE",
"-24 0 CURVE"
);
},
{
closed = 1;
nodes = (
"540 0 LINE",
"515 45 OFFCURVE",
"484 165 OFFCURVE",
"458 339 CURVE",
"302 285 LINE",
"315 129 OFFCURVE",
"332 45 OFFCURVE",
"356 0 CURVE"
);
},
{
closed = 1;
nodes = (
"245 445 OFFCURVE",
"263 530 OFFCURVE",
"275 575 CURVE",
"312 575 OFFCURVE",
"348 575 OFFCURVE",
"385 575 CURVE SMOOTH",
"435 575 OFFCURVE",
"460 549 OFFCURVE",
"448 493 CURVE SMOOTH",
"435 432 OFFCURVE",
"399 409 OFFCURVE",
"349 409 CURVE SMOOTH",
"312 409 OFFCURVE",
"274 409 OFFCURVE",
"238 410 CURVE"
);
}
);
width = 640;
},
{
associatedMasterId = m003;
layerId = "8A7E0FDB-B377-4F0B-8006-E49868B5AB9B";
name = "May 7, 26 at 10:23";
paths = (
{
closed = 1;
nodes = (
"570 283 OFFCURVE",
"540 322 OFFCURVE",
"495 339 CURVE",
"512 345 OFFCURVE",
"599 379 OFFCURVE",
"599 508 CURVE SMOOTH",
"599 638 OFFCURVE",
"515 721 OFFCURVE",
"372 721 CURVE SMOOTH",
"53 721 LINE",
"53 0 LINE",
"229 0 LINE",
"229 267 LINE",
"272 267 LINE SMOOTH",
"365 267 OFFCURVE",
"405 235 OFFCURVE",
"421 146 CURVE SMOOTH",
"441 38 OFFCURVE",
"448 18 OFFCURVE",
"457 0 CURVE",
"652 0 LINE",
"628 30 OFFCURVE",
"598 136 OFFCURVE",
"584 208 CURVE SMOOTH"
);
},
{
closed = 1;
nodes = (
"229 575 LINE",
"339 575 LINE SMOOTH",
"389 575 OFFCURVE",
"420 549 OFFCURVE",
"420 493 CURVE SMOOTH",
"420 432 OFFCURVE",
"389 410 OFFCURVE",
"339 410 CURVE SMOOTH",
"229 410 LINE"
);
}
);
width = 640;
},
{
associatedMasterId = m003;
layerId = "2A4B25B0-188B-4BEF-9FD7-4540C8E8852A";
name = "May 7, 26 at 13:17";
paths = (
{
closed = 1;
nodes = (
"567 282 OFFCURVE",
"540 322 OFFCURVE",
"495 339 CURVE",
"512 345 OFFCURVE",
"599 379 OFFCURVE",
"599 508 CURVE SMOOTH",
"599 638 OFFCURVE",
"515 721 OFFCURVE",
"372 721 CURVE SMOOTH",
"266 721 OFFCURVE",
"159 721 OFFCURVE",
"53 721 CURVE",
"54 684 OFFCURVE",
"55 547 OFFCURVE",
"55 370 CURVE SMOOTH",
"55 187 OFFCURVE",
"54 33 OFFCURVE",
"53 0 CURVE",
"229 0 LINE",
"227 49 OFFCURVE",
"227 208 OFFCURVE",
"227 267 CURVE",
"272 267 LINE SMOOTH",
"364 267 OFFCURVE",
"404 236 OFFCURVE",
"419 153 CURVE SMOOTH",
"428 102 LINE SMOOTH",
"439 38 OFFCURVE",
"447 12 OFFCURVE",
"456 0 CURVE",
"642 0 LINE",
"633 12 OFFCURVE",
"619 59 OFFCURVE",
"603 126 CURVE SMOOTH",
"584 208 LINE SMOOTH"
);
},
{
closed = 1;
nodes = (
"227 445 OFFCURVE",
"227 530 OFFCURVE",
"229 575 CURVE",
"266 575 OFFCURVE",
"302 575 OFFCURVE",
"339 575 CURVE SMOOTH",
"389 575 OFFCURVE",
"420 549 OFFCURVE",
"420 493 CURVE SMOOTH",
"420 432 OFFCURVE",
"389 409 OFFCURVE",
"339 409 CURVE SMOOTH",
"302 409 OFFCURVE",
"264 409 OFFCURVE",
"227 410 CURVE"
);
}
);
width = 640;
},
{
background = {
paths = (
{
closed = 1;
nodes = (
"587 0 LINE",
"571 37 OFFCURVE",
"499 202 OFFCURVE",
"457 339 CURVE",
"289 285 LINE",
"327 149 OFFCURVE",
"371 31 OFFCURVE",
"383 0 CURVE"
);
},
{
closed = 1;
nodes = (
"617 0 LINE",
"560 61 OFFCURVE",
"498 188 OFFCURVE",
"453 349 CURVE",
"289 295 LINE",
"327 142 OFFCURVE",
"367 44 OFFCURVE",
"413 0 CURVE"
);
}
);
};
layerId = "4050705C-5704-4184-B7B7-497C68798CAB";
paths = (
{
closed = 1;
nodes = (
"198 0 LINE",
"210 93 OFFCURVE",
"223 185 OFFCURVE",
"235 278 CURVE",
"297 278 LINE SMOOTH",
"463 278 OFFCURVE",
"564 353 OFFCURVE",
"583 491 CURVE SMOOTH",
"606 651 OFFCURVE",
"528 721 OFFCURVE",
"365 721 CURVE SMOOTH",
"278 721 OFFCURVE",
"191 721 OFFCURVE",
"104 721 CURVE",
"100 679 OFFCURVE",
"71 477 OFFCURVE",
"54 355 CURVE SMOOTH",
"38 237 OFFCURVE",
"11 48 OFFCURVE",
"2 0 CURVE"
);
},
{
closed = 1;
nodes = (
"551 0 LINE",
"521 50 OFFCURVE",
"476 195 OFFCURVE",
"452 344 CURVE",
"279 290 LINE",
"297 146 OFFCURVE",
"324 37 OFFCURVE",
"346 0 CURVE"
);
},
{
closed = 1;
nodes = (
"263 468 OFFCURVE",
"269 515 OFFCURVE",
"276 563 CURVE",
"291 563 OFFCURVE",
"307 563 OFFCURVE",
"322 563 CURVE SMOOTH",
"369 563 OFFCURVE",
"389 533 OFFCURVE",
"383 491 CURVE SMOOTH",
"378 450 OFFCURVE",
"349 420 OFFCURVE",
"302 420 CURVE SMOOTH",
"286 420 OFFCURVE",
"271 420 OFFCURVE",
"255 420 CURVE"
);
}
);
width = 601;
},
{
associatedMasterId = "4050705C-5704-4184-B7B7-497C68798CAB";
background = {
paths = (
{
closed = 1;
nodes = (
"587 0 LINE",
"571 37 OFFCURVE",
"499 202 OFFCURVE",
"457 339 CURVE",
"289 285 LINE",
"327 149 OFFCURVE",
"371 31 OFFCURVE",
"383 0 CURVE"
);
},
{
closed = 1;
nodes = (
"617 0 LINE",
"560 61 OFFCURVE",
"498 188 OFFCURVE",
"453 349 CURVE",
"289 295 LINE",
"327 142 OFFCURVE",
"367 44 OFFCURVE",
"413 0 CURVE"
);
}
);
};
layerId = "69819651-57DA-4D3A-A114-F745B36D5C35";
name = "May 13, 26 at 20:29";
paths = (
{
closed = 1;
nodes = (
"467 0 LINE",
"410 61 OFFCURVE",
"348 188 OFFCURVE",
"303 349 CURVE",
"139 295 LINE",
"177 142 OFFCURVE",
"217 44 OFFCURVE",
"263 0 CURVE"
);
},
{
closed = 1;
nodes = (
"437 0 LINE",
"421 37 OFFCURVE",
"349 202 OFFCURVE",
"307 339 CURVE",
"139 285 LINE",
"177 149 OFFCURVE",
"221 31 OFFCURVE",
"233 0 CURVE"
);
},
{
closed = 1;
nodes = (
"452 0 LINE",
"415 50 OFFCURVE",
"349 195 OFFCURVE",
"304 344 CURVE",
"139 290 LINE",
"177 146 OFFCURVE",
"219 37 OFFCURVE",
"247 0 CURVE"
);
}
);
width = 601;
},
{
layerId = "B0F4357D-9A3D-47FA-BF9B-88CD901EB1E7";
paths = (
{
closed = 1;
nodes = (
"107.25 0 LINE",
"120 95.25 OFFCURVE",
"133 188.75 OFFCURVE",
"145.75 284 CURVE",
"243.75 284 LINE SMOOTH",
"383.5 284 OFFCURVE",
"474.75 358.25 OFFCURVE",
"495.25 503 CURVE SMOOTH",
"516 652.5 OFFCURVE",
"445.5 721 OFFCURVE",
"312.5 721 CURVE SMOOTH",
"278 721 OFFCURVE",
"191 721 OFFCURVE",
"104 721 CURVE",
"100 679 OFFCURVE",
"71 477 OFFCURVE",
"54 355 CURVE SMOOTH",
"38 237 OFFCURVE",
"11 48 OFFCURVE",
"2 0 CURVE"
);
},
{
closed = 1;
nodes = (
"435.5 0 LINE",
"419 41.75 OFFCURVE",
"385.25 181.5 OFFCURVE",
"354.5 347.75 CURVE",
"263.25 301.25 LINE",
"289.5 136.25 OFFCURVE",
"310.5 34 OFFCURVE",
"322.75 0 CURVE"
);
},
{
closed = 1;
nodes = (
"170 453.75 OFFCURVE",
"182.75 547.25 OFFCURVE",
"195 630.5 CURVE",
"210 630.5 OFFCURVE",
"271.75 630.5 OFFCURVE",
"286.75 630.5 CURVE SMOOTH",
"369 630.5 OFFCURVE",
"400.25 584 OFFCURVE",
"389 503 CURVE SMOOTH",
"378 426 OFFCURVE",
"345.25 370.5 OFFCURVE",
"250.25 370.5 CURVE SMOOTH",
"234.25 370.5 OFFCURVE",
"173.5 370.5 OFFCURVE",
"157.5 370.5 CURVE"
);
}
);
width = 518.5;
},
{
layerId = "8223A6C9-5008-4716-B76D-F393BDA840D5";
paths = (
{
closed = 1;
nodes = (
"77 0 LINE",
"83.75 36.25 OFFCURVE",
"108 152.5 OFFCURVE",
"133.5 274.5 CURVE",
"274.5 274.5 LINE SMOOTH",
"429 274.5 OFFCURVE",
"525.5 368.25 OFFCURVE",
"553.75 500.75 CURVE SMOOTH",
"584.5 644 OFFCURVE",
"525.25 721 OFFCURVE",
"374.75 721 CURVE SMOOTH",
"318.25 721 OFFCURVE",
"223.25 721 OFFCURVE",
"130 721 CURVE",
"122.25 680.25 OFFCURVE",
"92 532.75 OFFCURVE",
"57 370 CURVE SMOOTH",
"21 199 OFFCURVE",
"-15.25 35.25 OFFCURVE",
"-24 0 CURVE"
);
},
{
closed = 1;
nodes = (
"465 0 LINE",
"434 57 OFFCURVE",
"400 188.25 OFFCURVE",
"379.25 339.75 CURVE",
"290 297.75 LINE",
"304.5 162 OFFCURVE",
"326.75 59.25 OFFCURVE",
"353 0 CURVE"
);
},
{
closed = 1;
nodes = (
"176.75 478 OFFCURVE",
"199.25 580.25 OFFCURVE",
"212 632 CURVE",
"242.25 632 OFFCURVE",
"322.5 632 OFFCURVE",
"344.5 632 CURVE SMOOTH",
"435.75 632 OFFCURVE",
"472 588.75 OFFCURVE",
"452.5 496.75 CURVE SMOOTH",
"432 401.25 OFFCURVE",
"381 361 OFFCURVE",
"286.75 361 CURVE SMOOTH",
"231.75 361 OFFCURVE",
"172.75 361 OFFCURVE",
"152.5 362 CURVE"
);
}
);
width = 565;
}
);
note = R;
rightKerningGroup = R;
},
{
glyphname = R.002;
lastChange = "2026-05-29 19:50:48 +0000";
layers = (
{
layerId = m003;
paths = (
{
closed = 1;
nodes = (
"152 0 LINE",
"161 49 OFFCURVE",
"195 208 OFFCURVE",
"207 267 CURVE",
"333 267 LINE SMOOTH",
"492 267 OFFCURVE",
"602 375 OFFCURVE",
"631 509 CURVE SMOOTH",
"658 638 OFFCURVE",
"592 721 OFFCURVE",
"449 721 CURVE SMOOTH",
"343 721 OFFCURVE",
"236 721 OFFCURVE",
"130 721 CURVE",
"123 684 OFFCURVE",
"95 547 OFFCURVE",
"57 370 CURVE SMOOTH",
"18 187 OFFCURVE",
"-16 33 OFFCURVE",
"-24 0 CURVE"
);
},
{
closed = 1;
nodes = (
"540 0 LINE",
"515 45 OFFCURVE",
"484 165 OFFCURVE",
"458 339 CURVE",
"302 285 LINE",
"315 129 OFFCURVE",
"332 45 OFFCURVE",
"356 0 CURVE"
);
},
{
closed = 1;
nodes = (
"312 409 OFFCURVE",
"274 409 OFFCURVE",
"238 410 CURVE",
"245 445 OFFCURVE",
"263 530 OFFCURVE",
"275 575 CURVE",
"312 575 OFFCURVE",
"348 575 OFFCURVE",
"385 575 CURVE SMOOTH",
"435 575 OFFCURVE",
"460 549 OFFCURVE",
"448 493 CURVE SMOOTH",
"435 432 OFFCURVE",
"399 409 OFFCURVE",
"349 409 CURVE SMOOTH"
);
}
);
width = 640;
},
{
associatedMasterId = m003;
layerId = "8A7E0FDB-B377-4F0B-8006-E49868B5AB9B";
name = "May 7, 26 at 10:23";
paths = (
{
closed = 1;
nodes = (
"570 283 OFFCURVE",
"540 322 OFFCURVE",
"495 339 CURVE",
"512 345 OFFCURVE",
"599 379 OFFCURVE",
"599 508 CURVE SMOOTH",
"599 638 OFFCURVE",
"515 721 OFFCURVE",
"372 721 CURVE SMOOTH",
"53 721 LINE",
"53 0 LINE",
"229 0 LINE",
"229 267 LINE",
"272 267 LINE SMOOTH",
"365 267 OFFCURVE",
"405 235 OFFCURVE",
"421 146 CURVE SMOOTH",
"441 38 OFFCURVE",
"448 18 OFFCURVE",
"457 0 CURVE",
"652 0 LINE",
"628 30 OFFCURVE",
"598 136 OFFCURVE",
"584 208 CURVE SMOOTH"
);
},
{
closed = 1;
nodes = (
"229 575 LINE",
"339 575 LINE SMOOTH",
"389 575 OFFCURVE",
"420 549 OFFCURVE",
"420 493 CURVE SMOOTH",
"420 432 OFFCURVE",
"389 410 OFFCURVE",
"339 410 CURVE SMOOTH",
"229 410 LINE"
);
}
);
width = 640;
},
{
associatedMasterId = m003;
layerId = "2A4B25B0-188B-4BEF-9FD7-4540C8E8852A";
name = "May 7, 26 at 13:17";
paths = (
{
closed = 1;
nodes = (
"567 282 OFFCURVE",
"540 322 OFFCURVE",
"495 339 CURVE",
"512 345 OFFCURVE",
"599 379 OFFCURVE",
"599 508 CURVE SMOOTH",
"599 638 OFFCURVE",
"515 721 OFFCURVE",
"372 721 CURVE SMOOTH",
"266 721 OFFCURVE",
"159 721 OFFCURVE",
"53 721 CURVE",
"54 684 OFFCURVE",
"55 547 OFFCURVE",
"55 370 CURVE SMOOTH",
"55 187 OFFCURVE",
"54 33 OFFCURVE",
"53 0 CURVE",
"229 0 LINE",
"227 49 OFFCURVE",
"227 208 OFFCURVE",
"227 267 CURVE",
"272 267 LINE SMOOTH",
"364 267 OFFCURVE",
"404 236 OFFCURVE",
"419 153 CURVE SMOOTH",
"428 102 LINE SMOOTH",
"439 38 OFFCURVE",
"447 12 OFFCURVE",
"456 0 CURVE",
"642 0 LINE",
"633 12 OFFCURVE",
"619 59 OFFCURVE",
"603 126 CURVE SMOOTH",
"584 208 LINE SMOOTH"
);
},
{
closed = 1;
nodes = (
"227 445 OFFCURVE",
"227 530 OFFCURVE",
"229 575 CURVE",
"266 575 OFFCURVE",
"302 575 OFFCURVE",
"339 575 CURVE SMOOTH",
"389 575 OFFCURVE",
"420 549 OFFCURVE",
"420 493 CURVE SMOOTH",
"420 432 OFFCURVE",
"389 409 OFFCURVE",
"339 409 CURVE SMOOTH",
"302 409 OFFCURVE",
"264 409 OFFCURVE",
"227 410 CURVE"
);
}
);
width = 640;
},
{
layerId = "4050705C-5704-4184-B7B7-497C68798CAB";
paths = (
{
closed = 1;
nodes = (
"198 0 LINE",
"211 96 OFFCURVE",
"224 192 OFFCURVE",
"237 288 CURVE",
"299 288 LINE SMOOTH",
"341 288 OFFCURVE",
"373 300 OFFCURVE",
"411 311 CURVE SMOOTH",
"506 338 OFFCURVE",
"566 401 OFFCURVE",
"579 499 CURVE SMOOTH",
"601 653 OFFCURVE",
"523 721 OFFCURVE",
"360 721 CURVE SMOOTH",
"273 721 OFFCURVE",
"191 721 OFFCURVE",
"104 721 CURVE",
"100 679 OFFCURVE",
"71 477 OFFCURVE",
"54 355 CURVE SMOOTH",
"38 237 OFFCURVE",
"11 48 OFFCURVE",
"2 0 CURVE"
);
},
{
closed = 1;
nodes = (
"566 0 LINE",
"518 61 OFFCURVE",
"474 188 OFFCURVE",
"451 349 CURVE",
"280 295 LINE",
"296 142 OFFCURVE",
"323 44 OFFCURVE",
"362 0 CURVE"
);
},
{
closed = 1;
nodes = (
"264 475 OFFCURVE",
"269 518 OFFCURVE",
"276 563 CURVE",
"291 563 OFFCURVE",
"307 563 OFFCURVE",
"322 563 CURVE SMOOTH",
"369 563 OFFCURVE",
"390 536 OFFCURVE",
"384 499 CURVE SMOOTH",
"379 459 OFFCURVE",
"351 430 OFFCURVE",
"304 430 CURVE SMOOTH",
"288 430 OFFCURVE",
"273 430 OFFCURVE",
"257 430 CURVE"
);
}
);
width = 601;
},
{
associatedMasterId = "4050705C-5704-4184-B7B7-497C68798CAB";
layerId = "99D74035-CB04-4A62-8090-C94C65E98FFE";
name = "May 6, 26 at 13:26";
paths = (
{
closed = 1;
nodes = (
"539 300 OFFCURVE",
"484 327 OFFCURVE",
"463 335 CURVE",
"463 343 LINE",
"489 357 OFFCURVE",
"565 405 OFFCURVE",
"565 517 CURVE SMOOTH",
"565 651 OFFCURVE",
"477 721 OFFCURVE",
"314 721 CURVE SMOOTH",
"53 721 LINE",
"53 0 LINE",
"249 0 LINE",
"249 288 LINE",
"260 288 LINE SMOOTH",
"332 288 OFFCURVE",
"357 285 OFFCURVE",
"365 198 CURVE SMOOTH",
"379 0 LINE",
"589 0 LINE",
"556 199 LINE SMOOTH"
);
},
{
closed = 1;
nodes = (
"249 420 LINE",
"249 563 LINE",
"294 563 LINE SMOOTH",
"341 563 OFFCURVE",
"365 533 OFFCURVE",
"365 491 CURVE SMOOTH",
"365 450 OFFCURVE",
"341 420 OFFCURVE",
"294 420 CURVE SMOOTH"
);
}
);
width = 601;
},
{
associatedMasterId = "4050705C-5704-4184-B7B7-497C68798CAB";
layerId = "F29B49F5-FF9A-44B5-A81B-EF32FFA92833";
name = "May 8, 26 at 10:05";
paths = (
{
closed = 0;
nodes = (
"365 198 LINE",
"373 132 OFFCURVE",
"374 66 OFFCURVE",
"381 0 CURVE",
"585 0 LINE",
"573 66 OFFCURVE",
"565 133 OFFCURVE",
"556 199 CURVE SMOOTH"
);
},
{
closed = 1;
nodes = (
"248 468 OFFCURVE",
"247 515 OFFCURVE",
"248 563 CURVE",
"294 563 LINE SMOOTH",
"341 563 OFFCURVE",
"365 533 OFFCURVE",
"365 491 CURVE SMOOTH",
"365 450 OFFCURVE",
"341 420 OFFCURVE",
"294 420 CURVE SMOOTH",
"247 420 LINE"
);
},
{
closed = 1;
nodes = (
"565 651 OFFCURVE",
"477 721 OFFCURVE",
"314 721 CURVE SMOOTH",
"53 721 LINE",
"55 679 OFFCURVE",
"55 477 OFFCURVE",
"55 355 CURVE SMOOTH",
"55 237 OFFCURVE",
"55 48 OFFCURVE",
"53 0 CURVE",
"249 0 LINE",
"248 93 OFFCURVE",
"248 185 OFFCURVE",
"247 278 CURVE",
"309 278 LINE SMOOTH",
"504 278 OFFCURVE",
"565 389 OFFCURVE",
"565 514 CURVE SMOOTH"
);
},
{
closed = 1;
nodes = (
"647 0 LINE",
"612 45 OFFCURVE",
"556 165 OFFCURVE",
"493 339 CURVE",
"318 285 LINE",
"364 129 OFFCURVE",
"399 45 OFFCURVE",
"433 0 CURVE"
);
}
);
width = 601;
},
{
layerId = "B0F4357D-9A3D-47FA-BF9B-88CD901EB1E7";
width = 518.5;
},
{
layerId = "8223A6C9-5008-4716-B76D-F393BDA840D5";
paths = (
{
closed = 1;
nodes = (
"77 0 LINE",
"83.75 36.25 OFFCURVE",
"108 152.5 OFFCURVE",
"133.5 274.5 CURVE",
"274.5 274.5 LINE SMOOTH",
"429 274.5 OFFCURVE",
"525.5 368.25 OFFCURVE",
"553.75 500.75 CURVE SMOOTH",
"584.5 644 OFFCURVE",
"525.25 721 OFFCURVE",
"374.75 721 CURVE SMOOTH",
"318.25 721 OFFCURVE",
"223.25 721 OFFCURVE",
"130 721 CURVE",
"122.25 680.25 OFFCURVE",
"92 532.75 OFFCURVE",
"57 370 CURVE SMOOTH",
"21 199 OFFCURVE",
"-15.25 35.25 OFFCURVE",
"-24 0 CURVE"
);
},
{
closed = 1;
nodes = (
"465 0 LINE",
"434 57 OFFCURVE",
"400 188.25 OFFCURVE",
"379.25 339.75 CURVE",
"290 297.75 LINE",
"304.5 162 OFFCURVE",
"326.75 59.25 OFFCURVE",
"353 0 CURVE"
);
},
{
closed = 1;
nodes = (
"231.75 361 OFFCURVE",
"172.75 361 OFFCURVE",
"152.5 362 CURVE",
"176.75 478 OFFCURVE",
"199.25 580.25 OFFCURVE",
"212 632 CURVE",
"242.25 632 OFFCURVE",
"322.5 632 OFFCURVE",
"344.5 632 CURVE SMOOTH",
"435.75 632 OFFCURVE",
"472 588.75 OFFCURVE",
"452.5 496.75 CURVE SMOOTH",
"432 401.25 OFFCURVE",
"381 361 OFFCURVE",
"286.75 361 CURVE SMOOTH"
);
}
);
width = 565;
}
);
note = R;
rightKerningGroup = R;
},
{
glyphname = V.001;
lastChange = "2026-05-29 19:50:48 +0000";
layers = (
{
layerId = m003;
paths = (
{
closed = 1;
nodes = (
"333 0 LINE",
"469 240 OFFCURVE",
"607 481 OFFCURVE",
"747 721 CURVE",
"564 721 LINE",
"483 567 OFFCURVE",
"394 404 OFFCURVE",
"310 250 CURVE",
"310 250 LINE",
"290 407 OFFCURVE",
"271 564 OFFCURVE",
"256 721 CURVE",
"73 721 LINE",
"111 481 OFFCURVE",
"146 240 OFFCURVE",
"180 0 CURVE"
);
}
);
width = 666;
},
{
layerId = "4050705C-5704-4184-B7B7-497C68798CAB";
paths = (
{
closed = 1;
nodes = (
"333 0 LINE",
"436 240 OFFCURVE",
"538 481 OFFCURVE",
"641 721 CURVE",
"428 721 LINE",
"380 571 OFFCURVE",
"333 421 OFFCURVE",
"277 249 CURVE",
"271 399 OFFCURVE",
"266 571 OFFCURVE",
"260 721 CURVE",
"47 721 LINE",
"82 481 OFFCURVE",
"116 240 OFFCURVE",
"151 0 CURVE"
);
}
);
width = 586;
},
{
layerId = "B0F4357D-9A3D-47FA-BF9B-88CD901EB1E7";
paths = (
{
closed = 1;
nodes = (
"333 0 LINE",
"436 240 OFFCURVE",
"538 481 OFFCURVE",
"641 721 CURVE",
"428 721 LINE",
"380 571 OFFCURVE",
"333 421 OFFCURVE",
"277 249 CURVE",
"271 399 OFFCURVE",
"266 571 OFFCURVE",
"260 721 CURVE",
"47 721 LINE",
"82 481 OFFCURVE",
"116 240 OFFCURVE",
"151 0 CURVE"
);
}
);
width = 586;
},
{
layerId = "8223A6C9-5008-4716-B76D-F393BDA840D5";
paths = (
{
closed = 1;
nodes = (
"333 0 LINE",
"469 240 OFFCURVE",
"607 481 OFFCURVE",
"747 721 CURVE",
"564 721 LINE",
"483 567 OFFCURVE",
"394 404 OFFCURVE",
"310 250 CURVE",
"310 250 LINE",
"290 407 OFFCURVE",
"271 564 OFFCURVE",
"256 721 CURVE",
"73 721 LINE",
"111 481 OFFCURVE",
"146 240 OFFCURVE",
"180 0 CURVE"
);
}
);
width = 666;
}
);
leftKerningGroup = V;
note = V;
rightKerningGroup = V;
},
{
glyphname = W.001;
lastChange = "2026-05-29 19:50:48 +0000";
layers = (
{
layerId = m003;
paths = (
{
closed = 1;
nodes = (
"433 406 LINE",
"451 330 LINE",
"486 0 LINE",
"662 0 LINE",
"787 240 OFFCURVE",
"915 481 OFFCURVE",
"1044 721 CURVE",
"852 721 LINE",
"778 560 OFFCURVE",
"702 400 OFFCURVE",
"625 239 CURVE",
"613 400 OFFCURVE",
"602 560 OFFCURVE",
"595 721 CURVE",
"413 721 LINE"
);
},
{
closed = 1;
nodes = (
"484 581 LINE",
"422 463 OFFCURVE",
"358 346 OFFCURVE",
"291 231 CURVE",
"277 394 OFFCURVE",
"265 558 OFFCURVE",
"255 721 CURVE",
"73 721 LINE",
"100 481 OFFCURVE",
"123 240 OFFCURVE",
"146 0 CURVE",
"322 0 LINE",
"384 118 OFFCURVE",
"449 237 OFFCURVE",
"515 355 CURVE"
);
}
);
width = 963;
},
{
layerId = "4050705C-5704-4184-B7B7-497C68798CAB";
paths = (
{
closed = 1;
nodes = (
"375 416 LINE",
"394 308 LINE",
"418 0 LINE",
"623 0 LINE",
"716 240 OFFCURVE",
"808 481 OFFCURVE",
"901 721 CURVE",
"695 721 LINE",
"649 556 OFFCURVE",
"605 391 OFFCURVE",
"560 226 CURVE",
"559 391 OFFCURVE",
"558 556 OFFCURVE",
"558 721 CURVE",
"360 721 LINE"
);
},
{
closed = 1;
nodes = (
"397 598 LINE",
"354 474 OFFCURVE",
"312 350 OFFCURVE",
"268 226 CURVE",
"263 391 OFFCURVE",
"257 556 OFFCURVE",
"253 721 CURVE",
"47 721 LINE",
"72 481 OFFCURVE",
"96 240 OFFCURVE",
"121 0 CURVE",
"326 0 LINE",
"366 117 OFFCURVE",
"406 233 OFFCURVE",
"446 350 CURVE"
);
}
);
width = 846;
},
{
layerId = "B0F4357D-9A3D-47FA-BF9B-88CD901EB1E7";
paths = (
{
closed = 1;
nodes = (
"375 416 LINE",
"394 308 LINE",
"418 0 LINE",
"623 0 LINE",
"716 240 OFFCURVE",
"808 481 OFFCURVE",
"901 721 CURVE",
"695 721 LINE",
"649 556 OFFCURVE",
"605 391 OFFCURVE",
"560 226 CURVE",
"559 391 OFFCURVE",
"558 556 OFFCURVE",
"558 721 CURVE",
"360 721 LINE"
);
},
{
closed = 1;
nodes = (
"397 598 LINE",
"354 474 OFFCURVE",
"312 350 OFFCURVE",
"268 226 CURVE",
"263 391 OFFCURVE",
"257 556 OFFCURVE",
"253 721 CURVE",
"47 721 LINE",
"72 481 OFFCURVE",
"96 240 OFFCURVE",
"121 0 CURVE",
"326 0 LINE",
"366 117 OFFCURVE",
"406 233 OFFCURVE",
"446 350 CURVE"
);
}
);
width = 846;
},
{
layerId = "8223A6C9-5008-4716-B76D-F393BDA840D5";
paths = (
{
closed = 1;
nodes = (
"455.5 406 LINE",
"473.5 330 LINE",
"508.5 0 LINE",
"684.5 0 LINE",
"809.5 240 OFFCURVE",
"937.5 481 OFFCURVE",
"1066.5 721 CURVE",
"874.5 721 LINE",
"800.5 560 OFFCURVE",
"724.5 400 OFFCURVE",
"647.5 239 CURVE",
"635.5 400 OFFCURVE",
"624.5 560 OFFCURVE",
"617.5 721 CURVE",
"435.5 721 LINE"
);
},
{
closed = 1;
nodes = (
"506.5 581 LINE",
"444.5 463 OFFCURVE",
"380.5 346 OFFCURVE",
"313.5 231 CURVE",
"299.5 394 OFFCURVE",
"287.5 558 OFFCURVE",
"277.5 721 CURVE",
"95.5 721 LINE",
"122.5 481 OFFCURVE",
"145.5 240 OFFCURVE",
"168.5 0 CURVE",
"344.5 0 LINE",
"406.5 118 OFFCURVE",
"471.5 237 OFFCURVE",
"537.5 355 CURVE"
);
}
);
width = 1008;
}
);
},
{
glyphname = a;
lastChange = "2026-05-29 19:50:48 +0000";
layers = (
{
layerId = m003;
paths = (
{
closed = 1;
nodes = (
"486 0 LINE",
"557 335 LINE SMOOTH",
"589 482 OFFCURVE",
"517 565 OFFCURVE",
"361 565 CURVE SMOOTH",
"288 565 OFFCURVE",
"213 551 OFFCURVE",
"139 531 CURVE",
"106 378 LINE",
"170 409 OFFCURVE",
"234 421 OFFCURVE",
"299 421 CURVE SMOOTH",
"414 421 OFFCURVE",
"384 349 OFFCURVE",
"384 349 CURVE",
"372 350 OFFCURVE",
"39 392 OFFCURVE",
"-10 160 CURVE SMOOTH",
"-32 58 OFFCURVE",
"23 -11 OFFCURVE",
"143 -11 CURVE SMOOTH",
"291 -11 OFFCURVE",
"338 112 OFFCURVE",
"338 112 CURVE",
"346 112 LINE",
"331 62 LINE SMOOTH",
"325 41 OFFCURVE",
"320 21 OFFCURVE",
"314 0 CURVE"
);
},
{
closed = 1;
nodes = (
"351 173 OFFCURVE",
"305 126 OFFCURVE",
"231 126 CURVE SMOOTH",
"188 126 OFFCURVE",
"166 144 OFFCURVE",
"174 181 CURVE SMOOTH",
"183 226 OFFCURVE",
"240 255 OFFCURVE",
"325 255 CURVE SMOOTH",
"342 255 OFFCURVE",
"357 254 OFFCURVE",
"368 253 CURVE",
"366 244 LINE SMOOTH"
);
}
);
width = 594;
},
{
layerId = "4050705C-5704-4184-B7B7-497C68798CAB";
paths = (
{
closed = 1;
nodes = (
"277 565 OFFCURVE",
"213 554 OFFCURVE",
"146 542 CURVE",
"124 383 LINE",
"177 408 OFFCURVE",
"232 418 OFFCURVE",
"288 418 CURVE SMOOTH",
"392 418 OFFCURVE",
"377 349 OFFCURVE",
"377 349 CURVE",
"364 350 OFFCURVE",
"55 392 OFFCURVE",
"23 160 CURVE SMOOTH",
"8 58 OFFCURVE",
"55 -11 OFFCURVE",
"162 -11 CURVE SMOOTH",
"286 -11 OFFCURVE",
"327 84 OFFCURVE",
"335 107 CURVE",
"342 107 LINE",
"333 62 LINE SMOOTH",
"329 41 OFFCURVE",
"324 21 OFFCURVE",
"320 0 CURVE",
"509 0 LINE",
"557 341 LINE SMOOTH",
"578 488 OFFCURVE",
"517 565 OFFCURVE",
"343 565 CURVE SMOOTH"
);
},
{
closed = 1;
nodes = (
"228 126 OFFCURVE",
"205 152 OFFCURVE",
"210 186 CURVE SMOOTH",
"217 231 OFFCURVE",
"249 255 OFFCURVE",
"318 255 CURVE SMOOTH",
"333 255 OFFCURVE",
"354 254 OFFCURVE",
"364 253 CURVE",
"362 244 LINE SMOOTH",
"352 173 OFFCURVE",
"323 126 OFFCURVE",
"264 126 CURVE SMOOTH"
);
}
);
width = 597;
},
{
layerId = "B0F4357D-9A3D-47FA-BF9B-88CD901EB1E7";
paths = (
{
closed = 1;
nodes = (
"277 565 OFFCURVE",
"213 554 OFFCURVE",
"146 542 CURVE",
"124 383 LINE",
"177 408 OFFCURVE",
"232 418 OFFCURVE",
"288 418 CURVE SMOOTH",
"392 418 OFFCURVE",
"377 349 OFFCURVE",
"377 349 CURVE",
"364 350 OFFCURVE",
"55 392 OFFCURVE",
"23 160 CURVE SMOOTH",
"8 58 OFFCURVE",
"55 -11 OFFCURVE",
"162 -11 CURVE SMOOTH",
"286 -11 OFFCURVE",
"327 84 OFFCURVE",
"335 107 CURVE",
"342 107 LINE",
"333 62 LINE SMOOTH",
"329 41 OFFCURVE",
"324 21 OFFCURVE",
"320 0 CURVE",
"509 0 LINE",
"557 341 LINE SMOOTH",
"578 488 OFFCURVE",
"517 565 OFFCURVE",
"343 565 CURVE SMOOTH"
);
},
{
closed = 1;
nodes = (
"228 126 OFFCURVE",
"205 152 OFFCURVE",
"210 186 CURVE SMOOTH",
"217 231 OFFCURVE",
"249 255 OFFCURVE",
"318 255 CURVE SMOOTH",
"333 255 OFFCURVE",
"354 254 OFFCURVE",
"364 253 CURVE",
"362 244 LINE SMOOTH",
"352 173 OFFCURVE",
"323 126 OFFCURVE",
"264 126 CURVE SMOOTH"
);
}
);
width = 597;
},
{
layerId = "8223A6C9-5008-4716-B76D-F393BDA840D5";
paths = (
{
closed = 1;
nodes = (
"486 0 LINE",
"557 335 LINE SMOOTH",
"589 482 OFFCURVE",
"517 565 OFFCURVE",
"361 565 CURVE SMOOTH",
"288 565 OFFCURVE",
"213 551 OFFCURVE",
"139 531 CURVE",
"106 378 LINE",
"170 409 OFFCURVE",
"234 421 OFFCURVE",
"299 421 CURVE SMOOTH",
"414 421 OFFCURVE",
"384 349 OFFCURVE",
"384 349 CURVE",
"372 350 OFFCURVE",
"39 392 OFFCURVE",
"-10 160 CURVE SMOOTH",
"-32 58 OFFCURVE",
"23 -11 OFFCURVE",
"143 -11 CURVE SMOOTH",
"291 -11 OFFCURVE",
"338 112 OFFCURVE",
"338 112 CURVE",
"346 112 LINE",
"331 62 LINE SMOOTH",
"325 41 OFFCURVE",
"320 21 OFFCURVE",
"314 0 CURVE"
);
},
{
closed = 1;
nodes = (
"351 173 OFFCURVE",
"305 126 OFFCURVE",
"231 126 CURVE SMOOTH",
"188 126 OFFCURVE",
"166 144 OFFCURVE",
"174 181 CURVE SMOOTH",
"183 226 OFFCURVE",
"240 255 OFFCURVE",
"325 255 CURVE SMOOTH",
"342 255 OFFCURVE",
"357 254 OFFCURVE",
"368 253 CURVE",
"366 244 LINE SMOOTH"
);
}
);
width = 594;
}
);
leftKerningGroup = a;
note = a;
rightKerningGroup = a;
unicode = 0061;
},
{
glyphname = b;
lastChange = "2026-05-29 19:50:48 +0000";
layers = (
{
layerId = m003;
paths = (
{
closed = 1;
nodes = (
"149 -3 LINE",
"159 59 LINE",
"165 109 LINE",
"173 109 LINE",
"173 109 OFFCURVE",
"164 -15 OFFCURVE",
"318 -15 CURVE SMOOTH",
"450 -15 OFFCURVE",
"557 106 OFFCURVE",
"592 273 CURVE SMOOTH",
"629 446 OFFCURVE",
"564 561 OFFCURVE",
"436 561 CURVE SMOOTH",
"302 561 OFFCURVE",
"245 447 OFFCURVE",
"245 447 CURVE SMOOTH",
"237 447 LINE",
"252 498 LINE SMOOTH",
"262 531 OFFCURVE",
"270 563 OFFCURVE",
"277 596 CURVE SMOOTH",
"303 718 LINE",
"131 718 LINE",
"-22 -3 LINE"
);
},
{
closed = 1;
nodes = (
"227 363 OFFCURVE",
"280 413 OFFCURVE",
"341 413 CURVE SMOOTH",
"402 413 OFFCURVE",
"432 363 OFFCURVE",
"413 273 CURVE SMOOTH",
"394 183 OFFCURVE",
"343 133 OFFCURVE",
"282 133 CURVE SMOOTH",
"221 133 OFFCURVE",
"189 183 OFFCURVE",
"208 273 CURVE SMOOTH"
);
}
);
width = 628;
},
{
layerId = "4050705C-5704-4184-B7B7-497C68798CAB";
paths = (
{
closed = 1;
nodes = (
"295 565 OFFCURVE",
"255 450 OFFCURVE",
"255 450 CURVE SMOOTH",
"247 450 LINE",
"259 501 LINE SMOOTH",
"266 534 OFFCURVE",
"272 566 OFFCURVE",
"276 599 CURVE SMOOTH",
"293 721 LINE",
"104 721 LINE",
"3 0 LINE",
"192 0 LINE",
"194 21 OFFCURVE",
"196 41 OFFCURVE",
"197 62 CURVE SMOOTH",
"200 107 LINE",
"207 107 LINE",
"207 107 OFFCURVE",
"205 -11 OFFCURVE",
"330 -11 CURVE SMOOTH",
"441 -11 OFFCURVE",
"523 111 OFFCURVE",
"546 279 CURVE SMOOTH",
"569 442 OFFCURVE",
"534 565 OFFCURVE",
"418 565 CURVE SMOOTH"
);
},
{
closed = 1;
nodes = (
"233 151 OFFCURVE",
"211 187 OFFCURVE",
"224 279 CURVE SMOOTH",
"237 371 OFFCURVE",
"269 406 OFFCURVE",
"308 406 CURVE SMOOTH",
"348 406 OFFCURVE",
"370 371 OFFCURVE",
"357 279 CURVE SMOOTH",
"344 187 OFFCURVE",
"312 151 OFFCURVE",
"272 151 CURVE SMOOTH"
);
}
);
width = 586;
},
{
layerId = "B0F4357D-9A3D-47FA-BF9B-88CD901EB1E7";
paths = (
{
closed = 1;
nodes = (
"295 565 OFFCURVE",
"255 450 OFFCURVE",
"255 450 CURVE SMOOTH",
"247 450 LINE",
"259 501 LINE SMOOTH",
"266 534 OFFCURVE",
"272 566 OFFCURVE",
"276 599 CURVE SMOOTH",
"293 721 LINE",
"104 721 LINE",
"3 0 LINE",
"192 0 LINE",
"194 21 OFFCURVE",
"196 41 OFFCURVE",
"197 62 CURVE SMOOTH",
"200 107 LINE",
"207 107 LINE",
"207 107 OFFCURVE",
"205 -11 OFFCURVE",
"330 -11 CURVE SMOOTH",
"441 -11 OFFCURVE",
"523 111 OFFCURVE",
"546 279 CURVE SMOOTH",
"569 442 OFFCURVE",
"534 565 OFFCURVE",
"418 565 CURVE SMOOTH"
);
},
{
closed = 1;
nodes = (
"233 151 OFFCURVE",
"211 187 OFFCURVE",
"224 279 CURVE SMOOTH",
"237 371 OFFCURVE",
"269 406 OFFCURVE",
"308 406 CURVE SMOOTH",
"348 406 OFFCURVE",
"370 371 OFFCURVE",
"357 279 CURVE SMOOTH",
"344 187 OFFCURVE",
"312 151 OFFCURVE",
"272 151 CURVE SMOOTH"
);
}
);
width = 586;
},
{
layerId = "8223A6C9-5008-4716-B76D-F393BDA840D5";
paths = (
{
closed = 1;
nodes = (
"149 -3 LINE",
"159 59 LINE",
"165 109 LINE",
"173 109 LINE",
"173 109 OFFCURVE",
"164 -15 OFFCURVE",
"318 -15 CURVE SMOOTH",
"450 -15 OFFCURVE",
"557 106 OFFCURVE",
"592 273 CURVE SMOOTH",
"629 446 OFFCURVE",
"564 561 OFFCURVE",
"436 561 CURVE SMOOTH",
"302 561 OFFCURVE",
"245 447 OFFCURVE",
"245 447 CURVE SMOOTH",
"237 447 LINE",
"252 498 LINE SMOOTH",
"262 531 OFFCURVE",
"270 563 OFFCURVE",
"277 596 CURVE SMOOTH",
"303 718 LINE",
"131 718 LINE",
"-22 -3 LINE"
);
},
{
closed = 1;
nodes = (
"227 363 OFFCURVE",
"280 413 OFFCURVE",
"341 413 CURVE SMOOTH",
"402 413 OFFCURVE",
"432 363 OFFCURVE",
"413 273 CURVE SMOOTH",
"394 183 OFFCURVE",
"343 133 OFFCURVE",
"282 133 CURVE SMOOTH",
"221 133 OFFCURVE",
"189 183 OFFCURVE",
"208 273 CURVE SMOOTH"
);
}
);
width = 628;
}
);
note = b;
rightKerningGroup = b;
unicode = 0062;
},
{
glyphname = c;
lastChange = "2026-05-29 19:50:48 +0000";
layers = (
{
layerId = m003;
paths = (
{
closed = 1;
nodes = (
"309 -11 OFFCURVE",
"374 5 OFFCURVE",
"442 21 CURVE",
"475 178 LINE",
"417 150 OFFCURVE",
"358 137 OFFCURVE",
"299 137 CURVE SMOOTH",
"215 137 OFFCURVE",
"184 180 OFFCURVE",
"205 277 CURVE SMOOTH",
"226 374 OFFCURVE",
"275 417 OFFCURVE",
"359 417 CURVE SMOOTH",
"418 417 OFFCURVE",
"467 397 OFFCURVE",
"517 376 CURVE",
"550 533 LINE",
"495 557 OFFCURVE",
"431 565 OFFCURVE",
"365 565 CURVE SMOOTH",
"174 565 OFFCURVE",
"60 437 OFFCURVE",
"26 277 CURVE SMOOTH",
"-8 117 OFFCURVE",
"52 -11 OFFCURVE",
"243 -11 CURVE SMOOTH"
);
}
);
width = 523;
},
{
layerId = "4050705C-5704-4184-B7B7-497C68798CAB";
paths = (
{
closed = 1;
nodes = (
"304 -9 OFFCURVE",
"355 -3 OFFCURVE",
"406 11 CURVE",
"431 185 LINE",
"389 165 OFFCURVE",
"350 147 OFFCURVE",
"306 147 CURVE SMOOTH",
"235 147 OFFCURVE",
"211 191 OFFCURVE",
"223 280 CURVE SMOOTH",
"235 368 OFFCURVE",
"273 412 OFFCURVE",
"344 412 CURVE SMOOTH",
"387 412 OFFCURVE",
"425 400 OFFCURVE",
"458 376 CURVE",
"482 548 LINE",
"433 558 OFFCURVE",
"386 568 OFFCURVE",
"335 568 CURVE SMOOTH",
"180 568 OFFCURVE",
"59 457 OFFCURVE",
"34 280 CURVE SMOOTH",
"9 102 OFFCURVE",
"98 -9 OFFCURVE",
"253 -9 CURVE SMOOTH"
);
}
);
width = 495;
},
{
layerId = "B0F4357D-9A3D-47FA-BF9B-88CD901EB1E7";
paths = (
{
closed = 1;
nodes = (
"304 -9 OFFCURVE",
"355 -3 OFFCURVE",
"406 11 CURVE",
"431 185 LINE",
"389 165 OFFCURVE",
"350 147 OFFCURVE",
"306 147 CURVE SMOOTH",
"235 147 OFFCURVE",
"211 191 OFFCURVE",
"223 280 CURVE SMOOTH",
"235 368 OFFCURVE",
"273 412 OFFCURVE",
"344 412 CURVE SMOOTH",
"387 412 OFFCURVE",
"425 400 OFFCURVE",
"458 376 CURVE",
"482 548 LINE",
"433 558 OFFCURVE",
"386 568 OFFCURVE",
"335 568 CURVE SMOOTH",
"180 568 OFFCURVE",
"59 457 OFFCURVE",
"34 280 CURVE SMOOTH",
"9 102 OFFCURVE",
"98 -9 OFFCURVE",
"253 -9 CURVE SMOOTH"
);
}
);
width = 495;
},
{
layerId = "8223A6C9-5008-4716-B76D-F393BDA840D5";
paths = (
{
closed = 1;
nodes = (
"309 -11 OFFCURVE",
"374 5 OFFCURVE",
"442 21 CURVE",
"475 178 LINE",
"417 150 OFFCURVE",
"358 137 OFFCURVE",
"299 137 CURVE SMOOTH",
"215 137 OFFCURVE",
"184 180 OFFCURVE",
"205 277 CURVE SMOOTH",
"226 374 OFFCURVE",
"275 417 OFFCURVE",
"359 417 CURVE SMOOTH",
"418 417 OFFCURVE",
"467 397 OFFCURVE",
"517 376 CURVE",
"550 533 LINE",
"495 557 OFFCURVE",
"431 565 OFFCURVE",
"365 565 CURVE SMOOTH",
"174 565 OFFCURVE",
"60 437 OFFCURVE",
"26 277 CURVE SMOOTH",
"-8 117 OFFCURVE",
"52 -11 OFFCURVE",
"243 -11 CURVE SMOOTH"
);
}
);
width = 523;
}
);
leftKerningGroup = c;
note = c;
rightKerningGroup = c;
unicode = 0063;
},
{
glyphname = d;
lastChange = "2026-05-29 19:50:48 +0000";
layers = (
{
layerId = m003;
paths = (
{
closed = 1;
nodes = (
"361 85 LINE",
"348 43 LINE",
"336 -3 LINE",
"507 -3 LINE",
"660 718 LINE",
"488 718 LINE",
"462 594 LINE SMOOTH",
"455 563 OFFCURVE",
"449 531 OFFCURVE",
"446 501 CURVE SMOOTH",
"441 459 LINE",
"433 459 LINE SMOOTH",
"433 459 OFFCURVE",
"421 561 OFFCURVE",
"296 561 CURVE SMOOTH",
"168 561 OFFCURVE",
"46 446 OFFCURVE",
"9 273 CURVE SMOOTH",
"-26 106 OFFCURVE",
"37 -15 OFFCURVE",
"172 -15 CURVE SMOOTH",
"297 -15 OFFCURVE",
"353 85 OFFCURVE",
"353 85 CURVE"
);
},
{
closed = 1;
nodes = (
"200 133 OFFCURVE",
"169 183 OFFCURVE",
"188 273 CURVE SMOOTH",
"207 363 OFFCURVE",
"259 413 OFFCURVE",
"320 413 CURVE SMOOTH",
"381 413 OFFCURVE",
"412 363 OFFCURVE",
"393 273 CURVE SMOOTH",
"374 183 OFFCURVE",
"322 133 OFFCURVE",
"261 133 CURVE SMOOTH"
);
}
);
width = 635;
},
{
layerId = "4050705C-5704-4184-B7B7-497C68798CAB";
paths = (
{
closed = 1;
nodes = (
"-4 111 OFFCURVE",
"51 -11 OFFCURVE",
"162 -11 CURVE",
"282 -11 OFFCURVE",
"310 107 OFFCURVE",
"310 107 CURVE",
"317 107 LINE",
"308 62 LINE",
"303 41 OFFCURVE",
"299 21 OFFCURVE",
"295 0 CURVE",
"484 0 LINE",
"585 721 LINE",
"396 721 LINE",
"379 599 LINE",
"375 566 OFFCURVE",
"371 534 OFFCURVE",
"370 501 CURVE",
"366 450 LINE",
"358 450 LINE",
"358 450 OFFCURVE",
"362 565 OFFCURVE",
"239 565 CURVE",
"123 565 OFFCURVE",
"42 442 OFFCURVE",
"19 279 CURVE"
);
},
{
closed = 1;
nodes = (
"221 371 OFFCURVE",
"253 406 OFFCURVE",
"293 406 CURVE SMOOTH",
"332 406 OFFCURVE",
"354 371 OFFCURVE",
"341 279 CURVE SMOOTH",
"328 187 OFFCURVE",
"296 151 OFFCURVE",
"257 151 CURVE SMOOTH",
"217 151 OFFCURVE",
"195 187 OFFCURVE",
"208 279 CURVE SMOOTH"
);
}
);
width = 587;
},
{
layerId = "B0F4357D-9A3D-47FA-BF9B-88CD901EB1E7";
paths = (
{
closed = 1;
nodes = (
"-4 111 OFFCURVE",
"51 -11 OFFCURVE",
"162 -11 CURVE",
"282 -11 OFFCURVE",
"310 107 OFFCURVE",
"310 107 CURVE",
"317 107 LINE",
"308 62 LINE",
"303 41 OFFCURVE",
"299 21 OFFCURVE",
"295 0 CURVE",
"484 0 LINE",
"585 721 LINE",
"396 721 LINE",
"379 599 LINE",
"375 566 OFFCURVE",
"371 534 OFFCURVE",
"370 501 CURVE",
"366 450 LINE",
"358 450 LINE",
"358 450 OFFCURVE",
"362 565 OFFCURVE",
"239 565 CURVE",
"123 565 OFFCURVE",
"42 442 OFFCURVE",
"19 279 CURVE"
);
},
{
closed = 1;
nodes = (
"221 371 OFFCURVE",
"253 406 OFFCURVE",
"293 406 CURVE SMOOTH",
"332 406 OFFCURVE",
"354 371 OFFCURVE",
"341 279 CURVE SMOOTH",
"328 187 OFFCURVE",
"296 151 OFFCURVE",
"257 151 CURVE SMOOTH",
"217 151 OFFCURVE",
"195 187 OFFCURVE",
"208 279 CURVE SMOOTH"
);
}
);
width = 587;
},
{
layerId = "8223A6C9-5008-4716-B76D-F393BDA840D5";
paths = (
{
closed = 1;
nodes = (
"361 85 LINE",
"348 43 LINE",
"336 -3 LINE",
"507 -3 LINE",
"660 718 LINE",
"488 718 LINE",
"462 594 LINE SMOOTH",
"455 563 OFFCURVE",
"449 531 OFFCURVE",
"446 501 CURVE SMOOTH",
"441 459 LINE",
"433 459 LINE SMOOTH",
"433 459 OFFCURVE",
"421 561 OFFCURVE",
"296 561 CURVE SMOOTH",
"168 561 OFFCURVE",
"46 446 OFFCURVE",
"9 273 CURVE SMOOTH",
"-26 106 OFFCURVE",
"37 -15 OFFCURVE",
"172 -15 CURVE SMOOTH",
"297 -15 OFFCURVE",
"353 85 OFFCURVE",
"353 85 CURVE"
);
},
{
closed = 1;
nodes = (
"200 133 OFFCURVE",
"169 183 OFFCURVE",
"188 273 CURVE SMOOTH",
"207 363 OFFCURVE",
"259 413 OFFCURVE",
"320 413 CURVE SMOOTH",
"381 413 OFFCURVE",
"412 363 OFFCURVE",
"393 273 CURVE SMOOTH",
"374 183 OFFCURVE",
"322 133 OFFCURVE",
"261 133 CURVE SMOOTH"
);
}
);
width = 635;
}
);
leftKerningGroup = d;
note = d;
rightKerningGroup = d;
unicode = 0064;
},
{
color = 1;
glyphname = e;
lastChange = "2026-05-29 19:50:48 +0000";
layers = (
{
layerId = m003;
paths = (
{
closed = 1;
nodes = (
"417 -11 OFFCURVE",
"495 0 OFFCURVE",
"569 32 CURVE",
"581 88 OFFCURVE",
"593 144 OFFCURVE",
"605 200 CURVE",
"528 169 OFFCURVE",
"452 159 OFFCURVE",
"373 159 CURVE SMOOTH",
"254 159 OFFCURVE",
"216 189 OFFCURVE",
"211 228 CURVE",
"357 228 OFFCURVE",
"503 228 OFFCURVE",
"650 228 CURVE",
"655 244 OFFCURVE",
"660 260 OFFCURVE",
"663 277 CURVE SMOOTH",
"690 431 OFFCURVE",
"599 565 OFFCURVE",
"383 565 CURVE SMOOTH",
"160 565 OFFCURVE",
"45 437 OFFCURVE",
"17 295 CURVE SMOOTH",
"-17 117 OFFCURVE",
"90 -11 OFFCURVE",
"327 -11 CURVE SMOOTH"
);
},
{
closed = 1;
nodes = (
"253 368 OFFCURVE",
"297 395 OFFCURVE",
"368 395 CURVE SMOOTH",
"438 395 OFFCURVE",
"467 368 OFFCURVE",
"470 322 CURVE",
"390 322 OFFCURVE",
"310 322 OFFCURVE",
"231 322 CURVE"
);
}
);
width = 667;
},
{
layerId = "4050705C-5704-4184-B7B7-497C68798CAB";
paths = (
{
closed = 1;
nodes = (
"303 -9 OFFCURVE",
"373 1 OFFCURVE",
"416 19 CURVE",
"423 72 OFFCURVE",
"431 125 OFFCURVE",
"440 178 CURVE",
"388 150 OFFCURVE",
"343 138 OFFCURVE",
"291 138 CURVE SMOOTH",
"223 138 OFFCURVE",
"190 165 OFFCURVE",
"190 230 CURVE",
"294 232 OFFCURVE",
"394 232 OFFCURVE",
"501 230 CURVE",
"505 246 OFFCURVE",
"508 262 OFFCURVE",
"510 278 CURVE SMOOTH",
"533 440 OFFCURVE",
"465 567 OFFCURVE",
"294 567 CURVE SMOOTH",
"118 567 OFFCURVE",
"35 440 OFFCURVE",
"12 278 CURVE SMOOTH",
"-14 96 OFFCURVE",
"74 -9 OFFCURVE",
"257 -9 CURVE SMOOTH"
);
},
{
closed = 1;
nodes = (
"213 393 OFFCURVE",
"250 420 OFFCURVE",
"281 420 CURVE SMOOTH",
"310 420 OFFCURVE",
"338 394 OFFCURVE",
"330 324 CURVE",
"288 322 OFFCURVE",
"246 322 OFFCURVE",
"204 324 CURVE"
);
}
);
width = 516;
},
{
associatedMasterId = m003;
layerId = "79144B7C-02DA-44A2-9835-328DD0937057";
name = "May 20, 26 at 16:48";
paths = (
{
closed = 1;
nodes = (
"386 -11 OFFCURVE",
"455 10 OFFCURVE",
"526 32 CURVE",
"526 180 LINE",
"466 145 OFFCURVE",
"401 129 OFFCURVE",
"331 129 CURVE SMOOTH",
"245 129 OFFCURVE",
"203 167 OFFCURVE",
"198 228 CURVE",
"567 228 LINE",
"569 244 OFFCURVE",
"570 260 OFFCURVE",
"570 277 CURVE SMOOTH",
"570 431 OFFCURVE",
"489 565 OFFCURVE",
"299 565 CURVE SMOOTH",
"118 565 OFFCURVE",
"21 437 OFFCURVE",
"21 277 CURVE SMOOTH",
"21 117 OFFCURVE",
"120 -11 OFFCURVE",
"311 -11 CURVE SMOOTH"
);
},
{
closed = 1;
nodes = (
"208 386 OFFCURVE",
"240 425 OFFCURVE",
"299 425 CURVE SMOOTH",
"358 425 OFFCURVE",
"387 386 OFFCURVE",
"397 322 CURVE",
"198 322 LINE"
);
},
{
closed = 1;
nodes = (
"591 -11 OFFCURVE",
"695 117 OFFCURVE",
"695 277 CURVE SMOOTH",
"695 437 OFFCURVE",
"591 565 OFFCURVE",
"363 565 CURVE SMOOTH",
"134 565 OFFCURVE",
"29 437 OFFCURVE",
"29 277 CURVE SMOOTH",
"29 117 OFFCURVE",
"134 -11 OFFCURVE",
"363 -11 CURVE SMOOTH"
);
},
{
closed = 1;
nodes = (
"286 157 OFFCURVE",
"238 200 OFFCURVE",
"238 277 CURVE SMOOTH",
"238 354 OFFCURVE",
"286 397 OFFCURVE",
"363 397 CURVE SMOOTH",
"439 397 OFFCURVE",
"486 354 OFFCURVE",
"486 277 CURVE SMOOTH",
"486 200 OFFCURVE",
"439 157 OFFCURVE",
"363 157 CURVE SMOOTH"
);
}
);
visible = 1;
width = 591;
},
{
layerId = "B0F4357D-9A3D-47FA-BF9B-88CD901EB1E7";
paths = (
{
closed = 1;
nodes = (
"254 -9 OFFCURVE",
"295 0.667 OFFCURVE",
"333 19 CURVE",
"337.667 52 OFFCURVE",
"342.667 85 OFFCURVE",
"348 118 CURVE",
"308.667 90 OFFCURVE",
"267.333 78 OFFCURVE",
"219.333 78 CURVE SMOOTH",
"140 78 OFFCURVE",
"101 123.333 OFFCURVE",
"105.333 229.667 CURVE",
"209 231.667 OFFCURVE",
"311 231.667 OFFCURVE",
"415.667 229.667 CURVE",
"420 245 OFFCURVE",
"422.667 262 OFFCURVE",
"424.667 278 CURVE SMOOTH",
"446.667 440 OFFCURVE",
"389.333 567 OFFCURVE",
"255.667 567 CURVE SMOOTH",
"107.667 567 OFFCURVE",
"32.667 442 OFFCURVE",
"9.333 278 CURVE SMOOTH",
"-16.667 96 OFFCURVE",
"58 -9 OFFCURVE",
"200.667 -9 CURVE SMOOTH"
);
},
{
closed = 1;
nodes = (
"132.333 415.333 OFFCURVE",
"184 480 OFFCURVE",
"244 480 CURVE SMOOTH",
"305 480 OFFCURVE",
"339.333 416.333 OFFCURVE",
"328.333 310 CURVE",
"257.333 308.667 OFFCURVE",
"188 308.667 OFFCURVE",
"116.667 310 CURVE"
);
}
);
width = 437;
},
{
layerId = "8223A6C9-5008-4716-B76D-F393BDA840D5";
paths = (
{
closed = 1;
nodes = (
"368.333 -9.333 OFFCURVE",
"442 8.333 OFFCURVE",
"492.333 32.333 CURVE",
"503.333 84.333 OFFCURVE",
"507.333 107 OFFCURVE",
"514.333 137 CURVE",
"458.667 103.667 OFFCURVE",
"382.667 84 OFFCURVE",
"304.667 84 CURVE SMOOTH",
"175.667 84 OFFCURVE",
"109.667 138.667 OFFCURVE",
"110.333 229.667 CURVE",
"243.333 231.333 OFFCURVE",
"484.333 231.333 OFFCURVE",
"595.333 229.667 CURVE",
"600 244.667 OFFCURVE",
"604.667 258.333 OFFCURVE",
"607.667 277.667 CURVE SMOOTH",
"635 447 OFFCURVE",
"528.333 566.667 OFFCURVE",
"357.333 566.667 CURVE SMOOTH",
"176 566.667 OFFCURVE",
"42.333 451.333 OFFCURVE",
"12.333 283 CURVE SMOOTH",
"-19.333 104.333 OFFCURVE",
"88.667 -9.333 OFFCURVE",
"291.667 -9.333 CURVE SMOOTH"
);
},
{
closed = 1;
nodes = (
"158.333 418.667 OFFCURVE",
"242 473 OFFCURVE",
"346.667 473 CURVE SMOOTH",
"454 473 OFFCURVE",
"518.667 415 OFFCURVE",
"509.667 310.667 CURVE",
"413 310 OFFCURVE",
"219 310 OFFCURVE",
"125 310.667 CURVE"
);
}
);
width = 613.33333;
}
);
leftKerningGroup = e;
leftMetricsKey = o;
note = e;
rightKerningGroup = e;
unicode = 0065;
},
{
glyphname = f;
lastChange = "2026-05-29 19:50:48 +0000";
layers = (
{
layerId = m003;
paths = (
{
closed = 1;
nodes = (
"419 605 OFFCURVE",
"453 596 OFFCURVE",
"487 586 CURVE",
"528 722 LINE",
"481 733 OFFCURVE",
"433 740 OFFCURVE",
"382 740 CURVE SMOOTH",
"251 740 OFFCURVE",
"165 680 OFFCURVE",
"137 550 CURVE",
"61 550 LINE",
"30 405 LINE",
"106 405 LINE",
"20 0 LINE",
"192 0 LINE",
"278 405 LINE",
"426 405 LINE",
"457 550 LINE",
"309 550 LINE",
"317 586 OFFCURVE",
"346 605 OFFCURVE",
"382 605 CURVE SMOOTH"
);
}
);
width = 465;
},
{
layerId = "4050705C-5704-4184-B7B7-497C68798CAB";
paths = (
{
closed = 1;
nodes = (
"428 609 OFFCURVE",
"456 602 OFFCURVE",
"483 594 CURVE",
"516 737 LINE",
"468 750 OFFCURVE",
"419 755 OFFCURVE",
"368 755 CURVE SMOOTH",
"237 755 OFFCURVE",
"154 684 OFFCURVE",
"136 554 CURVE",
"48 554 LINE",
"28 416 LINE",
"116 416 LINE",
"58 0 LINE",
"247 0 LINE",
"305 416 LINE",
"426 416 LINE",
"446 554 LINE",
"325 554 LINE",
"330 591 OFFCURVE",
"361 609 OFFCURVE",
"398 609 CURVE SMOOTH"
);
}
);
width = 477;
},
{
layerId = "B0F4357D-9A3D-47FA-BF9B-88CD901EB1E7";
paths = (
{
closed = 1;
nodes = (
"428 609 OFFCURVE",
"456 602 OFFCURVE",
"483 594 CURVE",
"516 737 LINE",
"468 750 OFFCURVE",
"419 755 OFFCURVE",
"368 755 CURVE SMOOTH",
"237 755 OFFCURVE",
"154 684 OFFCURVE",
"136 554 CURVE",
"48 554 LINE",
"28 416 LINE",
"116 416 LINE",
"58 0 LINE",
"247 0 LINE",
"305 416 LINE",
"426 416 LINE",
"446 554 LINE",
"325 554 LINE",
"330 591 OFFCURVE",
"361 609 OFFCURVE",
"398 609 CURVE SMOOTH"
);
}
);
width = 477;
},
{
layerId = "8223A6C9-5008-4716-B76D-F393BDA840D5";
paths = (
{
closed = 1;
nodes = (
"419 605 OFFCURVE",
"453 596 OFFCURVE",
"487 586 CURVE",
"528 722 LINE",
"481 733 OFFCURVE",
"433 740 OFFCURVE",
"382 740 CURVE SMOOTH",
"251 740 OFFCURVE",
"165 680 OFFCURVE",
"137 550 CURVE",
"61 550 LINE",
"30 405 LINE",
"106 405 LINE",
"20 0 LINE",
"192 0 LINE",
"278 405 LINE",
"426 405 LINE",
"457 550 LINE",
"309 550 LINE",
"317 586 OFFCURVE",
"346 605 OFFCURVE",
"382 605 CURVE SMOOTH"
);
}
);
width = 465;
}
);
leftKerningGroup = f;
note = f;
rightKerningGroup = f;
unicode = 0066;
},
{
glyphname = g;
lastChange = "2026-05-29 19:50:48 +0000";
layers = (
{
layerId = m003;
paths = (
{
closed = 1;
nodes = (
"493 551 LINE",
"490 530 OFFCURVE",
"487 510 OFFCURVE",
"484 489 CURVE SMOOTH",
"477 439 LINE",
"469 439 LINE SMOOTH",
"469 439 OFFCURVE",
"484 563 OFFCURVE",
"336 563 CURVE SMOOTH",
"208 563 OFFCURVE",
"88 450 OFFCURVE",
"51 277 CURVE SMOOTH",
"16 110 OFFCURVE",
"84 15 OFFCURVE",
"219 15 CURVE SMOOTH",
"366 15 OFFCURVE",
"406 139 OFFCURVE",
"406 139 CURVE",
"414 139 LINE",
"414 139 OFFCURVE",
"403 110 OFFCURVE",
"397 89 CURVE SMOOTH",
"392 68 OFFCURVE",
"388 50 OFFCURVE",
"385 40 CURVE",
"368 -30 OFFCURVE",
"296 -62 OFFCURVE",
"210 -62 CURVE SMOOTH",
"148 -62 OFFCURVE",
"102 -39 OFFCURVE",
"51 -13 CURVE",
"15 -183 LINE",
"73 -212 OFFCURVE",
"141 -216 OFFCURVE",
"211 -216 CURVE SMOOTH",
"386 -216 OFFCURVE",
"520 -131 OFFCURVE",
"559 50 CURVE SMOOTH",
"665 551 LINE"
);
},
{
closed = 1;
nodes = (
"244 161 OFFCURVE",
"215 207 OFFCURVE",
"233 289 CURVE SMOOTH",
"250 371 OFFCURVE",
"299 417 OFFCURVE",
"363 417 CURVE SMOOTH",
"426 417 OFFCURVE",
"455 371 OFFCURVE",
"438 289 CURVE SMOOTH",
"420 207 OFFCURVE",
"371 161 OFFCURVE",
"308 161 CURVE SMOOTH"
);
}
);
width = 637;
},
{
layerId = "4050705C-5704-4184-B7B7-497C68798CAB";
paths = (
{
closed = 1;
nodes = (
"396 538 OFFCURVE",
"395 521 OFFCURVE",
"394 503 CURVE SMOOTH",
"391 452 LINE",
"383 452 LINE SMOOTH",
"383 452 OFFCURVE",
"386 567 OFFCURVE",
"263 567 CURVE SMOOTH",
"147 567 OFFCURVE",
"66 444 OFFCURVE",
"43 281 CURVE SMOOTH",
"20 113 OFFCURVE",
"76 2 OFFCURVE",
"187 2 CURVE SMOOTH",
"302 2 OFFCURVE",
"334 109 OFFCURVE",
"334 109 CURVE",
"341 109 LINE",
"332 64 LINE",
"330 58 OFFCURVE",
"329 51 OFFCURVE",
"327 45 CURVE",
"314 -26 OFFCURVE",
"272 -64 OFFCURVE",
"189 -64 CURVE SMOOTH",
"145 -64 OFFCURVE",
"108 -51 OFFCURVE",
"68 -37 CURVE",
"45 -196 LINE",
"91 -207 OFFCURVE",
"139 -211 OFFCURVE",
"187 -211 CURVE SMOOTH",
"362 -211 OFFCURVE",
"490 -126 OFFCURVE",
"516 55 CURVE SMOOTH",
"586 556 LINE",
"398 556 LINE"
);
},
{
closed = 1;
nodes = (
"241 153 OFFCURVE",
"220 189 OFFCURVE",
"232 281 CURVE SMOOTH",
"245 373 OFFCURVE",
"277 408 OFFCURVE",
"317 408 CURVE SMOOTH",
"356 408 OFFCURVE",
"378 373 OFFCURVE",
"365 281 CURVE SMOOTH",
"353 189 OFFCURVE",
"320 153 OFFCURVE",
"281 153 CURVE SMOOTH"
);
}
);
width = 586;
},
{
layerId = "B0F4357D-9A3D-47FA-BF9B-88CD901EB1E7";
paths = (
{
closed = 1;
nodes = (
"396 538 OFFCURVE",
"395 521 OFFCURVE",
"394 503 CURVE SMOOTH",
"391 452 LINE",
"383 452 LINE SMOOTH",
"383 452 OFFCURVE",
"386 567 OFFCURVE",
"263 567 CURVE SMOOTH",
"147 567 OFFCURVE",
"66 444 OFFCURVE",
"43 281 CURVE SMOOTH",
"20 113 OFFCURVE",
"76 2 OFFCURVE",
"187 2 CURVE SMOOTH",
"302 2 OFFCURVE",
"334 109 OFFCURVE",
"334 109 CURVE",
"341 109 LINE",
"332 64 LINE",
"330 58 OFFCURVE",
"329 51 OFFCURVE",
"327 45 CURVE",
"314 -26 OFFCURVE",
"272 -64 OFFCURVE",
"189 -64 CURVE SMOOTH",
"145 -64 OFFCURVE",
"108 -51 OFFCURVE",
"68 -37 CURVE",
"45 -196 LINE",
"91 -207 OFFCURVE",
"139 -211 OFFCURVE",
"187 -211 CURVE SMOOTH",
"362 -211 OFFCURVE",
"490 -126 OFFCURVE",
"516 55 CURVE SMOOTH",
"586 556 LINE",
"398 556 LINE"
);
},
{
closed = 1;
nodes = (
"241 153 OFFCURVE",
"220 189 OFFCURVE",
"232 281 CURVE SMOOTH",
"245 373 OFFCURVE",
"277 408 OFFCURVE",
"317 408 CURVE SMOOTH",
"356 408 OFFCURVE",
"378 373 OFFCURVE",
"365 281 CURVE SMOOTH",
"353 189 OFFCURVE",
"320 153 OFFCURVE",
"281 153 CURVE SMOOTH"
);
}
);
width = 586;
},
{
layerId = "8223A6C9-5008-4716-B76D-F393BDA840D5";
paths = (
{
closed = 1;
nodes = (
"493 551 LINE",
"490 530 OFFCURVE",
"487 510 OFFCURVE",
"484 489 CURVE SMOOTH",
"477 439 LINE",
"469 439 LINE SMOOTH",
"469 439 OFFCURVE",
"484 563 OFFCURVE",
"336 563 CURVE SMOOTH",
"208 563 OFFCURVE",
"88 450 OFFCURVE",
"51 277 CURVE SMOOTH",
"16 110 OFFCURVE",
"84 15 OFFCURVE",
"219 15 CURVE SMOOTH",
"366 15 OFFCURVE",
"406 139 OFFCURVE",
"406 139 CURVE",
"414 139 LINE",
"414 139 OFFCURVE",
"403 110 OFFCURVE",
"397 89 CURVE SMOOTH",
"392 68 OFFCURVE",
"388 50 OFFCURVE",
"385 40 CURVE",
"368 -30 OFFCURVE",
"296 -62 OFFCURVE",
"210 -62 CURVE SMOOTH",
"148 -62 OFFCURVE",
"102 -39 OFFCURVE",
"51 -13 CURVE",
"15 -183 LINE",
"73 -212 OFFCURVE",
"141 -216 OFFCURVE",
"211 -216 CURVE SMOOTH",
"386 -216 OFFCURVE",
"520 -131 OFFCURVE",
"559 50 CURVE SMOOTH",
"665 551 LINE"
);
},
{
closed = 1;
nodes = (
"244 161 OFFCURVE",
"215 207 OFFCURVE",
"233 289 CURVE SMOOTH",
"250 371 OFFCURVE",
"299 417 OFFCURVE",
"363 417 CURVE SMOOTH",
"426 417 OFFCURVE",
"455 371 OFFCURVE",
"438 289 CURVE SMOOTH",
"420 207 OFFCURVE",
"371 161 OFFCURVE",
"308 161 CURVE SMOOTH"
);
}
);
width = 637;
}
);
leftKerningGroup = g;
note = g;
rightKerningGroup = g;
unicode = 0067;
},
{
color = 1;
glyphname = h;
lastChange = "2026-05-29 19:50:48 +0000";
layers = (
{
layerId = m003;
paths = (
{
closed = 1;
nodes = (
"201 0 LINE",
"218 89 OFFCURVE",
"234 178 OFFCURVE",
"253 267 CURVE SMOOTH",
"271 352 OFFCURVE",
"328 405 OFFCURVE",
"416 405 CURVE SMOOTH",
"481 405 OFFCURVE",
"510 372 OFFCURVE",
"497 304 CURVE SMOOTH",
"477 203 OFFCURVE",
"454 101 OFFCURVE",
"432 0 CURVE",
"664 0 LINE",
"686 109 OFFCURVE",
"710 219 OFFCURVE",
"727 297 CURVE SMOOTH",
"763 461 OFFCURVE",
"694 564 OFFCURVE",
"550 564 CURVE SMOOTH",
"432 564 OFFCURVE",
"361 524 OFFCURVE",
"290 448 CURVE",
"298 487 OFFCURVE",
"328 628 OFFCURVE",
"355 722 CURVE",
"123 722 LINE",
"86 527 OFFCURVE",
"10 184 OFFCURVE",
"-31 0 CURVE"
);
}
);
width = 750;
},
{
layerId = "4050705C-5704-4184-B7B7-497C68798CAB";
paths = (
{
closed = 1;
nodes = (
"179 0 LINE",
"192 99 OFFCURVE",
"205 198 OFFCURVE",
"216 266 CURVE SMOOTH",
"232 355 OFFCURVE",
"261 406 OFFCURVE",
"304 406 CURVE SMOOTH",
"336 406 OFFCURVE",
"350 377 OFFCURVE",
"342 317 CURVE SMOOTH",
"327 211 OFFCURVE",
"310 106 OFFCURVE",
"295 0 CURVE",
"484 0 LINE",
"500 119 OFFCURVE",
"515 237 OFFCURVE",
"528 328 CURVE SMOOTH",
"554 504 OFFCURVE",
"495 565 OFFCURVE",
"412 565 CURVE SMOOTH",
"333 565 OFFCURVE",
"275 522 OFFCURVE",
"237 439 CURVE",
"244 485 OFFCURVE",
"256 570 OFFCURVE",
"280 722 CURVE",
"91 722 LINE",
"62 490 OFFCURVE",
"19 185 OFFCURVE",
"-10 0 CURVE"
);
}
);
width = 549;
},
{
layerId = "B0F4357D-9A3D-47FA-BF9B-88CD901EB1E7";
paths = (
{
closed = 1;
nodes = (
"86.75 0 LINE",
"99.75 108 OFFCURVE",
"113.5 217.5 OFFCURVE",
"128.25 317.75 CURVE SMOOTH",
"141.25 400 OFFCURVE",
"192 474.25 OFFCURVE",
"271 474.25 CURVE SMOOTH",
"329.25 474.25 OFFCURVE",
"353 439.25 OFFCURVE",
"342 353 CURVE SMOOTH",
"326.25 235 OFFCURVE",
"307 118 OFFCURVE",
"289.75 0 CURVE",
"390.25 0 LINE",
"407 123.5 OFFCURVE",
"424.25 247.5 OFFCURVE",
"438.75 355.75 CURVE SMOOTH",
"458 495 OFFCURVE",
"406.5 565 OFFCURVE",
"315.25 565 CURVE SMOOTH",
"246 565 OFFCURVE",
"187.25 528.75 OFFCURVE",
"147 454.75 CURVE",
"155.5 509.75 OFFCURVE",
"172 626.25 OFFCURVE",
"188.5 721.25 CURVE",
"88 721.25 LINE",
"62.75 524.5 OFFCURVE",
"14.5 185 OFFCURVE",
"-13.75 0 CURVE"
);
}
);
width = 453;
},
{
layerId = "8223A6C9-5008-4716-B76D-F393BDA840D5";
paths = (
{
closed = 1;
nodes = (
"77.25 0 LINE",
"91.25 71.75 OFFCURVE",
"115.5 192.25 OFFCURVE",
"137.5 295.5 CURVE SMOOTH",
"160 403 OFFCURVE",
"248.5 475.5 OFFCURVE",
"376.25 475.5 CURVE SMOOTH",
"481 475.5 OFFCURVE",
"535.5 430.5 OFFCURVE",
"512 316.75 CURVE SMOOTH",
"492.75 223.25 OFFCURVE",
"466.75 98.75 OFFCURVE",
"444 0 CURVE",
"555.25 0 LINE",
"576.5 103.75 OFFCURVE",
"606.5 249.75 OFFCURVE",
"618.25 303.75 CURVE SMOOTH",
"654.25 475.25 OFFCURVE",
"564.25 564.75 OFFCURVE",
"422.5 564.75 CURVE SMOOTH",
"296.25 564.75 OFFCURVE",
"219.25 511.25 OFFCURVE",
"167.75 442 CURVE",
"176.5 480.25 OFFCURVE",
"218.5 669.25 OFFCURVE",
"231.25 721.25 CURVE",
"120 721.25 LINE",
"80 524 OFFCURVE",
"5.5 176.5 OFFCURVE",
"-34 0 CURVE"
);
}
);
width = 638.25;
}
);
leftMetricsKey = n;
note = h;
rightKerningGroup = h;
rightMetricsKey = n;
unicode = 0068;
},
{
glyphname = i;
lastChange = "2026-05-29 19:50:48 +0000";
layers = (
{
layerId = m003;
paths = (
{
closed = 1;
nodes = (
"154 735 OFFCURVE",
"104 716 OFFCURVE",
"91 656 CURVE SMOOTH",
"79 596 OFFCURVE",
"121 577 OFFCURVE",
"176 577 CURVE SMOOTH",
"232 577 OFFCURVE",
"281 596 OFFCURVE",
"293 656 CURVE SMOOTH",
"306 716 OFFCURVE",
"265 735 OFFCURVE",
"209 735 CURVE SMOOTH"
);
},
{
closed = 1;
nodes = (
"231 539 OFFCURVE",
"201 533 OFFCURVE",
"166 533 CURVE SMOOTH",
"132 533 OFFCURVE",
"104 539 OFFCURVE",
"84 552 CURVE",
"-33 0 LINE",
"140 0 LINE",
"257 552 LINE"
);
}
);
width = 262;
},
{
layerId = "4050705C-5704-4184-B7B7-497C68798CAB";
paths = (
{
closed = 1;
nodes = (
"252 590 OFFCURVE",
"300 613 OFFCURVE",
"308 672 CURVE SMOOTH",
"317 733 OFFCURVE",
"275 755 OFFCURVE",
"211 755 CURVE SMOOTH",
"147 755 OFFCURVE",
"99 733 OFFCURVE",
"90 672 CURVE SMOOTH",
"82 613 OFFCURVE",
"124 590 OFFCURVE",
"188 590 CURVE SMOOTH"
);
},
{
closed = 1;
nodes = (
"10 0 LINE",
"199 0 LINE",
"277 554 LINE",
"88 554 LINE"
);
}
);
width = 316;
},
{
layerId = "B0F4357D-9A3D-47FA-BF9B-88CD901EB1E7";
paths = (
{
closed = 1;
nodes = (
"252 590 OFFCURVE",
"300 613 OFFCURVE",
"308 672 CURVE SMOOTH",
"317 733 OFFCURVE",
"275 755 OFFCURVE",
"211 755 CURVE SMOOTH",
"147 755 OFFCURVE",
"99 733 OFFCURVE",
"90 672 CURVE SMOOTH",
"82 613 OFFCURVE",
"124 590 OFFCURVE",
"188 590 CURVE SMOOTH"
);
},
{
closed = 1;
nodes = (
"10 0 LINE",
"199 0 LINE",
"277 554 LINE",
"88 554 LINE"
);
}
);
width = 316;
},
{
layerId = "8223A6C9-5008-4716-B76D-F393BDA840D5";
paths = (
{
closed = 1;
nodes = (
"154 735 OFFCURVE",
"104 716 OFFCURVE",
"91 656 CURVE SMOOTH",
"79 596 OFFCURVE",
"121 577 OFFCURVE",
"176 577 CURVE SMOOTH",
"232 577 OFFCURVE",
"281 596 OFFCURVE",
"293 656 CURVE SMOOTH",
"306 716 OFFCURVE",
"265 735 OFFCURVE",
"209 735 CURVE SMOOTH"
);
},
{
closed = 1;
nodes = (
"231 539 OFFCURVE",
"201 533 OFFCURVE",
"166 533 CURVE SMOOTH",
"132 533 OFFCURVE",
"104 539 OFFCURVE",
"84 552 CURVE",
"-33 0 LINE",
"140 0 LINE",
"257 552 LINE"
);
}
);
width = 262;
}
);
leftKerningGroup = i;
note = i;
unicode = 0069;
},
{
glyphname = j;
lastChange = "2026-05-29 19:50:48 +0000";
layers = (
{
layerId = m003;
paths = (
{
closed = 1;
nodes = (
"371 577 OFFCURVE",
"422 596 OFFCURVE",
"434 656 CURVE SMOOTH",
"447 716 OFFCURVE",
"405 735 OFFCURVE",
"349 735 CURVE SMOOTH",
"294 735 OFFCURVE",
"244 716 OFFCURVE",
"231 656 CURVE SMOOTH",
"219 596 OFFCURVE",
"260 577 OFFCURVE",
"315 577 CURVE SMOOTH"
);
},
{
closed = 1;
nodes = (
"372 540 OFFCURVE",
"341 533 OFFCURVE",
"306 533 CURVE SMOOTH",
"272 533 OFFCURVE",
"245 540 OFFCURVE",
"224 552 CURVE",
"107 1 LINE SMOOTH",
"100 -34 OFFCURVE",
"71 -57 OFFCURVE",
"36 -57 CURVE SMOOTH",
"-5 -57 OFFCURVE",
"-35 -38 OFFCURVE",
"-66 -18 CURVE",
"-114 -185 LINE",
"-71 -206 OFFCURVE",
"-23 -216 OFFCURVE",
"29 -216 CURVE SMOOTH",
"160 -216 OFFCURVE",
"250 -142 OFFCURVE",
"277 -12 CURVE SMOOTH",
"397 552 LINE"
);
}
);
width = 398;
},
{
layerId = "4050705C-5704-4184-B7B7-497C68798CAB";
paths = (
{
closed = 1;
nodes = (
"349 599 OFFCURVE",
"397 622 OFFCURVE",
"405 681 CURVE",
"414 742 OFFCURVE",
"372 764 OFFCURVE",
"308 764 CURVE",
"244 764 OFFCURVE",
"196 742 OFFCURVE",
"187 681 CURVE",
"179 622 OFFCURVE",
"221 599 OFFCURVE",
"285 599 CURVE"
);
},
{
closed = 1;
nodes = (
"108 17 LINE SMOOTH",
"103 -19 OFFCURVE",
"76 -41 OFFCURVE",
"40 -41 CURVE SMOOTH",
"7 -41 OFFCURVE",
"-21 -29 OFFCURVE",
"-51 -17 CURVE",
"-85 -182 LINE",
"-38 -197 OFFCURVE",
"11 -204 OFFCURVE",
"62 -204 CURVE SMOOTH",
"192 -204 OFFCURVE",
"276 -130 OFFCURVE",
"295 1 CURVE SMOOTH",
"374 563 LINE",
"185 563 LINE"
);
}
);
width = 397;
},
{
layerId = "B0F4357D-9A3D-47FA-BF9B-88CD901EB1E7";
paths = (
{
closed = 1;
nodes = (
"349 599 OFFCURVE",
"397 622 OFFCURVE",
"405 681 CURVE",
"414 742 OFFCURVE",
"372 764 OFFCURVE",
"308 764 CURVE",
"244 764 OFFCURVE",
"196 742 OFFCURVE",
"187 681 CURVE",
"179 622 OFFCURVE",
"221 599 OFFCURVE",
"285 599 CURVE"
);
},
{
closed = 1;
nodes = (
"108 17 LINE SMOOTH",
"103 -19 OFFCURVE",
"76 -41 OFFCURVE",
"40 -41 CURVE SMOOTH",
"7 -41 OFFCURVE",
"-21 -29 OFFCURVE",
"-51 -17 CURVE",
"-85 -182 LINE",
"-38 -197 OFFCURVE",
"11 -204 OFFCURVE",
"62 -204 CURVE SMOOTH",
"192 -204 OFFCURVE",
"276 -130 OFFCURVE",
"295 1 CURVE SMOOTH",
"374 563 LINE",
"185 563 LINE"
);
}
);
width = 397;
},
{
layerId = "8223A6C9-5008-4716-B76D-F393BDA840D5";
paths = (
{
closed = 1;
nodes = (
"371 577 OFFCURVE",
"422 596 OFFCURVE",
"434 656 CURVE SMOOTH",
"447 716 OFFCURVE",
"405 735 OFFCURVE",
"349 735 CURVE SMOOTH",
"294 735 OFFCURVE",
"244 716 OFFCURVE",
"231 656 CURVE SMOOTH",
"219 596 OFFCURVE",
"260 577 OFFCURVE",
"315 577 CURVE SMOOTH"
);
},
{
closed = 1;
nodes = (
"372 540 OFFCURVE",
"341 533 OFFCURVE",
"306 533 CURVE SMOOTH",
"272 533 OFFCURVE",
"245 540 OFFCURVE",
"224 552 CURVE",
"107 1 LINE SMOOTH",
"100 -34 OFFCURVE",
"71 -57 OFFCURVE",
"36 -57 CURVE SMOOTH",
"-5 -57 OFFCURVE",
"-35 -38 OFFCURVE",
"-66 -18 CURVE",
"-114 -185 LINE",
"-71 -206 OFFCURVE",
"-23 -216 OFFCURVE",
"29 -216 CURVE SMOOTH",
"160 -216 OFFCURVE",
"250 -142 OFFCURVE",
"277 -12 CURVE SMOOTH",
"397 552 LINE"
);
}
);
width = 398;
}
);
note = j;
unicode = 006A;
},
{
glyphname = k;
lastChange = "2026-05-29 19:50:48 +0000";
layers = (
{
layerId = m003;
paths = (
{
closed = 1;
nodes = (
"544 0 LINE",
"384 317 LINE",
"652 552 LINE",
"445 552 LINE",
"224 360 LINE",
"301 721 LINE",
"129 721 LINE",
"-25 0 LINE",
"147 0 LINE",
"176 134 LINE",
"248 197 LINE",
"330 0 LINE"
);
}
);
width = 617;
},
{
layerId = "4050705C-5704-4184-B7B7-497C68798CAB";
paths = (
{
closed = 1;
nodes = (
"275 0 LINE",
"502 0 LINE",
"393 283 LINE",
"570 554 LINE",
"359 554 LINE",
"249 358 LINE",
"242 358 LINE",
"293 721 LINE",
"104 721 LINE",
"2 0 LINE",
"191 0 LINE",
"220 204 LINE",
"227 204 LINE"
);
}
);
width = 544;
},
{
layerId = "B0F4357D-9A3D-47FA-BF9B-88CD901EB1E7";
paths = (
{
closed = 1;
nodes = (
"275 0 LINE",
"502 0 LINE",
"393 283 LINE",
"570 554 LINE",
"359 554 LINE",
"249 358 LINE",
"242 358 LINE",
"293 721 LINE",
"104 721 LINE",
"2 0 LINE",
"191 0 LINE",
"220 204 LINE",
"227 204 LINE"
);
}
);
width = 544;
},
{
layerId = "8223A6C9-5008-4716-B76D-F393BDA840D5";
paths = (
{
closed = 1;
nodes = (
"544 0 LINE",
"384 317 LINE",
"652 552 LINE",
"445 552 LINE",
"224 360 LINE",
"301 721 LINE",
"129 721 LINE",
"-25 0 LINE",
"147 0 LINE",
"176 134 LINE",
"248 197 LINE",
"330 0 LINE"
);
}
);
width = 617;
}
);
note = k;
rightKerningGroup = k;
unicode = 006B;
},
{
glyphname = l;
lastChange = "2026-05-29 19:50:48 +0000";
layers = (
{
layerId = m003;
paths = (
{
closed = 1;
nodes = (
"151 0 LINE",
"305 721 LINE",
"133 721 LINE",
"-21 0 LINE"
);
}
);
width = 284;
},
{
layerId = "4050705C-5704-4184-B7B7-497C68798CAB";
paths = (
{
closed = 1;
nodes = (
"190 0 LINE",
"292 721 LINE",
"103 721 LINE",
"1 0 LINE"
);
}
);
width = 293;
},
{
layerId = "B0F4357D-9A3D-47FA-BF9B-88CD901EB1E7";
paths = (
{
closed = 1;
nodes = (
"190 0 LINE",
"292 721 LINE",
"103 721 LINE",
"1 0 LINE"
);
}
);
width = 293;
},
{
layerId = "8223A6C9-5008-4716-B76D-F393BDA840D5";
paths = (
{
closed = 1;
nodes = (
"151 0 LINE",
"305 721 LINE",
"133 721 LINE",
"-21 0 LINE"
);
}
);
width = 284;
}
);
note = l;
unicode = 006C;
},
{
glyphname = m;
lastChange = "2026-05-29 19:50:48 +0000";
layers = (
{
layerId = m003;
paths = (
{
closed = 1;
nodes = (
"249 438 LINE",
"265 489 LINE",
"281 550 LINE",
"109 550 LINE",
"-8 0 LINE",
"164 0 LINE",
"225 288 LINE SMOOTH",
"241 359 OFFCURVE",
"281 407 OFFCURVE",
"349 407 CURVE SMOOTH",
"401 407 OFFCURVE",
"420 377 OFFCURVE",
"407 314 CURVE SMOOTH",
"340 0 LINE",
"512 0 LINE",
"576 299 LINE",
"593 364 OFFCURVE",
"633 407 OFFCURVE",
"697 407 CURVE SMOOTH",
"749 407 OFFCURVE",
"768 377 OFFCURVE",
"755 314 CURVE SMOOTH",
"688 0 LINE",
"860 0 LINE",
"930 328 LINE SMOOTH",
"962 480 OFFCURVE",
"924 562 OFFCURVE",
"794 562 CURVE SMOOTH",
"660 562 OFFCURVE",
"591 438 OFFCURVE",
"591 438 CURVE SMOOTH",
"583 438 LINE",
"588 518 OFFCURVE",
"540 562 OFFCURVE",
"455 562 CURVE SMOOTH",
"312 562 OFFCURVE",
"258 438 OFFCURVE",
"257 438 CURVE SMOOTH"
);
}
);
width = 969;
},
{
layerId = "4050705C-5704-4184-B7B7-497C68798CAB";
paths = (
{
closed = 1;
nodes = (
"608 565 OFFCURVE",
"572 450 OFFCURVE",
"572 450 CURVE SMOOTH",
"565 450 LINE SMOOTH",
"565 450 OFFCURVE",
"571 565 OFFCURVE",
"435 565 CURVE SMOOTH",
"303 565 OFFCURVE",
"263 450 OFFCURVE",
"263 450 CURVE SMOOTH",
"256 450 LINE",
"264 492 LINE SMOOTH",
"269 513 OFFCURVE",
"273 533 OFFCURVE",
"277 554 CURVE",
"88 554 LINE",
"10 0 LINE",
"199 0 LINE",
"242 307 LINE SMOOTH",
"250 363 OFFCURVE",
"274 406 OFFCURVE",
"322 406 CURVE SMOOTH",
"363 406 OFFCURVE",
"378 378 OFFCURVE",
"371 325 CURVE SMOOTH",
"325 0 LINE",
"514 0 LINE",
"557 307 LINE SMOOTH",
"565 363 OFFCURVE",
"589 406 OFFCURVE",
"637 406 CURVE SMOOTH",
"678 406 OFFCURVE",
"693 378 OFFCURVE",
"686 325 CURVE SMOOTH",
"640 0 LINE",
"829 0 LINE",
"878 346 LINE SMOOTH",
"896 474 OFFCURVE",
"864 565 OFFCURVE",
"735 565 CURVE SMOOTH"
);
}
);
width = 919;
},
{
layerId = "B0F4357D-9A3D-47FA-BF9B-88CD901EB1E7";
paths = (
{
closed = 1;
nodes = (
"608 565 OFFCURVE",
"572 450 OFFCURVE",
"572 450 CURVE SMOOTH",
"565 450 LINE SMOOTH",
"565 450 OFFCURVE",
"571 565 OFFCURVE",
"435 565 CURVE SMOOTH",
"303 565 OFFCURVE",
"263 450 OFFCURVE",
"263 450 CURVE SMOOTH",
"256 450 LINE",
"264 492 LINE SMOOTH",
"269 513 OFFCURVE",
"273 533 OFFCURVE",
"277 554 CURVE",
"88 554 LINE",
"10 0 LINE",
"199 0 LINE",
"242 307 LINE SMOOTH",
"250 363 OFFCURVE",
"274 406 OFFCURVE",
"322 406 CURVE SMOOTH",
"363 406 OFFCURVE",
"378 378 OFFCURVE",
"371 325 CURVE SMOOTH",
"325 0 LINE",
"514 0 LINE",
"557 307 LINE SMOOTH",
"565 363 OFFCURVE",
"589 406 OFFCURVE",
"637 406 CURVE SMOOTH",
"678 406 OFFCURVE",
"693 378 OFFCURVE",
"686 325 CURVE SMOOTH",
"640 0 LINE",
"829 0 LINE",
"878 346 LINE SMOOTH",
"896 474 OFFCURVE",
"864 565 OFFCURVE",
"735 565 CURVE SMOOTH"
);
}
);
width = 919;
},
{
layerId = "8223A6C9-5008-4716-B76D-F393BDA840D5";
paths = (
{
closed = 1;
nodes = (
"249 438 LINE",
"265 489 LINE",
"281 550 LINE",
"109 550 LINE",
"-8 0 LINE",
"164 0 LINE",
"225 288 LINE SMOOTH",
"241 359 OFFCURVE",
"281 407 OFFCURVE",
"349 407 CURVE SMOOTH",
"401 407 OFFCURVE",
"420 377 OFFCURVE",
"407 314 CURVE SMOOTH",
"340 0 LINE",
"512 0 LINE",
"576 299 LINE",
"593 364 OFFCURVE",
"633 407 OFFCURVE",
"697 407 CURVE SMOOTH",
"749 407 OFFCURVE",
"768 377 OFFCURVE",
"755 314 CURVE SMOOTH",
"688 0 LINE",
"860 0 LINE",
"930 328 LINE SMOOTH",
"962 480 OFFCURVE",
"924 562 OFFCURVE",
"794 562 CURVE SMOOTH",
"660 562 OFFCURVE",
"591 438 OFFCURVE",
"591 438 CURVE SMOOTH",
"583 438 LINE",
"588 518 OFFCURVE",
"540 562 OFFCURVE",
"455 562 CURVE SMOOTH",
"312 562 OFFCURVE",
"258 438 OFFCURVE",
"257 438 CURVE SMOOTH"
);
}
);
width = 969;
}
);
leftKerningGroup = m;
note = m;
rightKerningGroup = m;
unicode = 006D;
},
{
color = 1;
glyphname = n;
lastChange = "2026-05-29 19:50:48 +0000";
layers = (
{
layerId = m003;
paths = (
{
closed = 1;
nodes = (
"200 0 LINE",
"217 89 OFFCURVE",
"233 178 OFFCURVE",
"252 267 CURVE SMOOTH",
"270 352 OFFCURVE",
"327 405 OFFCURVE",
"415 405 CURVE SMOOTH",
"480 405 OFFCURVE",
"509 372 OFFCURVE",
"496 304 CURVE SMOOTH",
"476 203 OFFCURVE",
"453 101 OFFCURVE",
"431 0 CURVE",
"663 0 LINE",
"685 109 OFFCURVE",
"709 219 OFFCURVE",
"726 297 CURVE SMOOTH",
"762 461 OFFCURVE",
"693 564 OFFCURVE",
"549 564 CURVE SMOOTH",
"431 564 OFFCURVE",
"360 524 OFFCURVE",
"291 448 CURVE",
"299 484 OFFCURVE",
"308 518 OFFCURVE",
"318 554 CURVE",
"86 554 LINE",
"49 370 OFFCURVE",
"9 184 OFFCURVE",
"-32 0 CURVE"
);
}
);
width = 750;
},
{
layerId = "4050705C-5704-4184-B7B7-497C68798CAB";
paths = (
{
closed = 1;
nodes = (
"179 0 LINE",
"199 149 OFFCURVE",
"208 215 OFFCURVE",
"216 266 CURVE SMOOTH",
"233 358 OFFCURVE",
"263 406 OFFCURVE",
"304 406 CURVE SMOOTH",
"337 406 OFFCURVE",
"350 376 OFFCURVE",
"342 317 CURVE SMOOTH",
"327 211 OFFCURVE",
"310 106 OFFCURVE",
"295 0 CURVE",
"484 0 LINE",
"500 119 OFFCURVE",
"515 237 OFFCURVE",
"528 328 CURVE SMOOTH",
"554 504 OFFCURVE",
"495 565 OFFCURVE",
"412 565 CURVE SMOOTH",
"333 565 OFFCURVE",
"275 522 OFFCURVE",
"240 439 CURVE",
"245 473 OFFCURVE",
"252 525 OFFCURVE",
"257 554 CURVE",
"68 554 LINE",
"45 372 OFFCURVE",
"19 188 OFFCURVE",
"-10 0 CURVE"
);
}
);
width = 549;
},
{
associatedMasterId = m003;
layerId = "0070B93F-829E-4144-B480-E7F3004972B1";
name = "May 20, 26 at 16:43";
paths = (
{
closed = 1;
nodes = (
"259 564 OFFCURVE",
"224 438 OFFCURVE",
"224 438 CURVE SMOOTH",
"216 438 LINE",
"220 479 LINE",
"222 494 OFFCURVE",
"223 534 OFFCURVE",
"223 550 CURVE",
"52 550 LINE",
"52 0 LINE",
"224 0 LINE",
"224 268 LINE SMOOTH",
"224 361 OFFCURVE",
"262 404 OFFCURVE",
"333 404 CURVE SMOOTH",
"387 404 OFFCURVE",
"415 372 OFFCURVE",
"415 303 CURVE SMOOTH",
"415 0 LINE",
"587 0 LINE",
"587 328 LINE SMOOTH",
"587 479 OFFCURVE",
"534 564 OFFCURVE",
"403 564 CURVE SMOOTH"
);
}
);
visible = 1;
width = 632;
},
{
layerId = "B0F4357D-9A3D-47FA-BF9B-88CD901EB1E7";
paths = (
{
closed = 1;
nodes = (
"86.75 0 LINE",
"101.5 120.5 OFFCURVE",
"114.25 221.75 OFFCURVE",
"128.25 317.75 CURVE SMOOTH",
"141.5 400.75 OFFCURVE",
"192.5 474.25 OFFCURVE",
"271 474.25 CURVE SMOOTH",
"329.5 474.25 OFFCURVE",
"353 439 OFFCURVE",
"342 353 CURVE SMOOTH",
"326.25 235 OFFCURVE",
"307 118 OFFCURVE",
"289.75 0 CURVE",
"390.25 0 LINE",
"407 123.5 OFFCURVE",
"424.25 247.5 OFFCURVE",
"438.75 355.75 CURVE SMOOTH",
"458 495 OFFCURVE",
"406.5 565 OFFCURVE",
"315.25 565 CURVE SMOOTH",
"246 565 OFFCURVE",
"187.25 528.75 OFFCURVE",
"149.25 454.75 CURVE",
"154.25 486.5 OFFCURVE",
"159.75 523.5 OFFCURVE",
"164.75 554 CURVE",
"64.25 554 LINE",
"40.5 369.75 OFFCURVE",
"14.5 185.75 OFFCURVE",
"-13.75 0 CURVE"
);
}
);
width = 453;
},
{
layerId = "8223A6C9-5008-4716-B76D-F393BDA840D5";
paths = (
{
closed = 1;
nodes = (
"77 0 LINE",
"101.5 122.75 OFFCURVE",
"120.5 221.5 OFFCURVE",
"137.25 295.5 CURVE SMOOTH",
"160.5 400.75 OFFCURVE",
"248.25 475.5 OFFCURVE",
"376 475.5 CURVE SMOOTH",
"480.75 475.5 OFFCURVE",
"535.25 430.5 OFFCURVE",
"511.75 316.75 CURVE SMOOTH",
"492.5 223.25 OFFCURVE",
"466.5 98.75 OFFCURVE",
"443.75 0 CURVE",
"555 0 LINE",
"576.25 103.75 OFFCURVE",
"606.25 249.75 OFFCURVE",
"618 303.75 CURVE SMOOTH",
"654 475.25 OFFCURVE",
"564 564.75 OFFCURVE",
"422.25 564.75 CURVE SMOOTH",
"296 564.75 OFFCURVE",
"219 511.25 OFFCURVE",
"168 442 CURVE",
"176.75 479.5 OFFCURVE",
"186.5 516.5 OFFCURVE",
"195 554 CURVE",
"83.75 554 LINE",
"42.25 352 OFFCURVE",
"7.5 188.5 OFFCURVE",
"-34.25 0 CURVE"
);
}
);
width = 638.25;
}
);
leftKerningGroup = n;
note = n;
rightKerningGroup = n;
unicode = 006E;
},
{
color = 1;
glyphname = o;
lastChange = "2026-05-29 19:50:48 +0000";
layers = (
{
layerId = m003;
paths = (
{
closed = 1;
nodes = (
"556 -11 OFFCURVE",
"683 84 OFFCURVE",
"716 249 CURVE SMOOTH",
"758 457 OFFCURVE",
"622 565 OFFCURVE",
"408 565 CURVE SMOOTH",
"179 565 OFFCURVE",
"51 462 OFFCURVE",
"18 305 CURVE SMOOTH",
"-23 111 OFFCURVE",
"111 -11 OFFCURVE",
"328 -11 CURVE SMOOTH"
);
},
{
closed = 1;
nodes = (
"269 156 OFFCURVE",
"221 199 OFFCURVE",
"238 277 CURVE SMOOTH",
"254 354 OFFCURVE",
"314 397 OFFCURVE",
"389 397 CURVE SMOOTH",
"462 397 OFFCURVE",
"512 354 OFFCURVE",
"496 277 CURVE SMOOTH",
"479 199 OFFCURVE",
"421 156 OFFCURVE",
"345 156 CURVE SMOOTH"
);
}
);
width = 735;
},
{
layerId = "4050705C-5704-4184-B7B7-497C68798CAB";
paths = (
{
closed = 1;
nodes = (
"404 -9 OFFCURVE",
"486 107 OFFCURVE",
"509 268 CURVE SMOOTH",
"532 430 OFFCURVE",
"464 567 OFFCURVE",
"292 567 CURVE SMOOTH",
"118 567 OFFCURVE",
"35 450 OFFCURVE",
"12 288 CURVE SMOOTH",
"-11 127 OFFCURVE",
"60 -9 OFFCURVE",
"239 -9 CURVE SMOOTH"
);
},
{
closed = 1;
nodes = (
"207 147 OFFCURVE",
"185 178 OFFCURVE",
"199 278 CURVE SMOOTH",
"213 380 OFFCURVE",
"241 411 OFFCURVE",
"279 411 CURVE SMOOTH",
"313 411 OFFCURVE",
"335 380 OFFCURVE",
"321 278 CURVE SMOOTH",
"307 178 OFFCURVE",
"282 147 OFFCURVE",
"243 147 CURVE SMOOTH"
);
}
);
width = 521;
},
{
associatedMasterId = m003;
layerId = "705CF437-CD1A-4DAE-B563-556C2D28A373";
name = "May 25, 26 at 17:17";
paths = (
{
closed = 1;
nodes = (
"556 -11 OFFCURVE",
"683 84 OFFCURVE",
"716 249 CURVE SMOOTH",
"758 457 OFFCURVE",
"622 565 OFFCURVE",
"408 565 CURVE SMOOTH",
"179 565 OFFCURVE",
"51 462 OFFCURVE",
"18 305 CURVE SMOOTH",
"-23 111 OFFCURVE",
"111 -11 OFFCURVE",
"328 -11 CURVE SMOOTH"
);
},
{
closed = 1;
nodes = (
"270 156 OFFCURVE",
"222 203 OFFCURVE",
"238 277 CURVE SMOOTH",
"254 353 OFFCURVE",
"304 397 OFFCURVE",
"383 397 CURVE SMOOTH",
"465 397 OFFCURVE",
"511 351 OFFCURVE",
"496 277 CURVE SMOOTH",
"479 197 OFFCURVE",
"433 156 OFFCURVE",
"353 156 CURVE SMOOTH"
);
},
{
closed = 1;
nodes = (
"273 156 OFFCURVE",
"226 199 OFFCURVE",
"243 277 CURVE SMOOTH",
"259 354 OFFCURVE",
"316 397 OFFCURVE",
"389 397 CURVE SMOOTH",
"459 397 OFFCURVE",
"507 354 OFFCURVE",
"491 277 CURVE SMOOTH",
"474 199 OFFCURVE",
"418 156 OFFCURVE",
"345 156 CURVE SMOOTH"
);
}
);
width = 735;
},
{
layerId = "B0F4357D-9A3D-47FA-BF9B-88CD901EB1E7";
paths = (
{
closed = 1;
nodes = (
"327.5 -9 OFFCURVE",
"410.25 100.25 OFFCURVE",
"434.75 275.5 CURVE SMOOTH",
"459.25 451.75 OFFCURVE",
"392 567 OFFCURVE",
"259.75 567 CURVE SMOOTH",
"118 567 OFFCURVE",
"34.25 457.5 OFFCURVE",
"9.75 280.5 CURVE SMOOTH",
"-14.75 105.25 OFFCURVE",
"53.25 -9 OFFCURVE",
"186.5 -9 CURVE SMOOTH"
);
},
{
closed = 1;
nodes = (
"128.25 81 OFFCURVE",
"91.25 141.25 OFFCURVE",
"110.5 278 CURVE SMOOTH",
"129.75 416.75 OFFCURVE",
"182.5 477 OFFCURVE",
"249.75 477 CURVE SMOOTH",
"315.25 477 OFFCURVE",
"353 416.75 OFFCURVE",
"333.75 278 CURVE SMOOTH",
"314.5 141.25 OFFCURVE",
"262.5 81 OFFCURVE",
"194.25 81 CURVE SMOOTH"
);
}
);
width = 444.5;
},
{
layerId = "8223A6C9-5008-4716-B76D-F393BDA840D5";
paths = (
{
closed = 1;
nodes = (
"463 -9.5 OFFCURVE",
"580.25 83.25 OFFCURVE",
"614 243.75 CURVE SMOOTH",
"654.5 436 OFFCURVE",
"538 566.5 OFFCURVE",
"351 566.5 CURVE SMOOTH",
"172.25 566.5 OFFCURVE",
"51 465.75 OFFCURVE",
"17.25 308.75 CURVE SMOOTH",
"-22.25 124.5 OFFCURVE",
"91.5 -9.5 OFFCURVE",
"280 -9.5 CURVE SMOOTH"
);
},
{
closed = 1;
nodes = (
"167 83.25 OFFCURVE",
"98.75 165.25 OFFCURVE",
"124 289.75 CURVE SMOOTH",
"146.75 402.75 OFFCURVE",
"227.75 473.5 OFFCURVE",
"339.5 473.5 CURVE SMOOTH",
"462 473.5 OFFCURVE",
"533.75 386.25 OFFCURVE",
"507.25 262.75 CURVE SMOOTH",
"482 146.5 OFFCURVE",
"403.75 83.25 OFFCURVE",
"289.5 83.25 CURVE SMOOTH"
);
}
);
width = 631.5;
}
);
leftKerningGroup = o;
note = o;
rightKerningGroup = e;
unicode = 006F;
},
{
color = 1;
glyphname = p;
lastChange = "2026-05-29 19:50:48 +0000";
layers = (
{
layerId = m003;
paths = (
{
closed = 1;
nodes = (
"168 -168 LINE",
"186 -83 OFFCURVE",
"204 3 OFFCURVE",
"227 108 CURVE",
"254 36 OFFCURVE",
"327 -11 OFFCURVE",
"435 -11 CURVE SMOOTH",
"601 -11 OFFCURVE",
"730 80 OFFCURVE",
"767 255 CURVE SMOOTH",
"802 422 OFFCURVE",
"717 564 OFFCURVE",
"548 564 CURVE SMOOTH",
"444 564 OFFCURVE",
"360 522 OFFCURVE",
"295 448 CURVE",
"303 484 OFFCURVE",
"312 518 OFFCURVE",
"322 554 CURVE",
"90 554 LINE",
"63 422 OFFCURVE",
"-44 -78 OFFCURVE",
"-64 -168 CURVE"
);
},
{
closed = 1;
nodes = (
"301 156 OFFCURVE",
"254 199 OFFCURVE",
"271 277 CURVE SMOOTH",
"287 354 OFFCURVE",
"344 397 OFFCURVE",
"417 397 CURVE SMOOTH",
"487 397 OFFCURVE",
"535 354 OFFCURVE",
"519 277 CURVE SMOOTH",
"502 199 OFFCURVE",
"446 156 OFFCURVE",
"373 156 CURVE SMOOTH"
);
}
);
width = 786;
},
{
layerId = "4050705C-5704-4184-B7B7-497C68798CAB";
paths = (
{
closed = 1;
nodes = (
"153 -167 LINE",
"163 -81 OFFCURVE",
"177 34 OFFCURVE",
"187 108 CURVE",
"203 29 OFFCURVE",
"247 -11 OFFCURVE",
"312 -11 CURVE SMOOTH",
"412 -11 OFFCURVE",
"493 76 OFFCURVE",
"520 275 CURVE SMOOTH",
"544 452 OFFCURVE",
"494 565 OFFCURVE",
"392 565 CURVE SMOOTH",
"326 565 OFFCURVE",
"280 527 OFFCURVE",
"237 445 CURVE",
"243 481 OFFCURVE",
"251 539 OFFCURVE",
"254 554 CURVE",
"65 554 LINE",
"51 429 OFFCURVE",
"-10 -16 OFFCURVE",
"-36 -167 CURVE"
);
},
{
closed = 1;
nodes = (
"212 143 OFFCURVE",
"196 185 OFFCURVE",
"208 274 CURVE SMOOTH",
"221 366 OFFCURVE",
"245 407 OFFCURVE",
"288 407 CURVE SMOOTH",
"328 407 OFFCURVE",
"342 363 OFFCURVE",
"330 274 CURVE SMOOTH",
"317 184 OFFCURVE",
"295 143 OFFCURVE",
"252 143 CURVE SMOOTH"
);
}
);
width = 534;
},
{
associatedMasterId = m003;
layerId = "44674952-CDFC-4338-B515-61C7597C38CC";
name = "May 21, 26 at 08:31";
paths = (
{
closed = 1;
nodes = (
"254 -168 LINE",
"254 -83 OFFCURVE",
"254 3 OFFCURVE",
"254 88 CURVE",
"294 38 OFFCURVE",
"378 -11 OFFCURVE",
"479 -11 CURVE SMOOTH",
"641 -11 OFFCURVE",
"748 102 OFFCURVE",
"748 277 CURVE SMOOTH",
"748 444 OFFCURVE",
"644 565 OFFCURVE",
"479 565 CURVE SMOOTH",
"378 565 OFFCURVE",
"307 521 OFFCURVE",
"254 465 CURVE",
"254 494 OFFCURVE",
"254 525 OFFCURVE",
"254 554 CURVE",
"52 554 LINE",
"52 314 OFFCURVE",
"52 72 OFFCURVE",
"52 -168 CURVE"
);
},
{
closed = 1;
nodes = (
"312 137 OFFCURVE",
"254 187 OFFCURVE",
"254 277 CURVE SMOOTH",
"254 367 OFFCURVE",
"312 417 OFFCURVE",
"397 417 CURVE SMOOTH",
"482 417 OFFCURVE",
"539 367 OFFCURVE",
"539 277 CURVE SMOOTH",
"539 187 OFFCURVE",
"482 137 OFFCURVE",
"397 137 CURVE SMOOTH"
);
},
{
closed = 1;
nodes = (
"320 157 OFFCURVE",
"272 200 OFFCURVE",
"272 277 CURVE SMOOTH",
"272 354 OFFCURVE",
"320 397 OFFCURVE",
"397 397 CURVE SMOOTH",
"473 397 OFFCURVE",
"520 354 OFFCURVE",
"520 277 CURVE SMOOTH",
"520 200 OFFCURVE",
"473 157 OFFCURVE",
"397 157 CURVE SMOOTH"
);
}
);
visible = 1;
width = 777;
},
{
layerId = "B0F4357D-9A3D-47FA-BF9B-88CD901EB1E7";
paths = (
{
closed = 1;
nodes = (
"62.25 -158.75 LINE",
"68.5 -105 OFFCURVE",
"90 53.5 OFFCURVE",
"97 105 CURVE",
"113.75 32.75 OFFCURVE",
"160 -9.5 OFFCURVE",
"233.25 -9.5 CURVE SMOOTH",
"352.75 -9.5 OFFCURVE",
"431.5 92.5 OFFCURVE",
"457 277.25 CURVE SMOOTH",
"482.5 456.5 OFFCURVE",
"418.25 565 OFFCURVE",
"309.5 565 CURVE SMOOTH",
"239 565 OFFCURVE",
"186.25 529.25 OFFCURVE",
"148.5 456.25 CURVE",
"153.75 488.5 OFFCURVE",
"159.5 527 OFFCURVE",
"164 554 CURVE",
"63.5 554 LINE",
"33.75 329.25 OFFCURVE",
"-6.25 43.25 OFFCURVE",
"-36.75 -158.75 CURVE"
);
},
{
closed = 1;
nodes = (
"139.25 80 OFFCURVE",
"102.25 146 OFFCURVE",
"121.75 277.75 CURVE SMOOTH",
"141.5 408 OFFCURVE",
"190.25 474.5 OFFCURVE",
"265.5 474.5 CURVE SMOOTH",
"343 474.5 OFFCURVE",
"373.5 408 OFFCURVE",
"355.5 277 CURVE SMOOTH",
"337.25 146.5 OFFCURVE",
"291.25 80 OFFCURVE",
"217.5 80 CURVE SMOOTH"
);
}
);
width = 467.25;
},
{
layerId = "8223A6C9-5008-4716-B76D-F393BDA840D5";
paths = (
{
closed = 1;
nodes = (
"46.5 -159 LINE",
"58.5 -99.5 OFFCURVE",
"94.5 72.75 OFFCURVE",
"106.25 130.5 CURVE",
"135.5 42 OFFCURVE",
"216.75 -9.5 OFFCURVE",
"320.25 -9.5 CURVE SMOOTH",
"479.5 -9.5 OFFCURVE",
"601 82.25 OFFCURVE",
"635.75 255 CURVE SMOOTH",
"669.25 421.25 OFFCURVE",
"585 564.75 OFFCURVE",
"413.75 564.75 CURVE SMOOTH",
"315 564.75 OFFCURVE",
"229.5 521.25 OFFCURVE",
"172.75 448.75 CURVE",
"180 479.5 OFFCURVE",
"189.75 516.5 OFFCURVE",
"198.25 554 CURVE",
"87 554 LINE",
"41.25 331.25 OFFCURVE",
"-23 30.75 OFFCURVE",
"-64.75 -159 CURVE"
);
},
{
closed = 1;
nodes = (
"183.25 82.5 OFFCURVE",
"118.25 165.25 OFFCURVE",
"145.75 295.75 CURVE SMOOTH",
"167.75 401.25 OFFCURVE",
"251.75 472.75 OFFCURVE",
"365.25 472.75 CURVE SMOOTH",
"479.5 472.75 OFFCURVE",
"545.5 391.5 OFFCURVE",
"521.25 272.5 CURVE SMOOTH",
"495.25 146.5 OFFCURVE",
"416 82.5 OFFCURVE",
"304 82.5 CURVE SMOOTH"
);
}
);
width = 651;
}
);
leftKerningGroup = m;
note = p;
rightKerningGroup = p;
rightMetricsKey = o;
unicode = 0070;
},
{
glyphname = q;
lastChange = "2026-05-29 19:50:48 +0000";
layers = (
{
layerId = m003;
paths = (
{
closed = 1;
nodes = (
"488 553 LINE",
"478 491 LINE",
"472 441 LINE",
"464 441 LINE SMOOTH",
"464 441 OFFCURVE",
"479 565 OFFCURVE",
"331 565 CURVE SMOOTH",
"203 565 OFFCURVE",
"81 447 OFFCURVE",
"45 277 CURVE SMOOTH",
"7 100 OFFCURVE",
"72 -11 OFFCURVE",
"207 -11 CURVE SMOOTH",
"332 -11 OFFCURVE",
"392 103 OFFCURVE",
"392 103 CURVE",
"400 103 LINE",
"385 52 LINE SMOOTH",
"375 19 OFFCURVE",
"367 -13 OFFCURVE",
"360 -46 CURVE SMOOTH",
"334 -168 LINE",
"506 -168 LINE",
"659 553 LINE"
);
},
{
closed = 1;
nodes = (
"410 187 OFFCURVE",
"357 137 OFFCURVE",
"296 137 CURVE SMOOTH",
"235 137 OFFCURVE",
"205 187 OFFCURVE",
"224 277 CURVE SMOOTH",
"243 367 OFFCURVE",
"294 417 OFFCURVE",
"355 417 CURVE SMOOTH",
"416 417 OFFCURVE",
"448 367 OFFCURVE",
"429 277 CURVE SMOOTH"
);
}
);
width = 636;
},
{
layerId = "4050705C-5704-4184-B7B7-497C68798CAB";
paths = (
{
closed = 1;
nodes = (
"301 -11 OFFCURVE",
"331 104 OFFCURVE",
"331 104 CURVE",
"339 104 LINE",
"327 53 LINE",
"320 20 OFFCURVE",
"314 -12 OFFCURVE",
"310 -45 CURVE",
"293 -167 LINE",
"482 -167 LINE",
"583 554 LINE",
"394 554 LINE",
"392 533 OFFCURVE",
"390 513 OFFCURVE",
"389 492 CURVE",
"386 447 LINE",
"379 447 LINE",
"379 447 OFFCURVE",
"373 565 OFFCURVE",
"253 565 CURVE",
"142 565 OFFCURVE",
"63 443 OFFCURVE",
"40 275 CURVE",
"17 112 OFFCURVE",
"62 -11 OFFCURVE",
"178 -11 CURVE"
);
},
{
closed = 1;
nodes = (
"353 403 OFFCURVE",
"375 367 OFFCURVE",
"362 275 CURVE SMOOTH",
"349 183 OFFCURVE",
"317 148 OFFCURVE",
"278 148 CURVE SMOOTH",
"238 148 OFFCURVE",
"216 183 OFFCURVE",
"229 275 CURVE SMOOTH",
"242 367 OFFCURVE",
"274 403 OFFCURVE",
"314 403 CURVE SMOOTH"
);
}
);
width = 585;
},
{
layerId = "B0F4357D-9A3D-47FA-BF9B-88CD901EB1E7";
paths = (
{
closed = 1;
nodes = (
"301 -11 OFFCURVE",
"331 104 OFFCURVE",
"331 104 CURVE",
"339 104 LINE",
"327 53 LINE",
"320 20 OFFCURVE",
"314 -12 OFFCURVE",
"310 -45 CURVE",
"293 -167 LINE",
"482 -167 LINE",
"583 554 LINE",
"394 554 LINE",
"392 533 OFFCURVE",
"390 513 OFFCURVE",
"389 492 CURVE",
"386 447 LINE",
"379 447 LINE",
"379 447 OFFCURVE",
"373 565 OFFCURVE",
"253 565 CURVE",
"142 565 OFFCURVE",
"63 443 OFFCURVE",
"40 275 CURVE",
"17 112 OFFCURVE",
"62 -11 OFFCURVE",
"178 -11 CURVE"
);
},
{
closed = 1;
nodes = (
"353 403 OFFCURVE",
"375 367 OFFCURVE",
"362 275 CURVE SMOOTH",
"349 183 OFFCURVE",
"317 148 OFFCURVE",
"278 148 CURVE SMOOTH",
"238 148 OFFCURVE",
"216 183 OFFCURVE",
"229 275 CURVE SMOOTH",
"242 367 OFFCURVE",
"274 403 OFFCURVE",
"314 403 CURVE SMOOTH"
);
}
);
width = 585;
},
{
layerId = "8223A6C9-5008-4716-B76D-F393BDA840D5";
paths = (
{
closed = 1;
nodes = (
"488 553 LINE",
"478 491 LINE",
"472 441 LINE",
"464 441 LINE SMOOTH",
"464 441 OFFCURVE",
"479 565 OFFCURVE",
"331 565 CURVE SMOOTH",
"203 565 OFFCURVE",
"81 447 OFFCURVE",
"45 277 CURVE SMOOTH",
"7 100 OFFCURVE",
"72 -11 OFFCURVE",
"207 -11 CURVE SMOOTH",
"332 -11 OFFCURVE",
"392 103 OFFCURVE",
"392 103 CURVE",
"400 103 LINE",
"385 52 LINE SMOOTH",
"375 19 OFFCURVE",
"367 -13 OFFCURVE",
"360 -46 CURVE SMOOTH",
"334 -168 LINE",
"506 -168 LINE",
"659 553 LINE"
);
},
{
closed = 1;
nodes = (
"410 187 OFFCURVE",
"357 137 OFFCURVE",
"296 137 CURVE SMOOTH",
"235 137 OFFCURVE",
"205 187 OFFCURVE",
"224 277 CURVE SMOOTH",
"243 367 OFFCURVE",
"294 417 OFFCURVE",
"355 417 CURVE SMOOTH",
"416 417 OFFCURVE",
"448 367 OFFCURVE",
"429 277 CURVE SMOOTH"
);
}
);
width = 636;
}
);
unicode = 0071;
},
{
glyphname = r;
lastChange = "2026-05-29 19:50:48 +0000";
layers = (
{
layerId = m003;
paths = (
{
closed = 1;
nodes = (
"374 564 OFFCURVE",
"278 530 OFFCURVE",
"258 437 CURVE",
"250 437 LINE",
"265 488 LINE",
"281 550 LINE",
"109 550 LINE",
"-8 0 LINE",
"164 0 LINE",
"227 294 LINE SMOOTH",
"241 362 OFFCURVE",
"279 393 OFFCURVE",
"338 393 CURVE SMOOTH",
"376 393 OFFCURVE",
"407 381 OFFCURVE",
"439 368 CURVE",
"467 564 LINE"
);
}
);
width = 441;
},
{
layerId = "4050705C-5704-4184-B7B7-497C68798CAB";
paths = (
{
closed = 1;
nodes = (
"358 565 OFFCURVE",
"322 521 OFFCURVE",
"265 450 CURVE SMOOTH",
"258 450 LINE",
"266 492 LINE SMOOTH",
"271 513 OFFCURVE",
"275 533 OFFCURVE",
"279 554 CURVE",
"90 554 LINE",
"12 0 LINE",
"201 0 LINE",
"249 339 LINE SMOOTH",
"255 380 OFFCURVE",
"280 406 OFFCURVE",
"331 406 CURVE SMOOTH",
"367 406 OFFCURVE",
"399 396 OFFCURVE",
"433 386 CURVE",
"443 565 LINE"
);
}
);
width = 414;
},
{
layerId = "B0F4357D-9A3D-47FA-BF9B-88CD901EB1E7";
paths = (
{
closed = 1;
nodes = (
"358 565 OFFCURVE",
"322 521 OFFCURVE",
"265 450 CURVE SMOOTH",
"258 450 LINE",
"266 492 LINE SMOOTH",
"271 513 OFFCURVE",
"275 533 OFFCURVE",
"279 554 CURVE",
"90 554 LINE",
"12 0 LINE",
"201 0 LINE",
"249 339 LINE SMOOTH",
"255 380 OFFCURVE",
"280 406 OFFCURVE",
"331 406 CURVE SMOOTH",
"367 406 OFFCURVE",
"399 396 OFFCURVE",
"433 386 CURVE",
"443 565 LINE"
);
}
);
width = 414;
},
{
layerId = "8223A6C9-5008-4716-B76D-F393BDA840D5";
paths = (
{
closed = 1;
nodes = (
"374 564 OFFCURVE",
"278 530 OFFCURVE",
"258 437 CURVE",
"250 437 LINE",
"265 488 LINE",
"281 550 LINE",
"109 550 LINE",
"-8 0 LINE",
"164 0 LINE",
"227 294 LINE SMOOTH",
"241 362 OFFCURVE",
"279 393 OFFCURVE",
"338 393 CURVE SMOOTH",
"376 393 OFFCURVE",
"407 381 OFFCURVE",
"439 368 CURVE",
"467 564 LINE"
);
}
);
width = 441;
}
);
leftKerningGroup = r;
note = r;
rightKerningGroup = r;
unicode = 0072;
},
{
color = 1;
glyphname = s;
lastChange = "2026-05-29 19:50:48 +0000";
layers = (
{
layerId = m003;
paths = (
{
closed = 1;
nodes = (
"496 -11 OFFCURVE",
"563 51 OFFCURVE",
"581 151 CURVE SMOOTH",
"621 369 OFFCURVE",
"253 341 OFFCURVE",
"264 393 CURVE SMOOTH",
"266 405 OFFCURVE",
"292 410 OFFCURVE",
"351 410 CURVE SMOOTH",
"426 410 OFFCURVE",
"497 399 OFFCURVE",
"596 372 CURVE",
"630 533 LINE",
"561 553 OFFCURVE",
"462 565 OFFCURVE",
"367 565 CURVE SMOOTH",
"138 565 OFFCURVE",
"70 502 OFFCURVE",
"53 416 CURVE SMOOTH",
"7 183 OFFCURVE",
"377 229 OFFCURVE",
"365 166 CURVE SMOOTH",
"362 151 OFFCURVE",
"332 144 OFFCURVE",
"267 144 CURVE SMOOTH",
"176 144 OFFCURVE",
"85 163 OFFCURVE",
"4 200 CURVE",
"-33 26 LINE",
"49 2 OFFCURVE",
"143 -11 OFFCURVE",
"246 -11 CURVE SMOOTH"
);
}
);
width = 625;
},
{
layerId = "4050705C-5704-4184-B7B7-497C68798CAB";
paths = (
{
closed = 1;
nodes = (
"329 -11 OFFCURVE",
"424 50 OFFCURVE",
"439 157 CURVE SMOOTH",
"468 364 OFFCURVE",
"226 335 OFFCURVE",
"234 390 CURVE SMOOTH",
"236 407 OFFCURVE",
"256 419 OFFCURVE",
"309 419 CURVE SMOOTH",
"349 419 OFFCURVE",
"395 411 OFFCURVE",
"458 387 CURVE",
"480 543 LINE",
"421 558 OFFCURVE",
"366 565 OFFCURVE",
"297 565 CURVE SMOOTH",
"148 565 OFFCURVE",
"52 502 OFFCURVE",
"37 396 CURVE SMOOTH",
"9 202 OFFCURVE",
"251 228 OFFCURVE",
"243 169 CURVE SMOOTH",
"240 146 OFFCURVE",
"219 138 OFFCURVE",
"174 138 CURVE SMOOTH",
"121 138 OFFCURVE",
"80 148 OFFCURVE",
"6 175 CURVE",
"-18 7 LINE",
"37 -5 OFFCURVE",
"100 -11 OFFCURVE",
"177 -11 CURVE SMOOTH"
);
}
);
width = 464;
},
{
layerId = "B0F4357D-9A3D-47FA-BF9B-88CD901EB1E7";
paths = (
{
closed = 1;
nodes = (
"272.75 -11 OFFCURVE",
"354.25 45.5 OFFCURVE",
"368.5 144.25 CURVE SMOOTH",
"393.75 328 OFFCURVE",
"131.5 317.75 OFFCURVE",
"144.75 413.25 CURVE SMOOTH",
"150.5 453.5 OFFCURVE",
"190 478.25 OFFCURVE",
"255 478.25 CURVE SMOOTH",
"298.75 478.25 OFFCURVE",
"329.75 471.75 OFFCURVE",
"386 448.5 CURVE",
"399.75 543.75 LINE",
"352.75 558.75 OFFCURVE",
"310.5 565 OFFCURVE",
"257.25 565 CURVE SMOOTH",
"135.25 565 OFFCURVE",
"50.5 505 OFFCURVE",
"37 409.5 CURVE SMOOTH",
"12.75 238.75 OFFCURVE",
"277.25 257.25 OFFCURVE",
"261 145 CURVE SMOOTH",
"255 101.75 OFFCURVE",
"215.25 73.5 OFFCURVE",
"146.25 75 CURVE SMOOTH",
"95.5 75.75 OFFCURVE",
"59 85 OFFCURVE",
"-4.5 113.5 CURVE",
"-18.75 13 LINE",
"24.25 -2.75 OFFCURVE",
"79.75 -11 OFFCURVE",
"140.25 -11 CURVE SMOOTH"
);
}
);
width = 394.25;
},
{
layerId = "8223A6C9-5008-4716-B76D-F393BDA840D5";
paths = (
{
closed = 1;
nodes = (
"409 -11 OFFCURVE",
"486.5 36 OFFCURVE",
"506.75 133.75 CURVE SMOOTH",
"554.25 363 OFFCURVE",
"131.5 297.5 OFFCURVE",
"156.75 418.5 CURVE SMOOTH",
"164 453 OFFCURVE",
"206.5 476 OFFCURVE",
"303.75 476 CURVE SMOOTH",
"387.75 476 OFFCURVE",
"462.5 460.5 OFFCURVE",
"543.5 426 CURVE",
"564.75 524.75 LINE",
"493.5 550 OFFCURVE",
"401.25 565 OFFCURVE",
"316.75 565 CURVE SMOOTH",
"150 565 OFFCURVE",
"68.5 516.25 OFFCURVE",
"51.5 432.5 CURVE SMOOTH",
"5.5 207.75 OFFCURVE",
"428.75 277.75 OFFCURVE",
"400.25 145.75 CURVE SMOOTH",
"389.75 97 OFFCURVE",
"336.5 75 OFFCURVE",
"231.75 76.5 CURVE SMOOTH",
"144.5 77.25 OFFCURVE",
"64 97 OFFCURVE",
"-11 136.25 CURVE",
"-33.75 34.25 LINE",
"31 6.5 OFFCURVE",
"128 -11 OFFCURVE",
"220.5 -11 CURVE SMOOTH"
);
}
);
width = 554.5;
}
);
leftKerningGroup = s;
note = s;
rightKerningGroup = s;
unicode = 0073;
},
{
glyphname = t;
lastChange = "2026-05-29 19:50:48 +0000";
layers = (
{
layerId = m003;
paths = (
{
closed = 1;
nodes = (
"168 662 LINE",
"144 550 LINE",
"68 550 LINE",
"38 405 LINE",
"114 405 LINE",
"69 194 LINE SMOOTH",
"41 63 OFFCURVE",
"99 -11 OFFCURVE",
"229 -11 CURVE SMOOTH",
"282 -11 OFFCURVE",
"333 8 OFFCURVE",
"387 27 CURVE",
"408 177 LINE",
"369 157 OFFCURVE",
"330 142 OFFCURVE",
"290 142 CURVE SMOOTH",
"249 142 OFFCURVE",
"233 160 OFFCURVE",
"242 200 CURVE SMOOTH",
"286 405 LINE",
"467 405 LINE",
"497 550 LINE",
"316 550 LINE",
"343 675 LINE"
);
}
);
width = 478;
},
{
layerId = "4050705C-5704-4184-B7B7-497C68798CAB";
paths = (
{
closed = 1;
nodes = (
"145 667 LINE",
"129 556 LINE",
"53 556 LINE",
"34 420 LINE",
"110 420 LINE",
"78 196 LINE SMOOTH",
"60 65 OFFCURVE",
"124 -9 OFFCURVE",
"254 -9 CURVE SMOOTH",
"306 -9 OFFCURVE",
"356 6 OFFCURVE",
"408 21 CURVE",
"420 187 LINE",
"389 166 OFFCURVE",
"356 154 OFFCURVE",
"321 154 CURVE SMOOTH",
"280 154 OFFCURVE",
"264 172 OFFCURVE",
"270 212 CURVE SMOOTH",
"299 420 LINE",
"463 420 LINE",
"482 556 LINE",
"318 556 LINE",
"335 681 LINE"
);
}
);
width = 478;
},
{
layerId = "B0F4357D-9A3D-47FA-BF9B-88CD901EB1E7";
paths = (
{
closed = 1;
nodes = (
"145 667 LINE",
"129 556 LINE",
"53 556 LINE",
"34 420 LINE",
"110 420 LINE",
"78 196 LINE SMOOTH",
"60 65 OFFCURVE",
"124 -9 OFFCURVE",
"254 -9 CURVE SMOOTH",
"306 -9 OFFCURVE",
"356 6 OFFCURVE",
"408 21 CURVE",
"420 187 LINE",
"389 166 OFFCURVE",
"356 154 OFFCURVE",
"321 154 CURVE SMOOTH",
"280 154 OFFCURVE",
"264 172 OFFCURVE",
"270 212 CURVE SMOOTH",
"299 420 LINE",
"463 420 LINE",
"482 556 LINE",
"318 556 LINE",
"335 681 LINE"
);
}
);
width = 478;
},
{
layerId = "8223A6C9-5008-4716-B76D-F393BDA840D5";
paths = (
{
closed = 1;
nodes = (
"168 662 LINE",
"144 550 LINE",
"68 550 LINE",
"38 405 LINE",
"114 405 LINE",
"69 194 LINE SMOOTH",
"41 63 OFFCURVE",
"99 -11 OFFCURVE",
"229 -11 CURVE SMOOTH",
"282 -11 OFFCURVE",
"333 8 OFFCURVE",
"387 27 CURVE",
"408 177 LINE",
"369 157 OFFCURVE",
"330 142 OFFCURVE",
"290 142 CURVE SMOOTH",
"249 142 OFFCURVE",
"233 160 OFFCURVE",
"242 200 CURVE SMOOTH",
"286 405 LINE",
"467 405 LINE",
"497 550 LINE",
"316 550 LINE",
"343 675 LINE"
);
}
);
width = 478;
}
);
leftKerningGroup = t;
note = t;
rightKerningGroup = t;
unicode = 0074;
},
{
glyphname = u;
lastChange = "2026-05-29 19:50:48 +0000";
layers = (
{
layerId = m003;
paths = (
{
closed = 1;
nodes = (
"411 281 LINE SMOOTH",
"391 189 OFFCURVE",
"345 146 OFFCURVE",
"273 146 CURVE SMOOTH",
"219 146 OFFCURVE",
"199 178 OFFCURVE",
"213 247 CURVE SMOOTH",
"278 550 LINE",
"105 550 LINE",
"34 218 LINE SMOOTH",
"2 67 OFFCURVE",
"52 -12 OFFCURVE",
"175 -12 CURVE SMOOTH",
"319 -12 OFFCURVE",
"375 112 OFFCURVE",
"375 112 CURVE",
"383 112 LINE",
"368 62 LINE",
"352 0 LINE",
"523 0 LINE",
"640 550 LINE",
"468 550 LINE"
);
}
);
width = 632;
},
{
layerId = "4050705C-5704-4184-B7B7-497C68798CAB";
paths = (
{
closed = 1;
nodes = (
"295 -9 OFFCURVE",
"344 106 OFFCURVE",
"344 106 CURVE",
"351 106 LINE",
"343 64 LINE SMOOTH",
"338 43 OFFCURVE",
"334 23 OFFCURVE",
"330 2 CURVE",
"519 2 LINE",
"597 556 LINE",
"408 556 LINE",
"366 259 LINE SMOOTH",
"359 208 OFFCURVE",
"338 150 OFFCURVE",
"285 150 CURVE SMOOTH",
"241 150 OFFCURVE",
"229 179 OFFCURVE",
"237 239 CURVE SMOOTH",
"282 556 LINE",
"93 556 LINE",
"43 200 LINE SMOOTH",
"25 72 OFFCURVE",
"56 -9 OFFCURVE",
"166 -9 CURVE SMOOTH"
);
}
);
width = 607;
},
{
layerId = "B0F4357D-9A3D-47FA-BF9B-88CD901EB1E7";
paths = (
{
closed = 1;
nodes = (
"295 -9 OFFCURVE",
"344 106 OFFCURVE",
"344 106 CURVE",
"351 106 LINE",
"343 64 LINE SMOOTH",
"338 43 OFFCURVE",
"334 23 OFFCURVE",
"330 2 CURVE",
"519 2 LINE",
"597 556 LINE",
"408 556 LINE",
"366 259 LINE SMOOTH",
"359 208 OFFCURVE",
"338 150 OFFCURVE",
"285 150 CURVE SMOOTH",
"241 150 OFFCURVE",
"229 179 OFFCURVE",
"237 239 CURVE SMOOTH",
"282 556 LINE",
"93 556 LINE",
"43 200 LINE SMOOTH",
"25 72 OFFCURVE",
"56 -9 OFFCURVE",
"166 -9 CURVE SMOOTH"
);
}
);
width = 607;
},
{
layerId = "8223A6C9-5008-4716-B76D-F393BDA840D5";
paths = (
{
closed = 1;
nodes = (
"411 281 LINE SMOOTH",
"391 189 OFFCURVE",
"345 146 OFFCURVE",
"273 146 CURVE SMOOTH",
"219 146 OFFCURVE",
"199 178 OFFCURVE",
"213 247 CURVE SMOOTH",
"278 550 LINE",
"105 550 LINE",
"34 218 LINE SMOOTH",
"2 67 OFFCURVE",
"52 -12 OFFCURVE",
"175 -12 CURVE SMOOTH",
"319 -12 OFFCURVE",
"375 112 OFFCURVE",
"375 112 CURVE",
"383 112 LINE",
"368 62 LINE",
"352 0 LINE",
"523 0 LINE",
"640 550 LINE",
"468 550 LINE"
);
}
);
width = 632;
}
);
leftKerningGroup = u;
note = u;
rightKerningGroup = u;
unicode = 0075;
},
{
glyphname = v;
lastChange = "2026-05-29 19:50:48 +0000";
layers = (
{
layerId = m003;
paths = (
{
closed = 1;
nodes = (
"464 552 LINE",
"280 223 LINE",
"237 552 LINE",
"55 552 LINE",
"153 0 LINE",
"311 0 LINE",
"645 552 LINE"
);
}
);
width = 582;
},
{
layerId = "4050705C-5704-4184-B7B7-497C68798CAB";
paths = (
{
closed = 1;
nodes = (
"262 218 LINE",
"255 218 LINE",
"239 554 LINE",
"35 554 LINE",
"133 0 LINE",
"322 0 LINE",
"576 554 LINE",
"371 554 LINE"
);
}
);
width = 533;
},
{
layerId = "B0F4357D-9A3D-47FA-BF9B-88CD901EB1E7";
paths = (
{
closed = 1;
nodes = (
"262 218 LINE",
"255 218 LINE",
"239 554 LINE",
"35 554 LINE",
"133 0 LINE",
"322 0 LINE",
"576 554 LINE",
"371 554 LINE"
);
}
);
width = 533;
},
{
layerId = "8223A6C9-5008-4716-B76D-F393BDA840D5";
paths = (
{
closed = 1;
nodes = (
"464 552 LINE",
"280 223 LINE",
"237 552 LINE",
"55 552 LINE",
"153 0 LINE",
"311 0 LINE",
"645 552 LINE"
);
}
);
width = 582;
}
);
leftKerningGroup = v;
note = v;
rightKerningGroup = v;
unicode = 0076;
},
{
glyphname = w;
lastChange = "2026-05-29 19:50:48 +0000";
layers = (
{
layerId = m003;
paths = (
{
closed = 1;
nodes = (
"713 552 LINE",
"571 259 LINE",
"555 552 LINE",
"394 552 LINE",
"252 259 LINE",
"236 552 LINE",
"55 552 LINE",
"116 0 LINE",
"278 0 LINE",
"420 293 LINE",
"436 0 LINE",
"597 0 LINE",
"894 552 LINE"
);
}
);
width = 831;
},
{
layerId = "4050705C-5704-4184-B7B7-497C68798CAB";
paths = (
{
closed = 1;
nodes = (
"537 249 LINE",
"529 249 LINE",
"529 554 LINE",
"333 554 LINE",
"247 249 LINE",
"240 249 LINE",
"239 554 LINE",
"35 554 LINE",
"111 0 LINE",
"300 0 LINE",
"396 332 LINE",
"404 332 LINE",
"406 0 LINE",
"595 0 LINE",
"827 554 LINE",
"623 554 LINE"
);
}
);
width = 784;
},
{
layerId = "B0F4357D-9A3D-47FA-BF9B-88CD901EB1E7";
paths = (
{
closed = 1;
nodes = (
"537 249 LINE",
"529 249 LINE",
"529 554 LINE",
"333 554 LINE",
"247 249 LINE",
"240 249 LINE",
"239 554 LINE",
"35 554 LINE",
"111 0 LINE",
"300 0 LINE",
"396 332 LINE",
"404 332 LINE",
"406 0 LINE",
"595 0 LINE",
"827 554 LINE",
"623 554 LINE"
);
}
);
width = 784;
},
{
layerId = "8223A6C9-5008-4716-B76D-F393BDA840D5";
paths = (
{
closed = 1;
nodes = (
"713 552 LINE",
"571 259 LINE",
"555 552 LINE",
"394 552 LINE",
"252 259 LINE",
"236 552 LINE",
"55 552 LINE",
"116 0 LINE",
"278 0 LINE",
"420 293 LINE",
"436 0 LINE",
"597 0 LINE",
"894 552 LINE"
);
}
);
width = 831;
}
);
unicode = 0077;
},
{
glyphname = x;
lastChange = "2026-05-29 19:50:48 +0000";
layers = (
{
layerId = m003;
paths = (
{
closed = 1;
nodes = (
"447 552 LINE",
"328 409 LINE",
"271 552 LINE",
"68 552 LINE",
"199 285 LINE",
"-63 0 LINE",
"145 0 LINE",
"275 159 LINE",
"338 0 LINE",
"545 0 LINE",
"405 285 LINE",
"651 552 LINE"
);
}
);
width = 600;
},
{
layerId = "4050705C-5704-4184-B7B7-497C68798CAB";
paths = (
{
closed = 1;
nodes = (
"533 0 LINE",
"408 282 LINE",
"600 554 LINE",
"396 554 LINE",
"313 399 LINE",
"305 399 LINE",
"264 554 LINE",
"60 554 LINE",
"179 282 LINE",
"-27 0 LINE",
"178 0 LINE",
"273 173 LINE",
"281 173 LINE",
"329 0 LINE"
);
}
);
width = 584;
},
{
layerId = "B0F4357D-9A3D-47FA-BF9B-88CD901EB1E7";
paths = (
{
closed = 1;
nodes = (
"533 0 LINE",
"408 282 LINE",
"600 554 LINE",
"396 554 LINE",
"313 399 LINE",
"305 399 LINE",
"264 554 LINE",
"60 554 LINE",
"179 282 LINE",
"-27 0 LINE",
"178 0 LINE",
"273 173 LINE",
"281 173 LINE",
"329 0 LINE"
);
}
);
width = 584;
},
{
layerId = "8223A6C9-5008-4716-B76D-F393BDA840D5";
paths = (
{
closed = 1;
nodes = (
"447 552 LINE",
"328 409 LINE",
"271 552 LINE",
"68 552 LINE",
"199 285 LINE",
"-63 0 LINE",
"145 0 LINE",
"275 159 LINE",
"338 0 LINE",
"545 0 LINE",
"405 285 LINE",
"651 552 LINE"
);
}
);
width = 600;
}
);
unicode = 0078;
},
{
glyphname = y;
lastChange = "2026-05-29 19:50:48 +0000";
layers = (
{
layerId = m003;
paths = (
{
closed = 1;
nodes = (
"495 534 LINE",
"301 169 LINE",
"261 534 LINE",
"79 534 LINE",
"159 15 LINE SMOOTH",
"167 -36 OFFCURVE",
"142 -86 OFFCURVE",
"88 -86 CURVE SMOOTH",
"47 -86 OFFCURVE",
"18 -66 OFFCURVE",
"-12 -44 CURVE",
"-61 -213 LINE",
"-17 -235 OFFCURVE",
"33 -243 OFFCURVE",
"87 -243 CURVE SMOOTH",
"208 -243 OFFCURVE",
"270 -178 OFFCURVE",
"338 -60 CURVE SMOOTH",
"676 534 LINE"
);
}
);
width = 589;
},
{
layerId = "4050705C-5704-4184-B7B7-497C68798CAB";
paths = (
{
closed = 1;
nodes = (
"301 218 LINE",
"293 218 LINE",
"278 554 LINE",
"74 554 LINE",
"164 43 LINE SMOOTH",
"173 -10 OFFCURVE",
"145 -50 OFFCURVE",
"72 -50 CURVE SMOOTH",
"39 -50 OFFCURVE",
"8 -42 OFFCURVE",
"-23 -33 CURVE",
"-33 -204 LINE",
"2 -209 OFFCURVE",
"35 -213 OFFCURVE",
"70 -213 CURVE SMOOTH",
"210 -213 OFFCURVE",
"290 -156 OFFCURVE",
"361 0 CURVE SMOOTH",
"615 554 LINE",
"410 554 LINE"
);
}
);
width = 567;
},
{
layerId = "B0F4357D-9A3D-47FA-BF9B-88CD901EB1E7";
paths = (
{
closed = 1;
nodes = (
"301 218 LINE",
"293 218 LINE",
"278 554 LINE",
"74 554 LINE",
"164 43 LINE SMOOTH",
"173 -10 OFFCURVE",
"145 -50 OFFCURVE",
"72 -50 CURVE SMOOTH",
"39 -50 OFFCURVE",
"8 -42 OFFCURVE",
"-23 -33 CURVE",
"-33 -204 LINE",
"2 -209 OFFCURVE",
"35 -213 OFFCURVE",
"70 -213 CURVE SMOOTH",
"210 -213 OFFCURVE",
"290 -156 OFFCURVE",
"361 0 CURVE SMOOTH",
"615 554 LINE",
"410 554 LINE"
);
}
);
width = 567;
},
{
layerId = "8223A6C9-5008-4716-B76D-F393BDA840D5";
paths = (
{
closed = 1;
nodes = (
"495 534 LINE",
"301 169 LINE",
"261 534 LINE",
"79 534 LINE",
"159 15 LINE SMOOTH",
"167 -36 OFFCURVE",
"142 -86 OFFCURVE",
"88 -86 CURVE SMOOTH",
"47 -86 OFFCURVE",
"18 -66 OFFCURVE",
"-12 -44 CURVE",
"-61 -213 LINE",
"-17 -235 OFFCURVE",
"33 -243 OFFCURVE",
"87 -243 CURVE SMOOTH",
"208 -243 OFFCURVE",
"270 -178 OFFCURVE",
"338 -60 CURVE SMOOTH",
"676 534 LINE"
);
}
);
width = 589;
}
);
leftKerningGroup = y;
note = y;
rightKerningGroup = y;
unicode = 0079;
},
{
glyphname = z;
lastChange = "2026-05-29 19:50:48 +0000";
layers = (
{
layerId = m003;
paths = (
{
closed = 1;
nodes = (
"81 552 LINE",
"48 396 LINE",
"282 396 LINE",
"-12 142 LINE",
"-43 0 LINE",
"418 0 LINE",
"464 157 LINE",
"214 157 LINE",
"507 410 LINE",
"538 552 LINE"
);
}
);
width = 505;
},
{
layerId = "4050705C-5704-4184-B7B7-497C68798CAB";
paths = (
{
closed = 1;
nodes = (
"461 414 LINE",
"481 554 LINE",
"73 554 LINE",
"51 399 LINE",
"247 399 LINE",
"-3 141 LINE",
"-23 0 LINE",
"407 0 LINE",
"442 156 LINE",
"211 156 LINE"
);
}
);
width = 475;
},
{
layerId = "B0F4357D-9A3D-47FA-BF9B-88CD901EB1E7";
paths = (
{
closed = 1;
nodes = (
"461 414 LINE",
"481 554 LINE",
"73 554 LINE",
"51 399 LINE",
"247 399 LINE",
"-3 141 LINE",
"-23 0 LINE",
"407 0 LINE",
"442 156 LINE",
"211 156 LINE"
);
}
);
width = 475;
},
{
layerId = "8223A6C9-5008-4716-B76D-F393BDA840D5";
paths = (
{
closed = 1;
nodes = (
"81 552 LINE",
"48 396 LINE",
"282 396 LINE",
"-12 142 LINE",
"-43 0 LINE",
"418 0 LINE",
"464 157 LINE",
"214 157 LINE",
"507 410 LINE",
"538 552 LINE"
);
}
);
width = 505;
}
);
leftKerningGroup = z;
note = z;
rightKerningGroup = z;
unicode = 007A;
},
{
glyphname = e.001;
lastChange = "2026-05-29 19:50:48 +0000";
layers = (
{
layerId = m003;
paths = (
{
closed = 1;
nodes = (
"325 -11 OFFCURVE",
"398 10 OFFCURVE",
"474 32 CURVE",
"505 180 LINE",
"438 145 OFFCURVE",
"370 129 OFFCURVE",
"300 129 CURVE SMOOTH",
"214 129 OFFCURVE",
"180 167 OFFCURVE",
"188 228 CURVE",
"557 228 LINE",
"562 244 OFFCURVE",
"566 260 OFFCURVE",
"570 277 CURVE SMOOTH",
"603 431 OFFCURVE",
"550 565 OFFCURVE",
"360 565 CURVE SMOOTH",
"179 565 OFFCURVE",
"55 437 OFFCURVE",
"21 277 CURVE SMOOTH",
"-13 117 OFFCURVE",
"59 -11 OFFCURVE",
"250 -11 CURVE SMOOTH"
);
},
{
closed = 1;
nodes = (
"231 386 OFFCURVE",
"271 425 OFFCURVE",
"330 425 CURVE SMOOTH",
"389 425 OFFCURVE",
"410 386 OFFCURVE",
"407 322 CURVE",
"208 322 LINE"
);
}
);
width = 591;
},
{
layerId = "4050705C-5704-4184-B7B7-497C68798CAB";
paths = (
{
closed = 1;
nodes = (
"156 183 LINE",
"539 294 LINE",
"556 442 OFFCURVE",
"500 567 OFFCURVE",
"323 567 CURVE SMOOTH",
"146 567 OFFCURVE",
"52 440 OFFCURVE",
"29 278 CURVE SMOOTH",
"3 96 OFFCURVE",
"74 -9 OFFCURVE",
"253 -9 CURVE SMOOTH",
"316 -9 OFFCURVE",
"377 5 OFFCURVE",
"440 19 CURVE",
"463 178 LINE",
"410 150 OFFCURVE",
"354 138 OFFCURVE",
"297 138 CURVE SMOOTH",
"227 138 OFFCURVE",
"194 182 OFFCURVE",
"208 277 CURVE SMOOTH",
"223 385 OFFCURVE",
"262 420 OFFCURVE",
"303 420 CURVE SMOOTH",
"336 420 OFFCURVE",
"361 398 OFFCURVE",
"357 334 CURVE",
"171 284 LINE"
);
}
);
width = 565;
},
{
associatedMasterId = "4050705C-5704-4184-B7B7-497C68798CAB";
layerId = "1EE6A78B-5FC8-4C0A-8F77-F21387513CCF";
name = "May 18, 26 at 12:27";
paths = (
{
closed = 1;
nodes = (
"169 223 LINE",
"537 278 LINE",
"537 440 OFFCURVE",
"460 567 OFFCURVE",
"283 567 CURVE SMOOTH",
"106 567 OFFCURVE",
"29 440 OFFCURVE",
"29 278 CURVE SMOOTH",
"29 96 OFFCURVE",
"114 -9 OFFCURVE",
"293 -9 CURVE SMOOTH",
"356 -9 OFFCURVE",
"416 5 OFFCURVE",
"477 19 CURVE",
"477 178 LINE",
"428 150 OFFCURVE",
"374 138 OFFCURVE",
"317 138 CURVE SMOOTH",
"247 138 OFFCURVE",
"208 182 OFFCURVE",
"208 277 CURVE SMOOTH",
"208 385 OFFCURVE",
"242 420 OFFCURVE",
"283 420 CURVE SMOOTH",
"316 420 OFFCURVE",
"351 394 OFFCURVE",
"351 324 CURVE",
"170 324 LINE"
);
}
);
visible = 1;
width = 565;
},
{
layerId = "B0F4357D-9A3D-47FA-BF9B-88CD901EB1E7";
width = 482.5;
},
{
layerId = "8223A6C9-5008-4716-B76D-F393BDA840D5";
paths = (
{
closed = 1;
nodes = (
"325 -11 OFFCURVE",
"398 10 OFFCURVE",
"474 32 CURVE",
"505 180 LINE",
"438 145 OFFCURVE",
"370 129 OFFCURVE",
"300 129 CURVE SMOOTH",
"214 129 OFFCURVE",
"180 167 OFFCURVE",
"188 228 CURVE",
"557 228 LINE",
"562 244 OFFCURVE",
"566 260 OFFCURVE",
"570 277 CURVE SMOOTH",
"603 431 OFFCURVE",
"550 565 OFFCURVE",
"360 565 CURVE SMOOTH",
"179 565 OFFCURVE",
"55 437 OFFCURVE",
"21 277 CURVE SMOOTH",
"-13 117 OFFCURVE",
"59 -11 OFFCURVE",
"250 -11 CURVE SMOOTH"
);
},
{
closed = 1;
nodes = (
"231 386 OFFCURVE",
"271 425 OFFCURVE",
"330 425 CURVE SMOOTH",
"389 425 OFFCURVE",
"410 386 OFFCURVE",
"407 322 CURVE",
"208 322 LINE"
);
}
);
width = 591;
}
);
leftKerningGroup = e;
note = e;
rightKerningGroup = e;
},
{
color = 1;
glyphname = s.mid;
lastChange = "2026-05-29 19:50:48 +0000";
layers = (
{
layerId = m003;
paths = (
{
closed = 1;
nodes = (
"496 -11 OFFCURVE",
"592 54 OFFCURVE",
"615 166 CURVE SMOOTH",
"656 358 OFFCURVE",
"263 335 OFFCURVE",
"275 390 CURVE SMOOTH",
"279 409 OFFCURVE",
"305 425 OFFCURVE",
"366 425 CURVE SMOOTH",
"466 425 OFFCURVE",
"557 406 OFFCURVE",
"638 372 CURVE",
"672 533 LINE",
"582 558 OFFCURVE",
"479 565 OFFCURVE",
"375 565 CURVE SMOOTH",
"185 565 OFFCURVE",
"90 493 OFFCURVE",
"68 391 CURVE SMOOTH",
"26 191 OFFCURVE",
"420 228 OFFCURVE",
"406 164 CURVE SMOOTH",
"401 141 OFFCURVE",
"361 129 OFFCURVE",
"296 129 CURVE SMOOTH",
"208 129 OFFCURVE",
"112 147 OFFCURVE",
"24 190 CURVE",
"-11 26 LINE",
"69 2 OFFCURVE",
"159 -11 OFFCURVE",
"264 -11 CURVE SMOOTH"
);
}
);
width = 681;
},
{
layerId = "4050705C-5704-4184-B7B7-497C68798CAB";
paths = (
{
closed = 1;
nodes = (
"320 -11 OFFCURVE",
"429 39 OFFCURVE",
"445 157 CURVE SMOOTH",
"473 354 OFFCURVE",
"231 325 OFFCURVE",
"238 380 CURVE SMOOTH",
"243 412 OFFCURVE",
"282 409 OFFCURVE",
"314 409 CURVE SMOOTH",
"367 409 OFFCURVE",
"415 395 OFFCURVE",
"464 381 CURVE",
"487 547 LINE",
"428 559 OFFCURVE",
"366 565 OFFCURVE",
"303 565 CURVE SMOOTH",
"167 565 OFFCURVE",
"59 511 OFFCURVE",
"43 396 CURVE SMOOTH",
"15 202 OFFCURVE",
"259 238 OFFCURVE",
"250 179 CURVE SMOOTH",
"246 147 OFFCURVE",
"205 148 OFFCURVE",
"173 148 CURVE SMOOTH",
"115 148 OFFCURVE",
"64 166 OFFCURVE",
"13 185 CURVE",
"-12 7 LINE",
"51 -7 OFFCURVE",
"117 -11 OFFCURVE",
"183 -11 CURVE SMOOTH"
);
}
);
width = 489;
},
{
layerId = "B0F4357D-9A3D-47FA-BF9B-88CD901EB1E7";
paths = (
{
closed = 1;
nodes = (
"276.5 -11 OFFCURVE",
"361.5 42.75 OFFCURVE",
"376 144.25 CURVE SMOOTH",
"401 325.5 OFFCURVE",
"138.75 315.25 OFFCURVE",
"151.75 410.75 CURVE SMOOTH",
"158.25 454.75 OFFCURVE",
"202.5 475.75 OFFCURVE",
"262.25 475.75 CURVE SMOOTH",
"309.25 475.75 OFFCURVE",
"340.75 467.75 OFFCURVE",
"393.5 447 CURVE",
"407.5 544.75 LINE",
"360.5 559 OFFCURVE",
"316.5 565 OFFCURVE",
"264.75 565 CURVE SMOOTH",
"146 565 OFFCURVE",
"58.25 507.25 OFFCURVE",
"44.5 409.5 CURVE SMOOTH",
"20.25 238.75 OFFCURVE",
"285.25 259.75 OFFCURVE",
"268.75 147.5 CURVE SMOOTH",
"262.5 102 OFFCURVE",
"217.75 76 OFFCURVE",
"152 77.5 CURVE SMOOTH",
"100 78.25 OFFCURVE",
"61 89.5 OFFCURVE",
"3.25 116 CURVE",
"-11.25 13 LINE",
"33.75 -3.25 OFFCURVE",
"90 -11 OFFCURVE",
"147.75 -11 CURVE SMOOTH"
);
}
);
width = 421.5;
},
{
layerId = "8223A6C9-5008-4716-B76D-F393BDA840D5";
paths = (
{
closed = 1;
nodes = (
"423.25 -11 OFFCURVE",
"528.25 42.75 OFFCURVE",
"551.25 151.75 CURVE SMOOTH",
"599 373.75 OFFCURVE",
"155 287 OFFCURVE",
"179.75 405 CURVE SMOOTH",
"189 448.75 OFFCURVE",
"242.75 479.75 OFFCURVE",
"357.75 479.75 CURVE SMOOTH",
"465.25 479.75 OFFCURVE",
"537.5 450.25 OFFCURVE",
"587 426 CURVE",
"608.25 524.75 LINE",
"549 546 OFFCURVE",
"466.25 565 OFFCURVE",
"369 565 CURVE SMOOTH",
"210.5 565 OFFCURVE",
"91.5 506.5 OFFCURVE",
"68.75 402.25 CURVE SMOOTH",
"26 198.5 OFFCURVE",
"470.25 288 OFFCURVE",
"441.25 152.75 CURVE SMOOTH",
"431 105 OFFCURVE",
"376 71.25 OFFCURVE",
"254 72.75 CURVE SMOOTH",
"145 73.5 OFFCURVE",
"71.5 102 OFFCURVE",
"12 133.75 CURVE",
"-10.25 32 LINE",
"47.25 7.25 OFFCURVE",
"137.25 -11 OFFCURVE",
"240 -11 CURVE SMOOTH"
);
}
);
width = 620.25;
}
);
leftKerningGroup = s;
note = s;
rightKerningGroup = s;
},
{
glyphname = s.001;
lastChange = "2026-05-29 19:50:48 +0000";
layers = (
{
layerId = m003;
paths = (
{
closed = 1;
nodes = (
"493 -11 OFFCURVE",
"590 47 OFFCURVE",
"611 146 CURVE SMOOTH",
"653 345 OFFCURVE",
"256 299 OFFCURVE",
"269 360 CURVE SMOOTH",
"273 379 OFFCURVE",
"302 395 OFFCURVE",
"370 395 CURVE SMOOTH",
"466 395 OFFCURVE",
"554 376 OFFCURVE",
"632 342 CURVE",
"672 533 LINE",
"585 558 OFFCURVE",
"486 565 OFFCURVE",
"385 565 CURVE SMOOTH",
"188 565 OFFCURVE",
"92 501 OFFCURVE",
"72 411 CURVE SMOOTH",
"28 204 OFFCURVE",
"427 264 OFFCURVE",
"412 194 CURVE SMOOTH",
"407 171 OFFCURVE",
"363 159 OFFCURVE",
"292 159 CURVE SMOOTH",
"207 159 OFFCURVE",
"116 177 OFFCURVE",
"30 220 CURVE",
"-11 26 LINE",
"66 2 OFFCURVE",
"153 -11 OFFCURVE",
"254 -11 CURVE SMOOTH"
);
}
);
width = 681;
},
{
layerId = "4050705C-5704-4184-B7B7-497C68798CAB";
paths = (
{
closed = 1;
nodes = (
"320 -11 OFFCURVE",
"429 39 OFFCURVE",
"445 157 CURVE SMOOTH",
"473 354 OFFCURVE",
"231 325 OFFCURVE",
"238 380 CURVE SMOOTH",
"243 412 OFFCURVE",
"282 409 OFFCURVE",
"314 409 CURVE SMOOTH",
"367 409 OFFCURVE",
"415 395 OFFCURVE",
"464 381 CURVE",
"487 547 LINE",
"428 559 OFFCURVE",
"366 565 OFFCURVE",
"303 565 CURVE SMOOTH",
"167 565 OFFCURVE",
"59 511 OFFCURVE",
"43 396 CURVE SMOOTH",
"15 202 OFFCURVE",
"259 238 OFFCURVE",
"250 179 CURVE SMOOTH",
"246 147 OFFCURVE",
"205 148 OFFCURVE",
"173 148 CURVE SMOOTH",
"115 148 OFFCURVE",
"64 166 OFFCURVE",
"13 185 CURVE",
"-12 7 LINE",
"51 -7 OFFCURVE",
"117 -11 OFFCURVE",
"183 -11 CURVE SMOOTH"
);
}
);
width = 489;
},
{
layerId = "B0F4357D-9A3D-47FA-BF9B-88CD901EB1E7";
paths = (
{
closed = 1;
nodes = (
"276.5 -11 OFFCURVE",
"361.5 42.75 OFFCURVE",
"376 144.25 CURVE SMOOTH",
"401 325.5 OFFCURVE",
"138.75 315.25 OFFCURVE",
"151.75 410.75 CURVE SMOOTH",
"158.25 454.75 OFFCURVE",
"202.5 475.75 OFFCURVE",
"262.25 475.75 CURVE SMOOTH",
"309.25 475.75 OFFCURVE",
"340.75 467.75 OFFCURVE",
"393.5 447 CURVE",
"407.5 544.75 LINE",
"360.5 559 OFFCURVE",
"316.5 565 OFFCURVE",
"264.75 565 CURVE SMOOTH",
"146 565 OFFCURVE",
"58.25 507.25 OFFCURVE",
"44.5 409.5 CURVE SMOOTH",
"20.25 238.75 OFFCURVE",
"285.25 259.75 OFFCURVE",
"268.75 147.5 CURVE SMOOTH",
"262.5 102 OFFCURVE",
"217.75 76 OFFCURVE",
"152 77.5 CURVE SMOOTH",
"100 78.25 OFFCURVE",
"61 89.5 OFFCURVE",
"3.25 116 CURVE",
"-11.25 13 LINE",
"33.75 -3.25 OFFCURVE",
"90 -11 OFFCURVE",
"147.75 -11 CURVE SMOOTH"
);
}
);
width = 421.5;
},
{
layerId = "8223A6C9-5008-4716-B76D-F393BDA840D5";
paths = (
{
closed = 1;
nodes = (
"422.5 -11 OFFCURVE",
"527.75 41 OFFCURVE",
"550.25 146.75 CURVE SMOOTH",
"598.25 370.5 OFFCURVE",
"153.25 278 OFFCURVE",
"178.25 397.5 CURVE SMOOTH",
"187.5 441.25 OFFCURVE",
"242 472.25 OFFCURVE",
"358.75 472.25 CURVE SMOOTH",
"465.25 472.25 OFFCURVE",
"536.75 442.75 OFFCURVE",
"585.5 418.5 CURVE",
"608.25 524.75 LINE",
"549.75 546 OFFCURVE",
"468 565 OFFCURVE",
"371.5 565 CURVE SMOOTH",
"211.25 565 OFFCURVE",
"92 508.5 OFFCURVE",
"69.75 407.25 CURVE SMOOTH",
"26.5 201.75 OFFCURVE",
"472 297 OFFCURVE",
"442.75 160.25 CURVE SMOOTH",
"432.5 112.5 OFFCURVE",
"376.5 78.75 OFFCURVE",
"253 80.25 CURVE SMOOTH",
"144.75 81 OFFCURVE",
"72.5 109.5 OFFCURVE",
"13.5 141.25 CURVE",
"-10.25 32 LINE",
"46.5 7.25 OFFCURVE",
"135.75 -11 OFFCURVE",
"237.5 -11 CURVE SMOOTH"
);
}
);
width = 620.25;
}
);
leftKerningGroup = s;
note = s;
rightKerningGroup = s;
},
{
glyphname = f_f.liga;
lastChange = "2026-05-29 19:50:48 +0000";
layers = (
{
layerId = m003;
paths = (
{
closed = 1;
nodes = (
"802 605 OFFCURVE",
"836 596 OFFCURVE",
"870 586 CURVE",
"911 722 LINE",
"864 733 OFFCURVE",
"816 740 OFFCURVE",
"765 740 CURVE SMOOTH",
"647 740 OFFCURVE",
"545 668 OFFCURVE",
"520 550 CURVE",
"308 550 LINE",
"317 590 OFFCURVE",
"337 605 OFFCURVE",
"381 605 CURVE SMOOTH",
"418 605 OFFCURVE",
"452 596 OFFCURVE",
"486 586 CURVE",
"527 722 LINE",
"480 733 OFFCURVE",
"432 740 OFFCURVE",
"381 740 CURVE SMOOTH",
"251 740 OFFCURVE",
"164 680 OFFCURVE",
"136 550 CURVE",
"60 550 LINE",
"29 405 LINE",
"105 405 LINE",
"19 0 LINE",
"191 0 LINE",
"277 405 LINE",
"489 405 LINE",
"403 0 LINE",
"575 0 LINE",
"661 405 LINE",
"809 405 LINE",
"840 550 LINE",
"692 550 LINE",
"700 586 OFFCURVE",
"729 605 OFFCURVE",
"765 605 CURVE SMOOTH"
);
}
);
width = 858;
},
{
layerId = "4050705C-5704-4184-B7B7-497C68798CAB";
width = 600;
},
{
layerId = "B0F4357D-9A3D-47FA-BF9B-88CD901EB1E7";
width = 600;
},
{
layerId = "8223A6C9-5008-4716-B76D-F393BDA840D5";
paths = (
{
closed = 1;
nodes = (
"802 605 OFFCURVE",
"836 596 OFFCURVE",
"870 586 CURVE",
"911 722 LINE",
"864 733 OFFCURVE",
"816 740 OFFCURVE",
"765 740 CURVE SMOOTH",
"647 740 OFFCURVE",
"545 668 OFFCURVE",
"520 550 CURVE",
"308 550 LINE",
"317 590 OFFCURVE",
"337 605 OFFCURVE",
"381 605 CURVE SMOOTH",
"418 605 OFFCURVE",
"452 596 OFFCURVE",
"486 586 CURVE",
"527 722 LINE",
"480 733 OFFCURVE",
"432 740 OFFCURVE",
"381 740 CURVE SMOOTH",
"251 740 OFFCURVE",
"164 680 OFFCURVE",
"136 550 CURVE",
"60 550 LINE",
"29 405 LINE",
"105 405 LINE",
"19 0 LINE",
"191 0 LINE",
"277 405 LINE",
"489 405 LINE",
"403 0 LINE",
"575 0 LINE",
"661 405 LINE",
"809 405 LINE",
"840 550 LINE",
"692 550 LINE",
"700 586 OFFCURVE",
"729 605 OFFCURVE",
"765 605 CURVE SMOOTH"
);
}
);
width = 858;
}
);
},
{
glyphname = f_t.liga;
lastChange = "2026-05-29 19:50:48 +0000";
layers = (
{
layerId = m003;
paths = (
{
closed = 1;
nodes = (
"758 158 OFFCURVE",
"719 143 OFFCURVE",
"679 143 CURVE SMOOTH",
"638 143 OFFCURVE",
"623 160 OFFCURVE",
"631 200 CURVE SMOOTH",
"675 405 LINE",
"856 405 LINE",
"886 550 LINE",
"705 550 LINE",
"732 675 LINE",
"557 662 LINE",
"533 550 LINE",
"309 550 LINE",
"318 591 OFFCURVE",
"338 605 OFFCURVE",
"382 605 CURVE SMOOTH",
"419 605 OFFCURVE",
"453 596 OFFCURVE",
"487 587 CURVE",
"528 722 LINE",
"481 733 OFFCURVE",
"433 740 OFFCURVE",
"382 740 CURVE SMOOTH",
"252 740 OFFCURVE",
"165 681 OFFCURVE",
"137 550 CURVE",
"61 550 LINE",
"31 405 LINE",
"107 405 LINE",
"21 0 LINE",
"193 0 LINE",
"279 405 LINE",
"503 405 LINE",
"458 194 LINE SMOOTH",
"430 63 OFFCURVE",
"487 -11 OFFCURVE",
"618 -11 CURVE SMOOTH",
"671 -11 OFFCURVE",
"722 8 OFFCURVE",
"775 27 CURVE",
"797 177 LINE"
);
}
);
width = 872;
},
{
layerId = "4050705C-5704-4184-B7B7-497C68798CAB";
width = 600;
},
{
layerId = "B0F4357D-9A3D-47FA-BF9B-88CD901EB1E7";
width = 600;
},
{
layerId = "8223A6C9-5008-4716-B76D-F393BDA840D5";
paths = (
{
closed = 1;
nodes = (
"758 158 OFFCURVE",
"719 143 OFFCURVE",
"679 143 CURVE SMOOTH",
"638 143 OFFCURVE",
"623 160 OFFCURVE",
"631 200 CURVE SMOOTH",
"675 405 LINE",
"856 405 LINE",
"886 550 LINE",
"705 550 LINE",
"732 675 LINE",
"557 662 LINE",
"533 550 LINE",
"309 550 LINE",
"318 591 OFFCURVE",
"338 605 OFFCURVE",
"382 605 CURVE SMOOTH",
"419 605 OFFCURVE",
"453 596 OFFCURVE",
"487 587 CURVE",
"528 722 LINE",
"481 733 OFFCURVE",
"433 740 OFFCURVE",
"382 740 CURVE SMOOTH",
"252 740 OFFCURVE",
"165 681 OFFCURVE",
"137 550 CURVE",
"61 550 LINE",
"31 405 LINE",
"107 405 LINE",
"21 0 LINE",
"193 0 LINE",
"279 405 LINE",
"503 405 LINE",
"458 194 LINE SMOOTH",
"430 63 OFFCURVE",
"487 -11 OFFCURVE",
"618 -11 CURVE SMOOTH",
"671 -11 OFFCURVE",
"722 8 OFFCURVE",
"775 27 CURVE",
"797 177 LINE"
);
}
);
width = 872;
}
);
},
{
glyphname = t_f.liga;
lastChange = "2026-05-29 19:50:48 +0000";
layers = (
{
layerId = m003;
paths = (
{
closed = 1;
nodes = (
"824 605 OFFCURVE",
"858 596 OFFCURVE",
"892 587 CURVE",
"933 722 LINE",
"886 733 OFFCURVE",
"838 740 OFFCURVE",
"787 740 CURVE SMOOTH",
"657 740 OFFCURVE",
"570 681 OFFCURVE",
"542 550 CURVE",
"310 550 LINE",
"337 675 LINE",
"162 662 LINE",
"138 550 LINE",
"61 550 LINE",
"31 405 LINE",
"108 405 LINE",
"63 194 LINE SMOOTH",
"35 63 OFFCURVE",
"92 -11 OFFCURVE",
"223 -11 CURVE SMOOTH",
"276 -11 OFFCURVE",
"327 8 OFFCURVE",
"380 27 CURVE",
"401 177 LINE",
"362 157 OFFCURVE",
"323 143 OFFCURVE",
"283 143 CURVE SMOOTH",
"243 143 OFFCURVE",
"228 160 OFFCURVE",
"236 200 CURVE SMOOTH",
"280 405 LINE",
"512 405 LINE",
"426 0 LINE",
"598 0 LINE",
"684 405 LINE",
"832 405 LINE",
"862 550 LINE",
"714 550 LINE",
"723 591 OFFCURVE",
"743 605 OFFCURVE",
"787 605 CURVE SMOOTH"
);
}
);
width = 879;
},
{
layerId = "4050705C-5704-4184-B7B7-497C68798CAB";
width = 600;
},
{
layerId = "B0F4357D-9A3D-47FA-BF9B-88CD901EB1E7";
width = 600;
},
{
layerId = "8223A6C9-5008-4716-B76D-F393BDA840D5";
paths = (
{
closed = 1;
nodes = (
"824 605 OFFCURVE",
"858 596 OFFCURVE",
"892 587 CURVE",
"933 722 LINE",
"886 733 OFFCURVE",
"838 740 OFFCURVE",
"787 740 CURVE SMOOTH",
"657 740 OFFCURVE",
"570 681 OFFCURVE",
"542 550 CURVE",
"310 550 LINE",
"337 675 LINE",
"162 662 LINE",
"138 550 LINE",
"61 550 LINE",
"31 405 LINE",
"108 405 LINE",
"63 194 LINE SMOOTH",
"35 63 OFFCURVE",
"92 -11 OFFCURVE",
"223 -11 CURVE SMOOTH",
"276 -11 OFFCURVE",
"327 8 OFFCURVE",
"380 27 CURVE",
"401 177 LINE",
"362 157 OFFCURVE",
"323 143 OFFCURVE",
"283 143 CURVE SMOOTH",
"243 143 OFFCURVE",
"228 160 OFFCURVE",
"236 200 CURVE SMOOTH",
"280 405 LINE",
"512 405 LINE",
"426 0 LINE",
"598 0 LINE",
"684 405 LINE",
"832 405 LINE",
"862 550 LINE",
"714 550 LINE",
"723 591 OFFCURVE",
"743 605 OFFCURVE",
"787 605 CURVE SMOOTH"
);
}
);
width = 879;
}
);
},
{
glyphname = t_t.liga;
lastChange = "2026-05-29 19:50:48 +0000";
layers = (
{
layerId = m003;
paths = (
{
closed = 1;
nodes = (
"766 157 OFFCURVE",
"727 142 OFFCURVE",
"687 142 CURVE SMOOTH",
"646 142 OFFCURVE",
"630 160 OFFCURVE",
"639 200 CURVE SMOOTH",
"683 405 LINE",
"864 405 LINE",
"894 550 LINE",
"713 550 LINE",
"740 675 LINE",
"565 662 LINE",
"541 550 LINE",
"316 550 LINE",
"343 675 LINE",
"168 662 LINE",
"144 550 LINE",
"68 550 LINE",
"38 405 LINE",
"114 405 LINE",
"69 194 LINE SMOOTH",
"41 63 OFFCURVE",
"98 -11 OFFCURVE",
"229 -11 CURVE SMOOTH",
"282 -11 OFFCURVE",
"333 8 OFFCURVE",
"386 27 CURVE",
"408 177 LINE",
"369 157 OFFCURVE",
"330 142 OFFCURVE",
"290 142 CURVE SMOOTH",
"249 142 OFFCURVE",
"233 160 OFFCURVE",
"242 200 CURVE SMOOTH",
"286 405 LINE",
"511 405 LINE",
"466 194 LINE SMOOTH",
"438 63 OFFCURVE",
"496 -11 OFFCURVE",
"626 -11 CURVE SMOOTH",
"679 -11 OFFCURVE",
"730 8 OFFCURVE",
"784 27 CURVE",
"805 177 LINE"
);
}
);
width = 871;
},
{
layerId = "4050705C-5704-4184-B7B7-497C68798CAB";
width = 600;
},
{
layerId = "B0F4357D-9A3D-47FA-BF9B-88CD901EB1E7";
width = 600;
},
{
layerId = "8223A6C9-5008-4716-B76D-F393BDA840D5";
paths = (
{
closed = 1;
nodes = (
"766 157 OFFCURVE",
"727 142 OFFCURVE",
"687 142 CURVE SMOOTH",
"646 142 OFFCURVE",
"630 160 OFFCURVE",
"639 200 CURVE SMOOTH",
"683 405 LINE",
"864 405 LINE",
"894 550 LINE",
"713 550 LINE",
"740 675 LINE",
"565 662 LINE",
"541 550 LINE",
"316 550 LINE",
"343 675 LINE",
"168 662 LINE",
"144 550 LINE",
"68 550 LINE",
"38 405 LINE",
"114 405 LINE",
"69 194 LINE SMOOTH",
"41 63 OFFCURVE",
"98 -11 OFFCURVE",
"229 -11 CURVE SMOOTH",
"282 -11 OFFCURVE",
"333 8 OFFCURVE",
"386 27 CURVE",
"408 177 LINE",
"369 157 OFFCURVE",
"330 142 OFFCURVE",
"290 142 CURVE SMOOTH",
"249 142 OFFCURVE",
"233 160 OFFCURVE",
"242 200 CURVE SMOOTH",
"286 405 LINE",
"511 405 LINE",
"466 194 LINE SMOOTH",
"438 63 OFFCURVE",
"496 -11 OFFCURVE",
"626 -11 CURVE SMOOTH",
"679 -11 OFFCURVE",
"730 8 OFFCURVE",
"784 27 CURVE",
"805 177 LINE"
);
}
);
width = 871;
}
);
},
{
glyphname = zero;
lastChange = "2026-05-29 19:50:48 +0000";
layers = (
{
layerId = m003;
paths = (
{
closed = 1;
nodes = (
"181 731 OFFCURVE",
"75 566 OFFCURVE",
"31 359 CURVE SMOOTH",
"-13 153 OFFCURVE",
"23 -12 OFFCURVE",
"239 -12 CURVE SMOOTH",
"455 -12 OFFCURVE",
"561 153 OFFCURVE",
"605 359 CURVE SMOOTH",
"649 566 OFFCURVE",
"613 731 OFFCURVE",
"397 731 CURVE SMOOTH"
);
},
{
closed = 1;
nodes = (
"386 581 OFFCURVE",
"403 571 OFFCURVE",
"413 554 CURVE",
"205 292 LINE",
"207 313 OFFCURVE",
"211 335 OFFCURVE",
"216 359 CURVE SMOOTH",
"243 488 OFFCURVE",
"298 581 OFFCURVE",
"365 581 CURVE SMOOTH"
);
},
{
closed = 1;
nodes = (
"249 138 OFFCURVE",
"233 148 OFFCURVE",
"222 165 CURVE",
"432 428 LINE",
"429 406 OFFCURVE",
"425 384 OFFCURVE",
"420 359 CURVE SMOOTH",
"393 231 OFFCURVE",
"338 138 OFFCURVE",
"271 138 CURVE SMOOTH"
);
}
);
width = 636;
},
{
layerId = "4050705C-5704-4184-B7B7-497C68798CAB";
paths = (
{
closed = 1;
nodes = (
"137 731 OFFCURVE",
"54 532 OFFCURVE",
"30 360 CURVE",
"6 187 OFFCURVE",
"33 -12 OFFCURVE",
"253 -12 CURVE",
"473 -12 OFFCURVE",
"556 187 OFFCURVE",
"580 360 CURVE",
"604 532 OFFCURVE",
"577 731 OFFCURVE",
"357 731 CURVE"
);
},
{
closed = 1;
nodes = (
"215 156 OFFCURVE",
"218 277 OFFCURVE",
"230 360 CURVE SMOOTH",
"242 442 OFFCURVE",
"273 563 OFFCURVE",
"334 563 CURVE SMOOTH",
"395 563 OFFCURVE",
"392 442 OFFCURVE",
"380 360 CURVE SMOOTH",
"368 277 OFFCURVE",
"337 156 OFFCURVE",
"276 156 CURVE SMOOTH"
);
}
);
width = 610;
},
{
layerId = "B0F4357D-9A3D-47FA-BF9B-88CD901EB1E7";
paths = (
{
closed = 1;
nodes = (
"137 731 OFFCURVE",
"54 532 OFFCURVE",
"30 360 CURVE",
"6 187 OFFCURVE",
"33 -12 OFFCURVE",
"253 -12 CURVE",
"473 -12 OFFCURVE",
"556 187 OFFCURVE",
"580 360 CURVE",
"604 532 OFFCURVE",
"577 731 OFFCURVE",
"357 731 CURVE"
);
},
{
closed = 1;
nodes = (
"215 156 OFFCURVE",
"218 277 OFFCURVE",
"230 360 CURVE SMOOTH",
"242 442 OFFCURVE",
"273 563 OFFCURVE",
"334 563 CURVE SMOOTH",
"395 563 OFFCURVE",
"392 442 OFFCURVE",
"380 360 CURVE SMOOTH",
"368 277 OFFCURVE",
"337 156 OFFCURVE",
"276 156 CURVE SMOOTH"
);
}
);
width = 610;
},
{
layerId = "8223A6C9-5008-4716-B76D-F393BDA840D5";
paths = (
{
closed = 1;
nodes = (
"181 731 OFFCURVE",
"75 566 OFFCURVE",
"31 359 CURVE SMOOTH",
"-13 153 OFFCURVE",
"23 -12 OFFCURVE",
"239 -12 CURVE SMOOTH",
"455 -12 OFFCURVE",
"561 153 OFFCURVE",
"605 359 CURVE SMOOTH",
"649 566 OFFCURVE",
"613 731 OFFCURVE",
"397 731 CURVE SMOOTH"
);
},
{
closed = 1;
nodes = (
"386 581 OFFCURVE",
"403 571 OFFCURVE",
"413 554 CURVE",
"205 292 LINE",
"207 313 OFFCURVE",
"211 335 OFFCURVE",
"216 359 CURVE SMOOTH",
"243 488 OFFCURVE",
"298 581 OFFCURVE",
"365 581 CURVE SMOOTH"
);
},
{
closed = 1;
nodes = (
"249 138 OFFCURVE",
"233 148 OFFCURVE",
"222 165 CURVE",
"432 428 LINE",
"429 406 OFFCURVE",
"425 384 OFFCURVE",
"420 359 CURVE SMOOTH",
"393 231 OFFCURVE",
"338 138 OFFCURVE",
"271 138 CURVE SMOOTH"
);
}
);
width = 636;
}
);
unicode = 0030;
},
{
glyphname = one;
lastChange = "2026-05-29 19:50:48 +0000";
layers = (
{
layerId = m003;
paths = (
{
closed = 1;
nodes = (
"263 721 LINE",
"249 655 OFFCURVE",
"212 600 OFFCURVE",
"146 600 CURVE SMOOTH",
"119 600 OFFCURVE",
"94 606 OFFCURVE",
"68 612 CURVE",
"46 449 LINE",
"105 450 OFFCURVE",
"162 462 OFFCURVE",
"215 500 CURVE",
"108 0 LINE",
"284 0 LINE",
"438 721 LINE"
);
}
);
width = 417;
},
{
layerId = "4050705C-5704-4184-B7B7-497C68798CAB";
paths = (
{
closed = 1;
nodes = (
"258 721 LINE",
"225 641 OFFCURVE",
"157 606 OFFCURVE",
"83 618 CURVE",
"43 435 LINE",
"123 427 OFFCURVE",
"172 469 OFFCURVE",
"206 525 CURVE",
"213 525 LINE",
"203 474 LINE SMOOTH",
"195 441 OFFCURVE",
"190 409 OFFCURVE",
"185 376 CURVE SMOOTH",
"132 0 LINE",
"328 0 LINE",
"430 721 LINE"
);
}
);
width = 432;
},
{
layerId = "B0F4357D-9A3D-47FA-BF9B-88CD901EB1E7";
paths = (
{
closed = 1;
nodes = (
"258 721 LINE",
"225 641 OFFCURVE",
"157 606 OFFCURVE",
"83 618 CURVE",
"43 435 LINE",
"123 427 OFFCURVE",
"172 469 OFFCURVE",
"206 525 CURVE",
"213 525 LINE",
"203 474 LINE SMOOTH",
"195 441 OFFCURVE",
"190 409 OFFCURVE",
"185 376 CURVE SMOOTH",
"132 0 LINE",
"328 0 LINE",
"430 721 LINE"
);
}
);
width = 432;
},
{
layerId = "8223A6C9-5008-4716-B76D-F393BDA840D5";
paths = (
{
closed = 1;
nodes = (
"263 721 LINE",
"249 655 OFFCURVE",
"212 600 OFFCURVE",
"146 600 CURVE SMOOTH",
"119 600 OFFCURVE",
"94 606 OFFCURVE",
"68 612 CURVE",
"46 449 LINE",
"105 450 OFFCURVE",
"162 462 OFFCURVE",
"215 500 CURVE",
"108 0 LINE",
"284 0 LINE",
"438 721 LINE"
);
}
);
width = 417;
}
);
leftKerningGroup = one;
note = one;
rightKerningGroup = one;
unicode = 0031;
},
